<svg width="350" height="206" viewBox="0 0 350 206" fill="none" xmlns="http://www.w3.org/2000/svg">
<g filter="url(#filter0_b_5234_4859)">
<g clip-path="url(#clip0_5234_4859)">
<g filter="url(#filter1_d_5234_4859)">
<rect width="350" height="205.333" rx="15" fill="url(#paint0_linear_5234_4859)" shape-rendering="crispEdges"/>
</g>
<path d="M-18.6667 -21H369.833V225.167H-18.6667V-21Z" fill="black" fill-opacity="0.2"/>
<path d="M42.792 26.44L44.36 26.728C44.008 28.616 43.336 30.536 42.504 31.816C42.184 31.592 41.48 31.176 41.064 31.048C41.96 29.768 42.472 28.104 42.792 26.44ZM43.208 28.424H49.832V30.088H42.568L43.208 28.424ZM45.288 26.12H47.048V32.968H45.288V26.12ZM41.576 32.008H49.928V33.672H41.576V32.008ZM43.4 33.32H45.16C44.936 36.008 44.2 37.96 41.928 39.176C41.736 38.792 41.192 38.152 40.808 37.864C42.632 36.968 43.24 35.432 43.4 33.32ZM51.592 26.44L53.192 26.728C52.84 28.616 52.232 30.536 51.4 31.816C51.08 31.624 50.408 31.176 50.024 31.048C50.856 29.768 51.304 28.104 51.592 26.44ZM52.04 28.424H58.984V30.056H51.432L52.04 28.424ZM54.152 26.12H55.912V32.84H54.152V26.12ZM50.408 32.008H59.592V33.672H50.408V32.008ZM52.168 33.288H53.896C53.672 35.944 52.936 37.736 50.664 38.824C50.44 38.44 49.928 37.8 49.544 37.544C51.432 36.712 52.008 35.336 52.168 33.288ZM46.696 32.744H48.328V36.776L46.696 37.128V32.744ZM45.704 36.424C47.048 36.232 48.584 35.944 50.44 35.656L50.536 37.16C49 37.512 47.624 37.832 46.216 38.12L45.704 36.424ZM45.672 43.976V45.768H55.432V43.976H45.672ZM45.672 47.272V49.096H55.432V47.272H45.672ZM45.672 40.712V42.472H55.432V40.712H45.672ZM43.432 39.144H57.768V50.632H43.432V39.144ZM51.912 52.136L53.352 50.76C55.688 51.784 58.312 53.128 59.848 54.184L57.992 55.624C56.584 54.568 54.152 53.16 51.912 52.136ZM55.144 32.872H56.872V36.296C56.872 36.744 56.872 36.968 56.936 37.032C57.032 37.128 57.16 37.16 57.288 37.16C57.448 37.16 57.736 37.16 57.928 37.16C58.12 37.16 58.312 37.128 58.376 37.096C58.472 37.032 58.536 36.904 58.632 36.68C58.696 36.424 58.728 35.912 58.76 35.176C59.08 35.464 59.56 35.688 59.976 35.816C59.944 36.584 59.848 37.448 59.688 37.736C59.56 38.056 59.304 38.28 59.016 38.408C58.792 38.536 58.376 38.568 58.024 38.568C57.768 38.568 57.128 38.568 56.904 38.568C56.424 38.568 55.88 38.472 55.592 38.152C55.24 37.8 55.144 37.416 55.144 36.136V32.872ZM46.664 50.696L48.68 51.944C46.984 53.48 44.04 54.888 41.448 55.592C41.128 55.144 40.488 54.408 40.04 53.928C42.6 53.256 45.416 51.944 46.664 50.696ZM30.28 52.424C33.128 51.912 37.416 51.08 41.64 50.248L41.832 52.328C37.96 53.128 33.864 53.992 30.824 54.6L30.28 52.424ZM32.04 34.088H40.552V36.136H32.04V34.088ZM30.632 39.496H41.192V41.576H30.632V39.496ZM31.176 43.72L32.776 43.336C33.384 45.256 33.832 47.784 33.928 49.416L32.2 49.832C32.168 48.168 31.72 45.64 31.176 43.72ZM39.4 43.016L41.224 43.464C40.744 45.416 40.2 47.72 39.72 49.224L38.152 48.808C38.6 47.24 39.176 44.68 39.4 43.016ZM35.176 34.984H37.192V52.008L35.176 52.296V34.984ZM35.272 26.152H36.552V26.664H37.224V27.272C36.04 29.736 34.088 33.16 31.048 35.976C30.696 35.496 30.024 34.76 29.544 34.44C32.296 32.008 34.248 28.712 35.272 26.152ZM35.528 26.152H37.288C38.888 27.688 40.808 29.864 41.704 31.336L40.04 33.096C39.208 31.656 37.448 29.224 35.944 27.784H35.528V26.152ZM63.08 28.552H90.952V30.92H63.08V28.552ZM69.864 51.016H88.04V53.352H69.864V51.016ZM68.808 39.304H89V55.528H86.472V41.64H71.208V55.592H68.808V39.304ZM72.68 29.704L75.24 30.344C72.936 37 69.128 43.944 63.464 48.264C63.08 47.72 62.28 46.856 61.768 46.408C67.144 42.44 70.856 35.784 72.68 29.704ZM100.264 37.064V41.896H117.832V37.064H100.264ZM98.216 35.432H120.008V43.528H98.216V35.432ZM103.464 31.976H114.632V33.672H103.464V31.976ZM107.848 35.944H109.896V42.632H107.848V35.944ZM108.84 28.072C105.992 30.984 100.648 34.248 95.336 36.232C95.048 35.688 94.504 34.856 94.056 34.344C99.496 32.488 104.904 29.224 107.56 26.12H109.832C113.448 29.608 119.016 32.552 123.976 34.024C123.464 34.536 122.92 35.4 122.568 36.008C117.864 34.376 112.104 31.208 108.84 28.072ZM102.216 38.024L103.944 37.448C104.776 38.568 105.544 40.072 105.864 41.096L104.008 41.768C103.752 40.744 103.016 39.176 102.216 38.024ZM113.736 37.32L115.784 37.96C115.048 39.336 114.248 40.808 113.608 41.768L111.912 41.192C112.52 40.104 113.352 38.408 113.736 37.32ZM100.104 45.064H118.184V55.528H115.752V46.76H102.472V55.56H100.104V45.064ZM101.512 48.904H116.808V50.664H101.512V48.904ZM101.512 52.84H116.808V54.568H101.512V52.84ZM133.448 29.32V32.616H148.648V29.32H133.448ZM131.048 27.368H151.176V34.6H131.048V27.368ZM132.072 42.184V44.456H149.992V42.184H132.072ZM132.072 46.152V48.456H149.992V46.152H132.072ZM132.072 38.248V40.488H149.992V38.248H132.072ZM129.672 36.456H152.456V50.216H129.672V36.456ZM135.784 50.184L138.024 51.656C135.464 53.224 131.304 54.76 128.008 55.592C127.592 55.08 126.792 54.312 126.216 53.832C129.576 53.032 133.768 51.496 135.784 50.184ZM143.592 51.848L145.672 50.28C149 51.272 153.288 52.84 155.784 53.896L153.704 55.624C151.336 54.504 146.984 52.84 143.592 51.848ZM36.328 95.68H37.56V105.28H36.328V95.68ZM32.696 98.384V99.776H41.4V98.384H32.696ZM32.696 96.096V97.456H41.4V96.096H32.696ZM31.528 95.12H42.616V100.736H31.528V95.12ZM29.912 101.968H44.104V103.024H29.912V101.968ZM32.184 92V93.52H35.256V92H32.184ZM31.096 91.2H36.376V94.32H31.096V91.2ZM38.76 92V93.52H41.864V92H38.76ZM37.672 91.2H43V94.32H37.672V91.2ZM45.784 96.864H60.232V97.792H45.784V96.864ZM47.08 100.688H58.936V101.616H47.08V100.688ZM46.056 102.624H59.976V103.584H46.056V102.624ZM47.704 95.008H58.52V99.744H47.576V98.832H57.288V95.92H47.704V95.008ZM52.328 94.128H53.56V105.28H52.328V94.128ZM47.8 91.936H52.856V92.864H47.8V91.936ZM53.8 91.936H60.088V92.864H53.8V91.936ZM48.2 90.544L49.304 90.864C48.664 92.336 47.64 93.84 46.712 94.8C46.472 94.608 45.992 94.304 45.704 94.144C46.712 93.248 47.64 91.888 48.2 90.544ZM54.232 90.544L55.352 90.832C54.696 92.288 53.56 93.632 52.44 94.496C52.216 94.304 51.72 94 51.432 93.888C52.6 93.088 53.656 91.872 54.232 90.544ZM48.728 92.72L49.736 92.432C50.152 92.976 50.616 93.744 50.824 94.24L49.784 94.576C49.592 94.08 49.16 93.296 48.728 92.72ZM54.936 92.688L55.912 92.288C56.44 92.832 57.032 93.6 57.288 94.112L56.28 94.56C56.024 94.032 55.464 93.232 54.936 92.688ZM67.832 97.968H74.68V99.024H67.832V97.968ZM67.8 100.752H74.68V101.792H67.8V100.752ZM74.792 91.008L75.96 91.472C75.384 92.528 74.696 93.696 74.12 94.496L73.112 94.064C73.672 93.248 74.408 91.952 74.792 91.008ZM66.616 91.552L67.624 91.104C68.312 92 69.032 93.232 69.304 94.048L68.232 94.576C67.976 93.744 67.288 92.496 66.616 91.552ZM67.064 95.136H74.744V96.256H68.248V105.28H67.064V95.136ZM74.152 95.136H75.32V103.776C75.32 104.448 75.176 104.8 74.696 105.008C74.216 105.2 73.416 105.2 72.2 105.2C72.136 104.88 71.96 104.384 71.8 104.048C72.728 104.08 73.576 104.08 73.816 104.08C74.072 104.064 74.152 103.984 74.152 103.776V95.136ZM70.648 90.56H71.848V95.84H70.648V90.56ZM62.36 91.568L63.064 90.736C64.056 91.232 65.256 92 65.848 92.592L65.112 93.52C64.552 92.928 63.352 92.096 62.36 91.568ZM61.608 95.84L62.296 94.992C63.288 95.472 64.536 96.24 65.16 96.816L64.44 97.76C63.832 97.184 62.616 96.368 61.608 95.84ZM62.104 104.352C62.888 103.104 63.992 100.992 64.824 99.152L65.72 99.872C64.984 101.584 63.992 103.6 63.144 105.12L62.104 104.352ZM79.8 93.152H89.848V92.256H78.712V91.456H90.968V93.968H79.8V93.152ZM79.432 93.152H80.568C80.264 94.08 79.896 95.136 79.608 95.84L78.504 95.76C78.824 95.04 79.176 94.016 79.432 93.152ZM79.368 94.816H91.224V95.632H79.112L79.368 94.816ZM90.84 94.816H91.976C91.976 94.816 91.96 95.072 91.944 95.216C91.848 96.192 91.736 96.672 91.48 96.928C91.288 97.12 91.016 97.2 90.696 97.216C90.424 97.232 89.864 97.232 89.288 97.184C89.272 96.96 89.176 96.608 89.064 96.384C89.56 96.432 89.992 96.448 90.168 96.448C90.36 96.448 90.456 96.432 90.536 96.352C90.664 96.224 90.744 95.856 90.84 94.976V94.816ZM82.648 90.576H83.752V93.456C83.752 95.568 83.096 97.248 78.456 98.144C78.36 97.872 78.104 97.424 77.896 97.216C82.12 96.416 82.648 95.072 82.648 93.424V90.576ZM86.232 90.576H87.368V96.832H86.232V90.576ZM81.064 99.376V100.368H89.112V99.376H81.064ZM81.064 101.12V102.128H89.112V101.12H81.064ZM81.064 97.648V98.624H89.112V97.648H81.064ZM79.896 96.864H90.312V102.896H79.896V96.864ZM86.296 103.696L87.24 103.072C89.032 103.552 90.984 104.192 92.152 104.672L90.856 105.312C89.832 104.832 88.072 104.224 86.296 103.696ZM82.6 103.056L83.672 103.536C82.376 104.256 80.328 104.944 78.728 105.344C78.536 105.104 78.12 104.656 77.848 104.448C79.512 104.128 81.448 103.632 82.6 103.056ZM97.528 92.08H108.296V93.152H97.528V92.08ZM99.544 98.64H100.808V99.456H99.544V98.64ZM102.216 95.296H103.304V105.104H102.216V95.296ZM106.712 96.688H107.8V104.096C107.8 104.656 107.688 104.928 107.304 105.088C106.92 105.248 106.264 105.248 105.272 105.248C105.224 104.976 105.096 104.608 104.968 104.336C105.656 104.352 106.296 104.352 106.472 104.336C106.664 104.336 106.712 104.288 106.712 104.096V96.688ZM97.896 96.688H107.256V97.728H98.936V105.264H97.896V96.688ZM94.296 91.6L94.984 90.736C95.88 91.152 96.984 91.84 97.528 92.352L96.808 93.328C96.296 92.784 95.192 92.048 94.296 91.6ZM93.592 95.904L94.264 95.024C95.208 95.392 96.36 96.016 96.92 96.512L96.232 97.488C95.672 96.992 94.536 96.32 93.592 95.904ZM93.928 104.448C94.584 103.216 95.496 101.12 96.152 99.328L97.112 99.968C96.504 101.632 95.704 103.6 95 105.088L93.928 104.448ZM99.928 90.56H101.08V94.512H104.552V90.56H105.72V95.552H99.928V90.56ZM100.248 98.64H101.08C101.16 100.464 101.576 101.904 102.312 102.592C102.152 102.688 101.864 102.944 101.752 103.136C100.968 102.352 100.536 100.896 100.44 99.056H100.248V98.64ZM100.264 100.064H100.984C100.84 101.296 100.408 102.512 99.528 103.264C99.416 103.088 99.176 102.848 99 102.736C99.768 102.128 100.152 101.056 100.264 100.064ZM103.896 98.64H105.112V99.456H103.896V98.64ZM104.568 98.64H105.416C105.496 100.464 105.976 101.888 106.776 102.528C106.6 102.656 106.328 102.912 106.184 103.104C105.368 102.32 104.872 100.896 104.776 99.056H104.568V98.64ZM104.6 100.064H105.352C105.192 101.264 104.76 102.416 103.848 103.136C103.736 102.976 103.496 102.72 103.304 102.624C104.104 102.048 104.488 101.008 104.6 100.064ZM113.048 103.264C112.429 103.243 111.843 103.184 111.288 103.088C110.744 102.992 110.285 102.859 109.912 102.688V101.12C110.296 101.301 110.776 101.467 111.352 101.616C111.939 101.755 112.504 101.829 113.048 101.84V98.848C112.493 98.6773 112.013 98.496 111.608 98.304C111.213 98.112 110.888 97.904 110.632 97.68C110.387 97.4453 110.2 97.1787 110.072 96.88C109.955 96.5813 109.896 96.24 109.896 95.856C109.896 95.3333 110.024 94.8853 110.28 94.512C110.547 94.128 110.915 93.824 111.384 93.6C111.864 93.376 112.419 93.2427 113.048 93.2V91.856H114.088V93.184C114.664 93.1947 115.192 93.2587 115.672 93.376C116.152 93.4827 116.605 93.6267 117.032 93.808L116.504 95.184C116.141 95.0347 115.747 94.912 115.32 94.816C114.904 94.7093 114.493 94.64 114.088 94.608V97.552C114.749 97.7653 115.32 97.9893 115.8 98.224C116.291 98.4587 116.669 98.752 116.936 99.104C117.203 99.4453 117.336 99.8987 117.336 100.464C117.336 101.221 117.053 101.84 116.488 102.32C115.933 102.8 115.133 103.093 114.088 103.2V104.928H113.048V103.264ZM114.088 101.776C114.643 101.712 115.043 101.579 115.288 101.376C115.544 101.163 115.672 100.891 115.672 100.56C115.672 100.336 115.619 100.144 115.512 99.984C115.416 99.824 115.251 99.6853 115.016 99.568C114.792 99.4507 114.483 99.3333 114.088 99.216V101.776ZM113.048 94.64C112.717 94.6613 112.44 94.7253 112.216 94.832C112.003 94.928 111.837 95.056 111.72 95.216C111.613 95.376 111.56 95.5627 111.56 95.776C111.56 96.0107 111.608 96.2187 111.704 96.4C111.8 96.5707 111.955 96.72 112.168 96.848C112.381 96.9653 112.675 97.0773 113.048 97.184V94.64ZM126.572 104H118.892V102.688L121.836 99.696C122.412 99.1093 122.892 98.6027 123.276 98.176C123.66 97.7387 123.948 97.3227 124.14 96.928C124.332 96.5227 124.428 96.0853 124.428 95.616C124.428 95.0293 124.258 94.592 123.916 94.304C123.575 94.0053 123.132 93.856 122.588 93.856C122.066 93.856 121.596 93.9573 121.18 94.16C120.764 94.352 120.332 94.624 119.884 94.976L118.972 93.84C119.282 93.5733 119.612 93.3333 119.964 93.12C120.327 92.9067 120.727 92.736 121.164 92.608C121.612 92.48 122.103 92.416 122.636 92.416C123.362 92.416 123.986 92.544 124.508 92.8C125.031 93.0453 125.431 93.3973 125.708 93.856C125.996 94.3147 126.14 94.8533 126.14 95.472C126.14 95.9307 126.071 96.3627 125.932 96.768C125.794 97.1627 125.591 97.552 125.324 97.936C125.068 98.32 124.754 98.7093 124.38 99.104C124.007 99.4987 123.596 99.9147 123.148 100.352L121.02 102.416V102.496H126.572V104ZM135.745 98.272C135.745 99.2 135.67 100.027 135.521 100.752C135.382 101.477 135.158 102.096 134.849 102.608C134.55 103.109 134.15 103.493 133.649 103.76C133.158 104.027 132.566 104.16 131.873 104.16C130.998 104.16 130.278 103.925 129.713 103.456C129.147 102.987 128.726 102.315 128.449 101.44C128.171 100.555 128.033 99.4987 128.033 98.272C128.033 97.0347 128.155 95.9787 128.401 95.104C128.657 94.2293 129.067 93.5627 129.633 93.104C130.198 92.6347 130.945 92.4 131.873 92.4C132.747 92.4 133.467 92.6347 134.033 93.104C134.609 93.5627 135.035 94.2293 135.312 95.104C135.601 95.9787 135.745 97.0347 135.745 98.272ZM129.729 98.272C129.729 99.264 129.798 100.091 129.937 100.752C130.075 101.413 130.299 101.909 130.609 102.24C130.929 102.571 131.35 102.736 131.873 102.736C132.395 102.736 132.811 102.576 133.121 102.256C133.441 101.925 133.67 101.429 133.809 100.768C133.958 100.096 134.033 99.264 134.033 98.272C134.033 97.28 133.958 96.4587 133.809 95.808C133.67 95.1467 133.441 94.6507 133.121 94.32C132.811 93.9893 132.395 93.824 131.873 93.824C131.35 93.824 130.929 93.9893 130.609 94.32C130.299 94.6507 130.075 95.1467 129.937 95.808C129.798 96.4587 129.729 97.28 129.729 98.272ZM139.685 102.32C139.589 102.693 139.466 103.099 139.317 103.536C139.167 103.973 139.007 104.405 138.837 104.832C138.666 105.269 138.49 105.68 138.309 106.064H137.077C137.183 105.648 137.285 105.205 137.381 104.736C137.487 104.277 137.583 103.824 137.669 103.376C137.754 102.928 137.823 102.517 137.877 102.144H139.573L139.685 102.32ZM149.276 98.272C149.276 99.2 149.201 100.027 149.052 100.752C148.913 101.477 148.689 102.096 148.38 102.608C148.081 103.109 147.681 103.493 147.18 103.76C146.689 104.027 146.097 104.16 145.404 104.16C144.529 104.16 143.809 103.925 143.244 103.456C142.678 102.987 142.257 102.315 141.98 101.44C141.702 100.555 141.564 99.4987 141.564 98.272C141.564 97.0347 141.686 95.9787 141.932 95.104C142.188 94.2293 142.598 93.5627 143.164 93.104C143.729 92.6347 144.476 92.4 145.404 92.4C146.278 92.4 146.998 92.6347 147.564 93.104C148.14 93.5627 148.566 94.2293 148.844 95.104C149.132 95.9787 149.276 97.0347 149.276 98.272ZM143.26 98.272C143.26 99.264 143.329 100.091 143.468 100.752C143.606 101.413 143.83 101.909 144.14 102.24C144.46 102.571 144.881 102.736 145.404 102.736C145.926 102.736 146.342 102.576 146.652 102.256C146.972 101.925 147.201 101.429 147.34 100.768C147.489 100.096 147.564 99.264 147.564 98.272C147.564 97.28 147.489 96.4587 147.34 95.808C147.201 95.1467 146.972 94.6507 146.652 94.32C146.342 93.9893 145.926 93.824 145.404 93.824C144.881 93.824 144.46 93.9893 144.14 94.32C143.83 94.6507 143.606 95.1467 143.468 95.808C143.329 96.4587 143.26 97.28 143.26 98.272ZM158.432 98.272C158.432 99.2 158.357 100.027 158.208 100.752C158.069 101.477 157.845 102.096 157.536 102.608C157.237 103.109 156.837 103.493 156.336 103.76C155.845 104.027 155.253 104.16 154.56 104.16C153.685 104.16 152.965 103.925 152.4 103.456C151.835 102.987 151.413 102.315 151.136 101.44C150.859 100.555 150.72 99.4987 150.72 98.272C150.72 97.0347 150.843 95.9787 151.088 95.104C151.344 94.2293 151.755 93.5627 152.32 93.104C152.885 92.6347 153.632 92.4 154.56 92.4C155.435 92.4 156.155 92.6347 156.72 93.104C157.296 93.5627 157.723 94.2293 158 95.104C158.288 95.9787 158.432 97.0347 158.432 98.272ZM152.416 98.272C152.416 99.264 152.485 100.091 152.624 100.752C152.763 101.413 152.987 101.909 153.296 102.24C153.616 102.571 154.037 102.736 154.56 102.736C155.083 102.736 155.499 102.576 155.808 102.256C156.128 101.925 156.357 101.429 156.496 100.768C156.645 100.096 156.72 99.264 156.72 98.272C156.72 97.28 156.645 96.4587 156.496 95.808C156.357 95.1467 156.128 94.6507 155.808 94.32C155.499 93.9893 155.083 93.824 154.56 93.824C154.037 93.824 153.616 93.9893 153.296 94.32C152.987 94.6507 152.763 95.1467 152.624 95.808C152.485 96.4587 152.416 97.28 152.416 98.272ZM167.588 98.272C167.588 99.2 167.514 100.027 167.364 100.752C167.226 101.477 167.002 102.096 166.692 102.608C166.394 103.109 165.994 103.493 165.492 103.76C165.002 104.027 164.41 104.16 163.716 104.16C162.842 104.16 162.122 103.925 161.556 103.456C160.991 102.987 160.57 102.315 160.292 101.44C160.015 100.555 159.876 99.4987 159.876 98.272C159.876 97.0347 159.999 95.9787 160.244 95.104C160.5 94.2293 160.911 93.5627 161.476 93.104C162.042 92.6347 162.788 92.4 163.716 92.4C164.591 92.4 165.311 92.6347 165.876 93.104C166.452 93.5627 166.879 94.2293 167.156 95.104C167.444 95.9787 167.588 97.0347 167.588 98.272ZM161.572 98.272C161.572 99.264 161.642 100.091 161.78 100.752C161.919 101.413 162.143 101.909 162.452 102.24C162.772 102.571 163.194 102.736 163.716 102.736C164.239 102.736 164.655 102.576 164.964 102.256C165.284 101.925 165.514 101.429 165.652 100.768C165.802 100.096 165.876 99.264 165.876 98.272C165.876 97.28 165.802 96.4587 165.652 95.808C165.514 95.1467 165.284 94.6507 164.964 94.32C164.655 93.9893 164.239 93.824 163.716 93.824C163.194 93.824 162.772 93.9893 162.452 94.32C162.143 94.6507 161.919 95.1467 161.78 95.808C161.642 96.4587 161.572 97.28 161.572 98.272ZM177.625 97.024H178.857V103.2C178.857 103.76 178.985 103.856 179.609 103.856C179.897 103.856 181.289 103.856 181.689 103.856C182.345 103.856 182.441 103.44 182.505 100.976C182.777 101.2 183.305 101.408 183.625 101.504C183.497 104.256 183.177 105.008 181.769 105.008C181.449 105.008 179.769 105.008 179.465 105.008C178.009 105.008 177.625 104.592 177.625 103.2V97.024ZM169.257 96.304H183.385V97.472H169.257V96.304ZM170.649 91.808H182.025V92.976H170.649V91.808ZM173.353 97.2H174.617C174.345 100.784 173.641 103.728 169.817 105.248C169.689 104.96 169.337 104.528 169.065 104.304C172.601 102.976 173.113 100.32 173.353 97.2ZM186.825 105.712L186.457 104.88C187.769 104.336 188.489 103.52 188.489 102.32L188.185 100.96L189.049 102.176C188.825 102.464 188.505 102.544 188.201 102.544C187.545 102.544 187.001 102.16 187.001 101.392C187.001 100.64 187.577 100.24 188.217 100.24C189.113 100.24 189.593 100.976 189.593 102.096C189.593 103.824 188.505 105.136 186.825 105.712ZM202.633 94.576H207.337V95.664H202.633V94.576ZM202.057 91.424H203.193V103.376L202.057 103.616V91.424ZM200.937 103.248C202.409 102.88 204.745 102.224 207.001 101.584L207.145 102.72C205.113 103.344 202.921 104 201.337 104.464L200.937 103.248ZM204.985 99.984L205.945 99.504C207.033 100.88 208.169 102.72 208.617 103.92L207.561 104.48C207.145 103.264 206.025 101.376 204.985 99.984ZM202.601 91.424H208.009V98.752H202.601V97.632H206.889V92.544H202.601V91.424ZM213.817 91.44H215.049V101.2C215.049 101.888 214.921 102.304 214.425 102.528C213.961 102.768 213.193 102.784 212.073 102.784C212.041 102.416 211.849 101.824 211.641 101.472C212.505 101.504 213.273 101.488 213.529 101.488C213.753 101.488 213.817 101.408 213.817 101.184V91.44ZM209.225 91.44H214.489V92.64H210.441V105.296H209.225V91.44ZM228.249 92.064H229.497V103.568C229.497 104.432 229.289 104.848 228.665 105.04C228.025 105.248 226.905 105.264 225.321 105.264C225.241 104.912 225.001 104.32 224.809 103.968C226.105 104.032 227.401 104.016 227.785 104C228.137 103.984 228.249 103.872 228.249 103.536V92.064ZM218.841 95.264H220.009V102.512H218.841V95.264ZM219.337 95.264H225.401V101.232H219.337V100.08H224.201V96.4H219.337V95.264ZM217.193 91.696H231.465V92.912H217.193V91.696ZM235.033 96.56H239.017V97.68H235.033V96.56ZM238.537 96.56H239.705C239.705 96.56 239.705 96.912 239.705 97.072C239.625 100.688 239.529 102.032 239.193 102.48C238.937 102.768 238.681 102.88 238.233 102.928C237.817 102.976 237.097 102.96 236.312 102.928C236.281 102.576 236.153 102.112 235.977 101.808C236.697 101.872 237.401 101.872 237.673 101.872C237.897 101.872 238.057 101.856 238.169 101.712C238.409 101.424 238.489 100.224 238.537 96.768V96.56ZM243.049 91.376L243.769 90.624C244.761 91.136 246.025 91.904 246.649 92.464L245.897 93.28C245.289 92.72 244.057 91.904 243.049 91.376ZM245.337 95.712L246.537 96C245.177 100.176 242.793 103.264 239.513 105.2C239.337 104.96 238.889 104.464 238.633 104.224C241.881 102.496 244.137 99.568 245.337 95.712ZM235.129 93.28H247.513V94.464H235.129V93.28ZM234.361 93.28H235.609V97.792C235.609 100.064 235.353 103.296 233.897 105.392C233.689 105.152 233.177 104.736 232.889 104.592C234.217 102.624 234.361 99.872 234.361 97.776V93.28ZM241.001 90.592H242.249C242.217 97.952 243.785 103.952 245.865 103.952C246.313 103.952 246.521 103.12 246.617 100.992C246.889 101.264 247.337 101.536 247.657 101.648C247.433 104.384 246.985 105.168 245.769 105.168C242.505 105.168 241.065 98.256 241.001 90.592ZM251.673 99.088H262.569V100.144H251.673V99.088ZM249.609 93.312H260.073V94.416H249.609V93.312ZM254.121 96.192H261.449V97.264H254.121V96.192ZM262.057 99.088H263.257C263.257 99.088 263.241 99.44 263.209 99.616C262.921 102.992 262.617 104.32 262.105 104.848C261.801 105.152 261.497 105.264 261.017 105.296C260.617 105.328 259.817 105.312 258.985 105.28C258.969 104.944 258.841 104.48 258.649 104.16C259.449 104.256 260.217 104.256 260.521 104.256C260.825 104.256 260.985 104.224 261.129 104.096C261.497 103.728 261.801 102.464 262.057 99.28V99.088ZM258.505 101.008L259.353 100.688C259.865 101.344 260.361 102.24 260.569 102.816L259.689 103.184C259.481 102.608 258.985 101.68 258.505 101.008ZM251.593 91.04L252.633 90.608C253.257 91.248 253.961 92.16 254.281 92.768L253.161 93.28C252.889 92.656 252.217 91.712 251.593 91.04ZM253.769 101.408L254.745 101.28C255.065 102.288 255.241 103.616 255.241 104.48L254.185 104.624C254.217 103.76 254.041 102.448 253.769 101.408ZM256.121 101.264L257.065 101.04C257.481 101.92 257.881 103.056 258.009 103.808L257.017 104.08C256.905 103.312 256.521 102.144 256.121 101.264ZM251.721 101.04L252.729 101.376C252.361 102.704 251.801 104.224 250.825 105.2L249.897 104.544C250.793 103.696 251.401 102.272 251.721 101.04ZM256.441 90.56L257.657 90.864C256.201 95.344 253.689 99.568 249.449 102.08C249.305 101.792 249.001 101.312 248.793 101.056C252.761 98.8 255.225 94.704 256.441 90.56ZM259.801 93.312H260.937C260.713 94.416 260.425 95.744 260.185 96.608L259.129 96.464C259.353 95.616 259.625 94.336 259.801 93.312ZM261.001 96.192H262.137C261.913 97.296 261.641 98.64 261.417 99.504L260.329 99.376C260.569 98.512 260.841 97.216 261.001 96.192ZM35.896 113.72L36.68 113.864C36.504 114.808 36.168 115.768 35.752 116.408C35.592 116.296 35.24 116.088 35.032 116.024C35.48 115.384 35.736 114.552 35.896 113.72ZM36.104 114.712H39.416V115.544H35.784L36.104 114.712ZM37.144 113.56H38.024V116.984H37.144V113.56ZM35.288 116.504H39.464V117.336H35.288V116.504ZM36.2 117.16H37.08C36.968 118.504 36.6 119.48 35.464 120.088C35.368 119.896 35.096 119.576 34.904 119.432C35.816 118.984 36.12 118.216 36.2 117.16ZM40.296 113.72L41.096 113.864C40.92 114.808 40.616 115.768 40.2 116.408C40.04 116.312 39.704 116.088 39.512 116.024C39.928 115.384 40.152 114.552 40.296 113.72ZM40.52 114.712H43.992V115.528H40.216L40.52 114.712ZM41.576 113.56H42.456V116.92H41.576V113.56ZM39.704 116.504H44.296V117.336H39.704V116.504ZM40.584 117.144H41.448C41.336 118.472 40.968 119.368 39.832 119.912C39.72 119.72 39.464 119.4 39.272 119.272C40.216 118.856 40.504 118.168 40.584 117.144ZM37.848 116.872H38.664V118.888L37.848 119.064V116.872ZM37.352 118.712C38.024 118.616 38.792 118.472 39.72 118.328L39.768 119.08C39 119.256 38.312 119.416 37.608 119.56L37.352 118.712ZM37.336 122.488V123.384H42.216V122.488H37.336ZM37.336 124.136V125.048H42.216V124.136H37.336ZM37.336 120.856V121.736H42.216V120.856H37.336ZM36.216 120.072H43.384V125.816H36.216V120.072ZM40.456 126.568L41.176 125.88C42.344 126.392 43.656 127.064 44.424 127.592L43.496 128.312C42.792 127.784 41.576 127.08 40.456 126.568ZM42.072 116.936H42.936V118.648C42.936 118.872 42.936 118.984 42.968 119.016C43.016 119.064 43.08 119.08 43.144 119.08C43.224 119.08 43.368 119.08 43.464 119.08C43.56 119.08 43.656 119.064 43.688 119.048C43.736 119.016 43.768 118.952 43.816 118.84C43.848 118.712 43.864 118.456 43.88 118.088C44.04 118.232 44.28 118.344 44.488 118.408C44.472 118.792 44.424 119.224 44.344 119.368C44.28 119.528 44.152 119.64 44.008 119.704C43.896 119.768 43.688 119.784 43.512 119.784C43.384 119.784 43.064 119.784 42.952 119.784C42.712 119.784 42.44 119.736 42.296 119.576C42.12 119.4 42.072 119.208 42.072 118.568V116.936ZM37.832 125.848L38.84 126.472C37.992 127.24 36.52 127.944 35.224 128.296C35.064 128.072 34.744 127.704 34.52 127.464C35.8 127.128 37.208 126.472 37.832 125.848ZM29.64 126.712C31.064 126.456 33.208 126.04 35.32 125.624L35.416 126.664C33.48 127.064 31.432 127.496 29.912 127.8L29.64 126.712ZM30.52 117.544H34.776V118.568H30.52V117.544ZM29.816 120.248H35.096V121.288H29.816V120.248ZM30.088 122.36L30.888 122.168C31.192 123.128 31.416 124.392 31.464 125.208L30.6 125.416C30.584 124.584 30.36 123.32 30.088 122.36ZM34.2 122.008L35.112 122.232C34.872 123.208 34.6 124.36 34.36 125.112L33.576 124.904C33.8 124.12 34.088 122.84 34.2 122.008ZM32.088 117.992H33.096V126.504L32.088 126.648V117.992ZM32.136 113.576H32.776V113.832H33.112V114.136C32.52 115.368 31.544 117.08 30.024 118.488C29.848 118.248 29.512 117.88 29.272 117.72C30.648 116.504 31.624 114.856 32.136 113.576ZM32.264 113.576H33.144C33.944 114.344 34.904 115.432 35.352 116.168L34.52 117.048C34.104 116.328 33.224 115.112 32.472 114.392H32.264V113.576ZM46.04 114.776H59.976V115.96H46.04V114.776ZM49.432 126.008H58.52V127.176H49.432V126.008ZM48.904 120.152H59V128.264H57.736V121.32H50.104V128.296H48.904V120.152ZM50.84 115.352L52.12 115.672C50.968 119 49.064 122.472 46.232 124.632C46.04 124.36 45.64 123.928 45.384 123.704C48.072 121.72 49.928 118.392 50.84 115.352ZM64.632 119.032V121.448H73.416V119.032H64.632ZM63.608 118.216H74.504V122.264H63.608V118.216ZM66.232 116.488H71.816V117.336H66.232V116.488ZM68.424 118.472H69.448V121.816H68.424V118.472ZM68.92 114.536C67.496 115.992 64.824 117.624 62.168 118.616C62.024 118.344 61.752 117.928 61.528 117.672C64.248 116.744 66.952 115.112 68.28 113.56H69.416C71.224 115.304 74.008 116.776 76.488 117.512C76.232 117.768 75.96 118.2 75.784 118.504C73.432 117.688 70.552 116.104 68.92 114.536ZM65.608 119.512L66.472 119.224C66.888 119.784 67.272 120.536 67.432 121.048L66.504 121.384C66.376 120.872 66.008 120.088 65.608 119.512ZM71.368 119.16L72.392 119.48C72.024 120.168 71.624 120.904 71.304 121.384L70.456 121.096C70.76 120.552 71.176 119.704 71.368 119.16ZM64.552 123.032H73.592V128.264H72.376V123.88H65.736V128.28H64.552V123.032ZM65.256 124.952H72.904V125.832H65.256V124.952ZM65.256 126.92H72.904V127.784H65.256V126.92ZM81.224 115.16V116.808H88.824V115.16H81.224ZM80.024 114.184H90.088V117.8H80.024V114.184ZM80.536 121.592V122.728H89.496V121.592H80.536ZM80.536 123.576V124.728H89.496V123.576H80.536ZM80.536 119.624V120.744H89.496V119.624H80.536ZM79.336 118.728H90.728V125.608H79.336V118.728ZM82.392 125.592L83.512 126.328C82.232 127.112 80.152 127.88 78.504 128.296C78.296 128.04 77.896 127.656 77.608 127.416C79.288 127.016 81.384 126.248 82.392 125.592ZM86.296 126.424L87.336 125.64C89 126.136 91.144 126.92 92.392 127.448L91.352 128.312C90.168 127.752 87.992 126.92 86.296 126.424ZM95.512 128.712L95.144 127.88C96.456 127.336 97.176 126.52 97.176 125.32L96.872 123.96L97.736 125.176C97.512 125.464 97.192 125.544 96.888 125.544C96.232 125.544 95.688 125.16 95.688 124.392C95.688 123.64 96.264 123.24 96.904 123.24C97.8 123.24 98.28 123.976 98.28 125.096C98.28 126.824 97.192 128.136 95.512 128.712ZM112.632 114.536H117.16V115.752H112.632V114.536ZM116.552 114.536H117.784C117.784 117.4 118.136 123.48 124.456 127.224C124.184 127.432 123.704 127.944 123.48 128.232C117.08 124.36 116.552 117.544 116.552 114.536ZM116.104 117.672L117.464 117.928C116.312 122.808 114.2 126.184 110.664 128.264C110.44 128.008 109.896 127.512 109.576 127.288C113.128 125.432 115.128 122.2 116.104 117.672ZM128.632 119.032V121.448H137.416V119.032H128.632ZM127.608 118.216H138.504V122.264H127.608V118.216ZM130.232 116.488H135.816V117.336H130.232V116.488ZM132.424 118.472H133.448V121.816H132.424V118.472ZM132.92 114.536C131.496 115.992 128.824 117.624 126.168 118.616C126.024 118.344 125.752 117.928 125.528 117.672C128.248 116.744 130.952 115.112 132.28 113.56H133.416C135.224 115.304 138.008 116.776 140.488 117.512C140.232 117.768 139.96 118.2 139.784 118.504C137.432 117.688 134.552 116.104 132.92 114.536ZM129.608 119.512L130.472 119.224C130.888 119.784 131.272 120.536 131.432 121.048L130.504 121.384C130.376 120.872 130.008 120.088 129.608 119.512ZM135.368 119.16L136.392 119.48C136.024 120.168 135.624 120.904 135.304 121.384L134.456 121.096C134.76 120.552 135.176 119.704 135.368 119.16ZM128.552 123.032H137.592V128.264H136.376V123.88H129.736V128.28H128.552V123.032ZM129.256 124.952H136.904V125.832H129.256V124.952ZM129.256 126.92H136.904V127.784H129.256V126.92ZM149.208 125.128L150.152 124.872C150.504 125.48 150.776 126.28 150.856 126.792L149.864 127.096C149.784 126.552 149.512 125.72 149.208 125.128ZM153.48 124.84L154.536 125.144C154.216 125.848 153.864 126.584 153.592 127.096L152.68 126.824C152.952 126.28 153.304 125.416 153.48 124.84ZM149.4 122.696V123.976H154.264V122.696H149.4ZM148.376 121.896H155.32V124.776H148.376V121.896ZM148.856 117.416V118.552H154.76V117.416H148.856ZM148.856 115.512V116.632H154.76V115.512H148.856ZM147.848 114.68H155.816V119.384H147.848V114.68ZM147.464 120.136H156.184V121.096H147.464V120.136ZM147.176 127H156.376V127.928H147.176V127ZM150.104 113.56H151.064V115.256H150.104V113.56ZM152.472 113.56H153.432V115.256H152.472V113.56ZM150.248 115.096H151.048V119.144H150.248V115.096ZM152.472 115.096H153.272V119.144H152.472V115.096ZM141.784 117.832H147.096V118.904H141.784V117.832ZM142.184 114.616H146.728V115.688H142.184V114.616ZM146.104 120.04H146.952V125.96H146.104V120.04ZM144.008 118.296H145.032V128.28H144.008V118.296ZM142.088 120.056H142.936V121.976C142.936 123.624 142.84 125.48 142.28 126.984C142.12 126.792 141.768 126.536 141.544 126.424C142.008 125.096 142.088 123.4 142.088 121.944V120.056ZM158.52 114.888H168.76V116.12H158.52V114.888ZM168.6 114.888H168.824L169.112 114.808L169.96 115.416C169.896 115.48 169.832 115.544 169.72 115.592C160.264 123.272 159.72 124.456 159.72 125.304C159.72 126.072 160.536 126.408 161.752 126.408H169.224C170.376 126.408 170.664 125.832 170.776 123.096C171.112 123.288 171.64 123.464 172.008 123.544C171.8 126.888 171.128 127.64 169.112 127.64H161.912C159.56 127.64 158.424 126.808 158.424 125.4C158.424 124.136 158.888 122.84 168.6 114.888ZM179.128 119.96H185.864V121.064H179.128V119.96ZM181.064 114.008H185V115.096H181.064V114.008ZM184.104 114.008H185.432C185.896 116.424 187.064 118.616 188.6 119.72C188.328 119.928 187.912 120.408 187.704 120.696C186.104 119.4 184.904 117.128 184.392 114.632H184.104V114.008ZM185.368 119.96H186.584C186.584 119.96 186.584 120.344 186.568 120.52C186.424 125.352 186.296 127.032 185.88 127.576C185.608 127.944 185.32 128.072 184.856 128.12C184.456 128.152 183.752 128.152 183.032 128.12C183 127.752 182.872 127.24 182.696 126.92C183.384 126.984 184.04 126.984 184.296 126.984C184.552 126.984 184.68 126.952 184.808 126.792C185.112 126.424 185.256 124.792 185.368 120.2V119.96ZM181.384 120.456H182.568C182.344 123.64 181.576 126.584 178.632 128.28C178.488 128.024 178.152 127.592 177.896 127.384C180.648 125.912 181.208 123.208 181.384 120.456ZM180.072 115.336L181.24 115.64C180.568 117.48 179.4 119.608 177.976 120.968C177.816 120.728 177.432 120.36 177.192 120.168C178.488 118.952 179.576 116.968 180.072 115.336ZM177.224 113.624L178.36 113.976C177.304 116.696 175.656 119.4 173.928 121.192C173.8 120.92 173.464 120.28 173.24 120.008C174.824 118.456 176.328 116.056 177.224 113.624ZM175.56 117.752L176.68 116.616L176.712 116.632V128.264H175.56V117.752ZM191.512 128.712L191.144 127.88C192.456 127.336 193.176 126.52 193.176 125.32L192.872 123.96L193.736 125.176C193.512 125.464 193.192 125.544 192.888 125.544C192.232 125.544 191.688 125.16 191.688 124.392C191.688 123.64 192.264 123.24 192.904 123.24C193.8 123.24 194.28 123.976 194.28 125.096C194.28 126.824 193.192 128.136 191.512 128.712ZM209.144 117.88H217.496V118.968H209.144V117.88ZM207.992 125.128H219.784V126.2H207.992V125.128ZM208.6 115.432H219.736V116.52H208.6V115.432ZM217.016 117.88H218.2C218.2 117.88 218.184 118.312 218.184 118.472C217.992 124.92 217.768 127.016 217.256 127.688C216.952 128.088 216.6 128.216 216.12 128.264C215.64 128.296 214.84 128.296 214.04 128.248C214.024 127.976 213.912 127.56 213.752 127.288C214.568 127.352 215.304 127.368 215.608 127.352C215.912 127.352 216.056 127.32 216.2 127.128C216.616 126.616 216.84 124.376 217.016 118.136V117.88ZM208.552 117.88H209.768C209.416 120.744 208.872 124.6 208.472 126.808L207.256 126.728C207.704 124.504 208.28 120.648 208.552 117.88ZM209.32 113.48L210.568 113.832C209.608 116.024 208.152 118.184 206.76 119.592C206.504 119.4 205.96 119.032 205.64 118.856C207.112 117.56 208.488 115.512 209.32 113.48ZM211.24 119.688L211.928 119C212.968 119.464 214.216 120.184 214.856 120.776L214.136 121.528C213.528 120.936 212.296 120.152 211.24 119.688ZM210.84 123.192L211.512 122.52C212.6 123.032 213.928 123.88 214.584 124.504L213.88 125.272C213.24 124.632 211.928 123.752 210.84 123.192ZM205.672 121.464H208.664V121.496H217.496V121.464H220.344V122.552H217.496V122.52H208.664V122.552H205.672V121.464ZM225.048 114.408H233.4V115.576H225.048V114.408ZM225.048 118.264H233.464V119.416H225.048V118.264ZM224.92 122.136H233.384V123.288H224.92V122.136ZM224.312 114.408H225.528V119.352C225.528 122.12 225.128 125.896 222.376 128.296C222.2 128.04 221.72 127.608 221.464 127.432C224.04 125.176 224.312 121.928 224.312 119.352V114.408ZM232.872 114.408H234.12V126.52C234.12 127.368 233.896 127.784 233.288 127.992C232.664 128.2 231.608 128.216 229.88 128.216C229.8 127.864 229.576 127.288 229.368 126.952C230.696 127 232.008 126.984 232.376 126.984C232.744 126.968 232.872 126.856 232.872 126.504V114.408ZM237.864 124.152H252.152V125.208H237.864V124.152ZM244.328 113.56H245.576V115.592H244.328V113.56ZM239.368 121.24H249.464V122.216H239.368V121.24ZM244.344 123.208H245.592V127.064C245.592 127.736 245.4 128.024 244.84 128.184C244.28 128.328 243.352 128.328 241.912 128.328C241.848 128.024 241.656 127.624 241.496 127.336C242.584 127.368 243.688 127.352 243.96 127.352C244.248 127.336 244.344 127.272 244.344 127.032V123.208ZM249.192 121.24H249.512L249.784 121.192L250.584 121.848C249.144 122.744 247.064 123.544 245.176 124.008C245.032 123.8 244.744 123.48 244.568 123.32C246.232 122.904 248.184 122.152 249.192 121.48V121.24ZM241.224 117.928V119.368H248.792V117.928H241.224ZM240.04 117.032H250.04V120.264H240.04V117.032ZM238.008 114.968H251.944V116.008H238.008V114.968ZM254.008 115.64H268.024V116.776H254.008V115.64ZM257.912 121.352H265.432V122.392H257.912V121.352ZM257.064 118.632H265.24V119.704H258.248V128.28H257.064V118.632ZM264.968 118.632H266.136V126.792C266.136 127.496 265.992 127.864 265.448 128.056C264.936 128.248 264.04 128.248 262.664 128.248C262.616 127.912 262.44 127.416 262.264 127.08C263.336 127.128 264.312 127.112 264.6 127.112C264.872 127.096 264.968 127.016 264.968 126.776V118.632ZM259.24 113.56L260.456 113.848C259.368 117.368 257.448 120.92 254.392 123.064C254.232 122.792 253.864 122.376 253.624 122.136C256.488 120.168 258.376 116.776 259.24 113.56ZM257.912 124.056H265.432V125.096H257.912V124.056ZM35.896 136.72L36.68 136.864C36.504 137.808 36.168 138.768 35.752 139.408C35.592 139.296 35.24 139.088 35.032 139.024C35.48 138.384 35.736 137.552 35.896 136.72ZM36.104 137.712H39.416V138.544H35.784L36.104 137.712ZM37.144 136.56H38.024V139.984H37.144V136.56ZM35.288 139.504H39.464V140.336H35.288V139.504ZM36.2 140.16H37.08C36.968 141.504 36.6 142.48 35.464 143.088C35.368 142.896 35.096 142.576 34.904 142.432C35.816 141.984 36.12 141.216 36.2 140.16ZM40.296 136.72L41.096 136.864C40.92 137.808 40.616 138.768 40.2 139.408C40.04 139.312 39.704 139.088 39.512 139.024C39.928 138.384 40.152 137.552 40.296 136.72ZM40.52 137.712H43.992V138.528H40.216L40.52 137.712ZM41.576 136.56H42.456V139.92H41.576V136.56ZM39.704 139.504H44.296V140.336H39.704V139.504ZM40.584 140.144H41.448C41.336 141.472 40.968 142.368 39.832 142.912C39.72 142.72 39.464 142.4 39.272 142.272C40.216 141.856 40.504 141.168 40.584 140.144ZM37.848 139.872H38.664V141.888L37.848 142.064V139.872ZM37.352 141.712C38.024 141.616 38.792 141.472 39.72 141.328L39.768 142.08C39 142.256 38.312 142.416 37.608 142.56L37.352 141.712ZM37.336 145.488V146.384H42.216V145.488H37.336ZM37.336 147.136V148.048H42.216V147.136H37.336ZM37.336 143.856V144.736H42.216V143.856H37.336ZM36.216 143.072H43.384V148.816H36.216V143.072ZM40.456 149.568L41.176 148.88C42.344 149.392 43.656 150.064 44.424 150.592L43.496 151.312C42.792 150.784 41.576 150.08 40.456 149.568ZM42.072 139.936H42.936V141.648C42.936 141.872 42.936 141.984 42.968 142.016C43.016 142.064 43.08 142.08 43.144 142.08C43.224 142.08 43.368 142.08 43.464 142.08C43.56 142.08 43.656 142.064 43.688 142.048C43.736 142.016 43.768 141.952 43.816 141.84C43.848 141.712 43.864 141.456 43.88 141.088C44.04 141.232 44.28 141.344 44.488 141.408C44.472 141.792 44.424 142.224 44.344 142.368C44.28 142.528 44.152 142.64 44.008 142.704C43.896 142.768 43.688 142.784 43.512 142.784C43.384 142.784 43.064 142.784 42.952 142.784C42.712 142.784 42.44 142.736 42.296 142.576C42.12 142.4 42.072 142.208 42.072 141.568V139.936ZM37.832 148.848L38.84 149.472C37.992 150.24 36.52 150.944 35.224 151.296C35.064 151.072 34.744 150.704 34.52 150.464C35.8 150.128 37.208 149.472 37.832 148.848ZM29.64 149.712C31.064 149.456 33.208 149.04 35.32 148.624L35.416 149.664C33.48 150.064 31.432 150.496 29.912 150.8L29.64 149.712ZM30.52 140.544H34.776V141.568H30.52V140.544ZM29.816 143.248H35.096V144.288H29.816V143.248ZM30.088 145.36L30.888 145.168C31.192 146.128 31.416 147.392 31.464 148.208L30.6 148.416C30.584 147.584 30.36 146.32 30.088 145.36ZM34.2 145.008L35.112 145.232C34.872 146.208 34.6 147.36 34.36 148.112L33.576 147.904C33.8 147.12 34.088 145.84 34.2 145.008ZM32.088 140.992H33.096V149.504L32.088 149.648V140.992ZM32.136 136.576H32.776V136.832H33.112V137.136C32.52 138.368 31.544 140.08 30.024 141.488C29.848 141.248 29.512 140.88 29.272 140.72C30.648 139.504 31.624 137.856 32.136 136.576ZM32.264 136.576H33.144C33.944 137.344 34.904 138.432 35.352 139.168L34.52 140.048C34.104 139.328 33.224 138.112 32.472 137.392H32.264V136.576ZM46.04 137.776H59.976V138.96H46.04V137.776ZM49.432 149.008H58.52V150.176H49.432V149.008ZM48.904 143.152H59V151.264H57.736V144.32H50.104V151.296H48.904V143.152ZM50.84 138.352L52.12 138.672C50.968 142 49.064 145.472 46.232 147.632C46.04 147.36 45.64 146.928 45.384 146.704C48.072 144.72 49.928 141.392 50.84 138.352ZM64.632 142.032V144.448H73.416V142.032H64.632ZM63.608 141.216H74.504V145.264H63.608V141.216ZM66.232 139.488H71.816V140.336H66.232V139.488ZM68.424 141.472H69.448V144.816H68.424V141.472ZM68.92 137.536C67.496 138.992 64.824 140.624 62.168 141.616C62.024 141.344 61.752 140.928 61.528 140.672C64.248 139.744 66.952 138.112 68.28 136.56H69.416C71.224 138.304 74.008 139.776 76.488 140.512C76.232 140.768 75.96 141.2 75.784 141.504C73.432 140.688 70.552 139.104 68.92 137.536ZM65.608 142.512L66.472 142.224C66.888 142.784 67.272 143.536 67.432 144.048L66.504 144.384C66.376 143.872 66.008 143.088 65.608 142.512ZM71.368 142.16L72.392 142.48C72.024 143.168 71.624 143.904 71.304 144.384L70.456 144.096C70.76 143.552 71.176 142.704 71.368 142.16ZM64.552 146.032H73.592V151.264H72.376V146.88H65.736V151.28H64.552V146.032ZM65.256 147.952H72.904V148.832H65.256V147.952ZM65.256 149.92H72.904V150.784H65.256V149.92ZM81.224 138.16V139.808H88.824V138.16H81.224ZM80.024 137.184H90.088V140.8H80.024V137.184ZM80.536 144.592V145.728H89.496V144.592H80.536ZM80.536 146.576V147.728H89.496V146.576H80.536ZM80.536 142.624V143.744H89.496V142.624H80.536ZM79.336 141.728H90.728V148.608H79.336V141.728ZM82.392 148.592L83.512 149.328C82.232 150.112 80.152 150.88 78.504 151.296C78.296 151.04 77.896 150.656 77.608 150.416C79.288 150.016 81.384 149.248 82.392 148.592ZM86.296 149.424L87.336 148.64C89 149.136 91.144 149.92 92.392 150.448L91.352 151.312C90.168 150.752 87.992 149.92 86.296 149.424ZM100.792 140.304H106.76V141.312H100.792V140.304ZM98.296 149.888C99.768 149.632 102.088 149.168 104.328 148.72L104.408 149.776C102.392 150.24 100.248 150.704 98.696 151.056L98.296 149.888ZM100.104 137.28H101.272V149.984H100.104V137.28ZM100.792 137.28H107.32V144.384H100.792V143.328H106.152V138.336H100.792V137.28ZM103.88 143.696C104.568 146.688 106.024 149.184 108.408 150.24C108.136 150.48 107.784 150.928 107.608 151.232C105.112 149.968 103.624 147.264 102.888 143.888L103.88 143.696ZM107.064 144.752L108.008 145.44C107.112 146.272 105.976 147.168 105.08 147.76L104.328 147.152C105.192 146.528 106.392 145.52 107.064 144.752ZM94.296 137.264H98.392V138.352H95.432V151.296H94.296V137.264ZM98.04 137.264H98.264L98.44 137.216L99.256 137.712C98.744 139.04 98.072 140.688 97.48 141.952C98.776 143.28 99.08 144.416 99.08 145.408C99.08 146.288 98.872 146.944 98.392 147.28C98.152 147.44 97.848 147.536 97.512 147.568C97.144 147.616 96.696 147.616 96.296 147.584C96.28 147.296 96.184 146.816 95.992 146.496C96.408 146.544 96.76 146.544 97.048 146.528C97.256 146.512 97.448 146.464 97.608 146.368C97.88 146.192 97.976 145.776 97.96 145.28C97.96 144.4 97.624 143.344 96.376 142.096C97.016 140.64 97.672 138.704 98.04 137.6V137.264ZM112.376 141.456H121.704V142.608H112.376V141.456ZM116.984 145.28H122.376V146.416H116.984V145.28ZM116.344 142.048H117.592V150.144L116.344 149.984V142.048ZM112.552 143.984L113.8 144.112C113.352 147.344 112.344 149.792 110.536 151.36C110.344 151.152 109.832 150.736 109.544 150.56C111.336 149.168 112.2 146.88 112.552 143.984ZM113.304 146.048C114.44 149.312 116.936 149.872 120.184 149.872C120.776 149.872 123.544 149.872 124.328 149.856C124.136 150.144 123.928 150.72 123.88 151.072H120.12C116.312 151.072 113.704 150.32 112.328 146.416L113.304 146.048ZM116.328 136.576H117.592V139.168H116.328V136.576ZM110.312 138.4H123.688V141.888H122.456V139.552H111.496V141.888H110.312V138.4ZM130.12 137.28H140.072V138.208H130.12V137.28ZM131.896 140.416H138.264V141.04H131.896V140.416ZM131.896 141.744H138.264V142.368H131.896V141.744ZM131.256 139.04H138.84V143.472H137.72V139.744H132.36V143.472H131.256V139.04ZM129.672 143.072H140.344V145.232H139.256V143.84H130.728V145.232H129.672V143.072ZM131.736 144.32L132.536 144.768C132.12 145.392 131.512 146.128 130.792 146.576L130.04 145.952C130.728 145.584 131.352 144.912 131.736 144.32ZM132.696 144.288H133.688V145.296C133.688 145.584 133.784 145.648 134.328 145.648C134.584 145.648 135.96 145.648 136.312 145.648C136.68 145.648 136.76 145.552 136.824 144.928C137.016 145.04 137.384 145.152 137.64 145.2C137.544 146.128 137.272 146.368 136.456 146.368C136.184 146.368 134.488 146.368 134.232 146.368C133.016 146.368 132.696 146.176 132.696 145.296V144.288ZM133.848 143.936L134.552 143.456C135.16 143.792 135.88 144.288 136.232 144.704L135.512 145.216C135.16 144.816 134.472 144.272 133.848 143.936ZM137.368 144.704L138.136 144.272C138.824 144.8 139.624 145.568 139.992 146.128L139.192 146.592C138.84 146.048 138.056 145.264 137.368 144.704ZM133.528 146.032L134.648 146.272C133.608 147.408 132.136 148.4 130.152 149.216C129.992 148.976 129.672 148.624 129.448 148.464C131.32 147.808 132.744 146.896 133.528 146.032ZM137.656 147.056H137.896L138.12 147.008L138.872 147.424C137.512 149.44 134.424 150.72 129.944 151.312C129.832 151.056 129.576 150.672 129.352 150.416C133.624 149.952 136.6 148.768 137.656 147.248V147.056ZM132.632 147.504C134.04 149.136 137.128 150.064 140.536 150.352C140.296 150.592 140.008 151.04 139.864 151.344C136.36 150.944 133.256 149.84 131.64 147.872L132.632 147.504ZM132.904 147.056H137.992V147.824H132.136L132.904 147.056ZM134.344 137.712L135.656 137.856C135.416 138.464 135.192 139.072 135 139.504L133.96 139.344C134.104 138.832 134.28 138.176 134.344 137.712ZM128.712 136.656L129.832 136.96C128.92 139.728 127.496 142.544 125.912 144.416C125.8 144.128 125.48 143.488 125.272 143.184C126.68 141.584 127.944 139.12 128.712 136.656ZM127.432 140.576L128.536 139.472L128.568 139.504V151.28H127.432V140.576ZM142.216 137.552H155.768V138.544H142.216V137.552ZM148.296 136.592H149.512V145.728H148.296V136.592ZM144.44 142.192V143.264H153.464V142.192H144.44ZM144.44 140.384V141.44H153.464V140.384H144.44ZM143.304 139.584H154.648V144.08H143.304V139.584ZM151.256 144.624L152.056 144.032C153.448 144.592 155.096 145.616 155.912 146.4L155.096 147.104C154.28 146.288 152.664 145.216 151.256 144.624ZM142.2 145.344C145.096 145.36 149.768 145.328 154.184 145.264L154.12 146.208C149.8 146.304 145.208 146.384 142.248 146.4L142.2 145.344ZM145.208 147.296H146.392V149.568C146.392 149.984 146.568 150.048 147.576 150.048C148.04 150.048 150.424 150.048 151.064 150.048C151.864 150.048 152.008 149.856 152.072 148.448C152.344 148.608 152.808 148.784 153.128 148.848C152.968 150.656 152.6 151.072 151.16 151.072C150.744 151.072 147.896 151.072 147.512 151.072C145.688 151.072 145.208 150.768 145.208 149.568V147.296ZM147.496 147.12L148.264 146.464C149.224 146.928 150.392 147.68 150.968 148.224L150.168 148.96C149.608 148.4 148.456 147.616 147.496 147.12ZM153.048 147.616L154.072 147.248C154.856 148.176 155.672 149.44 155.992 150.272L154.904 150.672C154.584 149.856 153.816 148.576 153.048 147.616ZM143.336 147.232L144.36 147.664C144.008 148.672 143.496 149.968 142.856 150.8L141.816 150.224C142.472 149.456 143.016 148.208 143.336 147.232ZM157.848 142.464H172.12V143.568H157.848V142.464ZM158.872 139.568H171.176V140.64H158.872V139.568ZM160.616 145.312H168.328V146.416H160.616V145.312ZM166.84 139.984C167.848 142.704 169.912 145.072 172.44 146.128C172.168 146.352 171.8 146.816 171.64 147.12C168.984 145.856 166.92 143.344 165.784 140.288L166.84 139.984ZM159.88 137.248L160.904 136.864C161.496 137.6 162.12 138.624 162.376 139.296L161.288 139.728C161.064 139.056 160.456 138.016 159.88 137.248ZM168.728 136.816L169.896 137.216C169.384 138.112 168.744 139.088 168.216 139.744L167.192 139.36C167.704 138.672 168.36 137.584 168.728 136.816ZM167.992 145.312H169.208C169.208 145.312 169.192 145.664 169.176 145.84C168.952 149.056 168.728 150.336 168.28 150.8C167.992 151.12 167.688 151.216 167.208 151.264C166.776 151.296 165.928 151.28 165.048 151.232C165.032 150.896 164.888 150.416 164.696 150.112C165.544 150.192 166.376 150.192 166.68 150.192C166.968 150.192 167.128 150.176 167.272 150.032C167.592 149.728 167.8 148.544 167.992 145.488V145.312ZM163.512 145.648H164.76C164.376 148.4 163.4 150.336 159.672 151.328C159.56 151.024 159.224 150.544 158.984 150.304C162.408 149.52 163.192 147.888 163.512 145.648ZM164.184 136.544L165.448 136.768C164.424 141.152 162.488 145.056 158.296 147.184C158.12 146.912 157.784 146.464 157.528 146.224C161.528 144.272 163.384 140.592 164.184 136.544ZM176.104 146.112C177.448 146.112 178.536 147.2 178.536 148.544C178.536 149.888 177.448 150.976 176.104 150.976C174.76 150.976 173.656 149.888 173.656 148.544C173.656 147.2 174.76 146.112 176.104 146.112ZM176.104 150.16C177 150.16 177.72 149.44 177.72 148.544C177.72 147.648 177 146.928 176.104 146.928C175.208 146.928 174.472 147.648 174.472 148.544C174.472 149.44 175.208 150.16 176.104 150.16Z" fill="white"/>
</g>
</g>
<defs>
<filter id="filter0_b_5234_4859" x="-5" y="-5" width="360" height="215.333" filterUnits="userSpaceOnUse" color-interpolation-filters="sRGB">
<feFlood flood-opacity="0" result="BackgroundImageFix"/>
<feGaussianBlur in="BackgroundImageFix" stdDeviation="2.5"/>
<feComposite in2="SourceAlpha" operator="in" result="effect1_backgroundBlur_5234_4859"/>
<feBlend mode="normal" in="SourceGraphic" in2="effect1_backgroundBlur_5234_4859" result="shape"/>
</filter>
<filter id="filter1_d_5234_4859" x="-41.047" y="-54.7294" width="459.459" height="314.792" filterUnits="userSpaceOnUse" color-interpolation-filters="sRGB">
<feFlood flood-opacity="0" result="BackgroundImageFix"/>
<feColorMatrix in="SourceAlpha" type="matrix" values="0 0 0 0 0 0 0 0 0 0 0 0 0 0 0 0 0 0 127 0" result="hardAlpha"/>
<feOffset dx="13.6823"/>
<feGaussianBlur stdDeviation="27.3647"/>
<feComposite in2="hardAlpha" operator="out"/>
<feColorMatrix type="matrix" values="0 0 0 0 0 0 0 0 0 0 0 0 0 0 0 0 0 0 0.1 0"/>
<feBlend mode="normal" in2="BackgroundImageFix" result="effect1_dropShadow_5234_4859"/>
<feBlend mode="normal" in="SourceGraphic" in2="effect1_dropShadow_5234_4859" result="shape"/>
</filter>
<linearGradient id="paint0_linear_5234_4859" x1="429.318" y1="64.0666" x2="242.314" y2="384.92" gradientUnits="userSpaceOnUse">
<stop stop-color="#DCEAFF"/>
<stop offset="0.16" stop-color="white" stop-opacity="0.925"/>
<stop offset="0.445" stop-color="#A4DAFB"/>
<stop offset="0.965" stop-color="#81BEEF"/>
</linearGradient>
<clipPath id="clip0_5234_4859">
<rect width="350" height="205.333" rx="15" fill="white"/>
</clipPath>
</defs>
</svg>
