<svg width="350" height="206" viewBox="0 0 350 206" fill="none" xmlns="http://www.w3.org/2000/svg">
<g filter="url(#filter0_b_4052_9348)">
<g clip-path="url(#clip0_4052_9348)">
<g filter="url(#filter1_d_4052_9348)">
<rect width="350" height="205.333" rx="15" fill="url(#paint0_linear_4052_9348)"/>
</g>
<path d="M-18.6667 -21H369.833V225.167H-18.6667V-21Z" fill="black" fill-opacity="0.2"/>
<path d="M45.4906 56.824H65.7786V59.224H45.4906V56.824ZM45.3306 46.968H65.8106V49.336H45.3306V46.968ZM44.2426 37.272H67.0906V61.432H64.5946V39.672H46.6426V61.56H44.2426V37.272ZM53.9066 32.024L56.8826 32.568C55.9866 34.744 54.9306 37.144 54.0346 38.744L51.6986 38.2C52.4986 36.472 53.4586 33.88 53.9066 32.024ZM87.5386 34.456C84.8826 38.264 79.7306 42.68 74.3226 45.56C74.0346 44.984 73.3626 44.152 72.8506 43.64C78.3866 40.856 83.6986 36.12 86.1626 32.088H88.6266C92.0186 36.728 97.5546 41.016 102.579 43.256C102.003 43.832 101.427 44.664 101.011 45.368C96.0506 42.808 90.4826 38.424 87.5386 34.456ZM79.6026 41.88H95.6666V44.056H79.6026V41.88ZM75.4746 48.312H99.8266V50.456H75.4746V48.312ZM74.0026 58.424H101.363V60.536H74.0026V58.424ZM86.2586 42.712H88.7866V59.544H86.2586V42.712ZM78.1306 52.088L80.0826 51.288C81.3946 53.048 82.7066 55.48 83.1546 57.08L81.0746 57.976C80.6586 56.376 79.4106 53.88 78.1306 52.088ZM94.8666 51.224L97.1386 52.152C95.9226 54.168 94.4186 56.472 93.2346 57.976L91.4106 57.176C92.5626 55.608 94.0666 53.048 94.8666 51.224ZM110.931 43.064V47.896H128.499V43.064H110.931ZM108.883 41.432H130.675V49.528H108.883V41.432ZM114.131 37.976H125.299V39.672H114.131V37.976ZM118.515 41.944H120.563V48.632H118.515V41.944ZM119.507 34.072C116.659 36.984 111.315 40.248 106.003 42.232C105.715 41.688 105.171 40.856 104.723 40.344C110.163 38.488 115.571 35.224 118.227 32.12H120.499C124.115 35.608 129.683 38.552 134.643 40.024C134.131 40.536 133.587 41.4 133.235 42.008C128.531 40.376 122.771 37.208 119.507 34.072ZM112.883 44.024L114.611 43.448C115.443 44.568 116.211 46.072 116.531 47.096L114.675 47.768C114.419 46.744 113.683 45.176 112.883 44.024ZM124.403 43.32L126.451 43.96C125.715 45.336 124.915 46.808 124.275 47.768L122.579 47.192C123.187 46.104 124.019 44.408 124.403 43.32ZM110.771 51.064H128.851V61.528H126.419V52.76H113.139V61.56H110.771V51.064ZM112.179 54.904H127.475V56.664H112.179V54.904ZM112.179 58.84H127.475V60.568H112.179V58.84ZM144.115 35.32V38.616H159.315V35.32H144.115ZM141.715 33.368H161.843V40.6H141.715V33.368ZM142.739 48.184V50.456H160.659V48.184H142.739ZM142.739 52.152V54.456H160.659V52.152H142.739ZM142.739 44.248V46.488H160.659V44.248H142.739ZM140.339 42.456H163.123V56.216H140.339V42.456ZM146.451 56.184L148.691 57.656C146.131 59.224 141.971 60.76 138.675 61.592C138.259 61.08 137.459 60.312 136.883 59.832C140.243 59.032 144.435 57.496 146.451 56.184ZM154.259 57.848L156.339 56.28C159.667 57.272 163.955 58.84 166.451 59.896L164.371 61.624C162.003 60.504 157.651 58.84 154.259 57.848Z" fill="white"/>
<path d="M37.6614 90.68H38.8934V100.28H37.6614V90.68ZM34.0294 93.384V94.776H42.7334V93.384H34.0294ZM34.0294 91.096V92.456H42.7334V91.096H34.0294ZM32.8614 90.12H43.9494V95.736H32.8614V90.12ZM31.2454 96.968H45.4374V98.024H31.2454V96.968ZM33.5174 87V88.52H36.5894V87H33.5174ZM32.4294 86.2H37.7094V89.32H32.4294V86.2ZM40.0934 87V88.52H43.1974V87H40.0934ZM39.0054 86.2H44.3334V89.32H39.0054V86.2ZM47.1174 91.864H61.5654V92.792H47.1174V91.864ZM48.4134 95.688H60.2694V96.616H48.4134V95.688ZM47.3894 97.624H61.3094V98.584H47.3894V97.624ZM49.0374 90.008H59.8534V94.744H48.9094V93.832H58.6214V90.92H49.0374V90.008ZM53.6614 89.128H54.8934V100.28H53.6614V89.128ZM49.1334 86.936H54.1894V87.864H49.1334V86.936ZM55.1334 86.936H61.4214V87.864H55.1334V86.936ZM49.5334 85.544L50.6374 85.864C49.9974 87.336 48.9734 88.84 48.0454 89.8C47.8054 89.608 47.3254 89.304 47.0374 89.144C48.0454 88.248 48.9734 86.888 49.5334 85.544ZM55.5654 85.544L56.6854 85.832C56.0294 87.288 54.8934 88.632 53.7734 89.496C53.5494 89.304 53.0534 89 52.7654 88.888C53.9334 88.088 54.9894 86.872 55.5654 85.544ZM50.0614 87.72L51.0694 87.432C51.4854 87.976 51.9494 88.744 52.1574 89.24L51.1174 89.576C50.9254 89.08 50.4934 88.296 50.0614 87.72ZM56.2694 87.688L57.2454 87.288C57.7734 87.832 58.3654 88.6 58.6214 89.112L57.6134 89.56C57.3574 89.032 56.7974 88.232 56.2694 87.688ZM69.1654 92.968H76.0134V94.024H69.1654V92.968ZM69.1334 95.752H76.0134V96.792H69.1334V95.752ZM76.1254 86.008L77.2934 86.472C76.7174 87.528 76.0294 88.696 75.4534 89.496L74.4454 89.064C75.0054 88.248 75.7414 86.952 76.1254 86.008ZM67.9494 86.552L68.9574 86.104C69.6454 87 70.3654 88.232 70.6374 89.048L69.5654 89.576C69.3094 88.744 68.6214 87.496 67.9494 86.552ZM68.3974 90.136H76.0774V91.256H69.5814V100.28H68.3974V90.136ZM75.4854 90.136H76.6534V98.776C76.6534 99.448 76.5094 99.8 76.0294 100.008C75.5494 100.2 74.7494 100.2 73.5334 100.2C73.4694 99.88 73.2934 99.384 73.1334 99.048C74.0614 99.08 74.9094 99.08 75.1494 99.08C75.4054 99.064 75.4854 98.984 75.4854 98.776V90.136ZM71.9814 85.56H73.1814V90.84H71.9814V85.56ZM63.6934 86.568L64.3974 85.736C65.3894 86.232 66.5894 87 67.1814 87.592L66.4454 88.52C65.8854 87.928 64.6854 87.096 63.6934 86.568ZM62.9414 90.84L63.6294 89.992C64.6214 90.472 65.8694 91.24 66.4934 91.816L65.7734 92.76C65.1654 92.184 63.9494 91.368 62.9414 90.84ZM63.4374 99.352C64.2214 98.104 65.3254 95.992 66.1574 94.152L67.0534 94.872C66.3174 96.584 65.3254 98.6 64.4774 100.12L63.4374 99.352ZM81.1334 88.152H91.1814V87.256H80.0454V86.456H92.3014V88.968H81.1334V88.152ZM80.7654 88.152H81.9014C81.5974 89.08 81.2294 90.136 80.9414 90.84L79.8374 90.76C80.1574 90.04 80.5094 89.016 80.7654 88.152ZM80.7014 89.816H92.5574V90.632H80.4454L80.7014 89.816ZM92.1734 89.816H93.3094C93.3094 89.816 93.2934 90.072 93.2774 90.216C93.1814 91.192 93.0694 91.672 92.8134 91.928C92.6214 92.12 92.3494 92.2 92.0294 92.216C91.7574 92.232 91.1974 92.232 90.6214 92.184C90.6054 91.96 90.5094 91.608 90.3974 91.384C90.8934 91.432 91.3254 91.448 91.5014 91.448C91.6934 91.448 91.7894 91.432 91.8694 91.352C91.9974 91.224 92.0774 90.856 92.1734 89.976V89.816ZM83.9814 85.576H85.0854V88.456C85.0854 90.568 84.4294 92.248 79.7894 93.144C79.6934 92.872 79.4374 92.424 79.2294 92.216C83.4534 91.416 83.9814 90.072 83.9814 88.424V85.576ZM87.5654 85.576H88.7014V91.832H87.5654V85.576ZM82.3974 94.376V95.368H90.4454V94.376H82.3974ZM82.3974 96.12V97.128H90.4454V96.12H82.3974ZM82.3974 92.648V93.624H90.4454V92.648H82.3974ZM81.2294 91.864H91.6454V97.896H81.2294V91.864ZM87.6294 98.696L88.5734 98.072C90.3654 98.552 92.3174 99.192 93.4854 99.672L92.1894 100.312C91.1654 99.832 89.4054 99.224 87.6294 98.696ZM83.9334 98.056L85.0054 98.536C83.7094 99.256 81.6614 99.944 80.0614 100.344C79.8694 100.104 79.4534 99.656 79.1814 99.448C80.8454 99.128 82.7814 98.632 83.9334 98.056ZM98.8614 87.08H109.629V88.152H98.8614V87.08ZM100.877 93.64H102.141V94.456H100.877V93.64ZM103.549 90.296H104.637V100.104H103.549V90.296ZM108.045 91.688H109.133V99.096C109.133 99.656 109.021 99.928 108.637 100.088C108.253 100.248 107.597 100.248 106.605 100.248C106.557 99.976 106.429 99.608 106.301 99.336C106.989 99.352 107.629 99.352 107.805 99.336C107.997 99.336 108.045 99.288 108.045 99.096V91.688ZM99.2294 91.688H108.589V92.728H100.269V100.264H99.2294V91.688ZM95.6294 86.6L96.3174 85.736C97.2134 86.152 98.3174 86.84 98.8614 87.352L98.1414 88.328C97.6294 87.784 96.5254 87.048 95.6294 86.6ZM94.9254 90.904L95.5974 90.024C96.5414 90.392 97.6934 91.016 98.2534 91.512L97.5654 92.488C97.0054 91.992 95.8694 91.32 94.9254 90.904ZM95.2614 99.448C95.9174 98.216 96.8294 96.12 97.4854 94.328L98.4454 94.968C97.8374 96.632 97.0374 98.6 96.3334 100.088L95.2614 99.448ZM101.261 85.56H102.413V89.512H105.885V85.56H107.053V90.552H101.261V85.56ZM101.581 93.64H102.413C102.493 95.464 102.909 96.904 103.645 97.592C103.485 97.688 103.197 97.944 103.085 98.136C102.301 97.352 101.869 95.896 101.773 94.056H101.581V93.64ZM101.597 95.064H102.317C102.173 96.296 101.741 97.512 100.861 98.264C100.749 98.088 100.509 97.848 100.333 97.736C101.101 97.128 101.485 96.056 101.597 95.064ZM105.229 93.64H106.445V94.456H105.229V93.64ZM105.901 93.64H106.749C106.829 95.464 107.309 96.888 108.109 97.528C107.933 97.656 107.661 97.912 107.517 98.104C106.701 97.32 106.205 95.896 106.109 94.056H105.901V93.64ZM105.933 95.064H106.685C106.525 96.264 106.093 97.416 105.181 98.136C105.069 97.976 104.829 97.72 104.637 97.624C105.437 97.048 105.821 96.008 105.933 95.064ZM114.381 98.264C113.763 98.2427 113.176 98.184 112.621 98.088C112.077 97.992 111.619 97.8587 111.245 97.688V96.12C111.629 96.3013 112.109 96.4667 112.685 96.616C113.272 96.7547 113.837 96.8293 114.381 96.84V93.848C113.827 93.6773 113.347 93.496 112.941 93.304C112.547 93.112 112.221 92.904 111.965 92.68C111.72 92.4453 111.533 92.1787 111.405 91.88C111.288 91.5813 111.229 91.24 111.229 90.856C111.229 90.3333 111.357 89.8853 111.613 89.512C111.88 89.128 112.248 88.824 112.717 88.6C113.197 88.376 113.752 88.2427 114.381 88.2V86.856H115.421V88.184C115.997 88.1947 116.525 88.2587 117.005 88.376C117.485 88.4827 117.939 88.6267 118.365 88.808L117.837 90.184C117.475 90.0347 117.08 89.912 116.653 89.816C116.237 89.7093 115.827 89.64 115.421 89.608V92.552C116.083 92.7653 116.653 92.9893 117.133 93.224C117.624 93.4587 118.003 93.752 118.269 94.104C118.536 94.4453 118.669 94.8987 118.669 95.464C118.669 96.2213 118.387 96.84 117.821 97.32C117.267 97.8 116.467 98.0933 115.421 98.2V99.928H114.381V98.264ZM115.421 96.776C115.976 96.712 116.376 96.5787 116.621 96.376C116.877 96.1627 117.005 95.8907 117.005 95.56C117.005 95.336 116.952 95.144 116.845 94.984C116.749 94.824 116.584 94.6853 116.349 94.568C116.125 94.4507 115.816 94.3333 115.421 94.216V96.776ZM114.381 89.64C114.051 89.6613 113.773 89.7253 113.549 89.832C113.336 89.928 113.171 90.056 113.053 90.216C112.947 90.376 112.893 90.5627 112.893 90.776C112.893 91.0107 112.941 91.2187 113.037 91.4C113.133 91.5707 113.288 91.72 113.501 91.848C113.715 91.9653 114.008 92.0773 114.381 92.184V89.64ZM120.274 94.136C120.274 93.4747 120.316 92.824 120.402 92.184C120.498 91.544 120.658 90.9413 120.882 90.376C121.116 89.8 121.436 89.2933 121.842 88.856C122.247 88.408 122.759 88.0613 123.378 87.816C124.007 87.56 124.764 87.432 125.65 87.432C125.874 87.432 126.124 87.4427 126.402 87.464C126.69 87.4747 126.924 87.5067 127.106 87.56V88.984C126.903 88.92 126.679 88.872 126.434 88.84C126.199 88.808 125.964 88.792 125.73 88.792C124.994 88.792 124.386 88.904 123.906 89.128C123.426 89.352 123.047 89.6613 122.77 90.056C122.492 90.4507 122.29 90.9093 122.162 91.432C122.034 91.944 121.954 92.504 121.922 93.112H122.018C122.178 92.856 122.375 92.6267 122.61 92.424C122.844 92.2213 123.132 92.0613 123.474 91.944C123.815 91.8267 124.21 91.768 124.658 91.768C125.319 91.768 125.895 91.9067 126.386 92.184C126.887 92.4613 127.271 92.8613 127.538 93.384C127.815 93.9067 127.954 94.5413 127.954 95.288C127.954 96.088 127.799 96.7813 127.49 97.368C127.191 97.944 126.764 98.3867 126.21 98.696C125.666 99.0053 125.01 99.16 124.242 99.16C123.687 99.16 123.17 99.0587 122.69 98.856C122.21 98.6533 121.788 98.344 121.426 97.928C121.063 97.512 120.78 96.9893 120.578 96.36C120.375 95.72 120.274 94.9787 120.274 94.136ZM124.226 97.752C124.834 97.752 125.33 97.5547 125.714 97.16C126.098 96.7547 126.29 96.1307 126.29 95.288C126.29 94.616 126.119 94.0827 125.778 93.688C125.447 93.2933 124.946 93.096 124.274 93.096C123.815 93.096 123.415 93.192 123.074 93.384C122.732 93.576 122.466 93.8213 122.274 94.12C122.082 94.4187 121.986 94.7227 121.986 95.032C121.986 95.3627 122.034 95.688 122.13 96.008C122.226 96.328 122.364 96.6213 122.546 96.888C122.738 97.1547 122.972 97.368 123.25 97.528C123.527 97.6773 123.852 97.752 124.226 97.752ZM131.862 97.32C131.766 97.6933 131.643 98.0987 131.494 98.536C131.345 98.9733 131.185 99.4053 131.014 99.832C130.843 100.269 130.667 100.68 130.486 101.064H129.254C129.361 100.648 129.462 100.205 129.558 99.736C129.665 99.2773 129.761 98.824 129.846 98.376C129.931 97.928 130.001 97.5173 130.054 97.144H131.75L131.862 97.32ZM141.453 93.272C141.453 94.2 141.378 95.0267 141.229 95.752C141.09 96.4773 140.866 97.096 140.557 97.608C140.258 98.1093 139.858 98.4933 139.357 98.76C138.866 99.0267 138.274 99.16 137.581 99.16C136.706 99.16 135.986 98.9253 135.421 98.456C134.856 97.9867 134.434 97.3147 134.157 96.44C133.88 95.5547 133.741 94.4987 133.741 93.272C133.741 92.0347 133.864 90.9787 134.109 90.104C134.365 89.2293 134.776 88.5627 135.341 88.104C135.906 87.6347 136.653 87.4 137.581 87.4C138.456 87.4 139.176 87.6347 139.741 88.104C140.317 88.5627 140.744 89.2293 141.021 90.104C141.309 90.9787 141.453 92.0347 141.453 93.272ZM135.437 93.272C135.437 94.264 135.506 95.0907 135.645 95.752C135.784 96.4133 136.008 96.9093 136.317 97.24C136.637 97.5707 137.058 97.736 137.581 97.736C138.104 97.736 138.52 97.576 138.829 97.256C139.149 96.9253 139.378 96.4293 139.517 95.768C139.666 95.096 139.741 94.264 139.741 93.272C139.741 92.28 139.666 91.4587 139.517 90.808C139.378 90.1467 139.149 89.6507 138.829 89.32C138.52 88.9893 138.104 88.824 137.581 88.824C137.058 88.824 136.637 88.9893 136.317 89.32C136.008 89.6507 135.784 90.1467 135.645 90.808C135.506 91.4587 135.437 92.28 135.437 93.272ZM150.609 93.272C150.609 94.2 150.534 95.0267 150.385 95.752C150.246 96.4773 150.022 97.096 149.713 97.608C149.414 98.1093 149.014 98.4933 148.513 98.76C148.022 99.0267 147.43 99.16 146.737 99.16C145.862 99.16 145.142 98.9253 144.577 98.456C144.012 97.9867 143.59 97.3147 143.313 96.44C143.036 95.5547 142.897 94.4987 142.897 93.272C142.897 92.0347 143.02 90.9787 143.265 90.104C143.521 89.2293 143.932 88.5627 144.497 88.104C145.062 87.6347 145.809 87.4 146.737 87.4C147.612 87.4 148.332 87.6347 148.897 88.104C149.473 88.5627 149.9 89.2293 150.177 90.104C150.465 90.9787 150.609 92.0347 150.609 93.272ZM144.593 93.272C144.593 94.264 144.662 95.0907 144.801 95.752C144.94 96.4133 145.164 96.9093 145.473 97.24C145.793 97.5707 146.214 97.736 146.737 97.736C147.26 97.736 147.676 97.576 147.985 97.256C148.305 96.9253 148.534 96.4293 148.673 95.768C148.822 95.096 148.897 94.264 148.897 93.272C148.897 92.28 148.822 91.4587 148.673 90.808C148.534 90.1467 148.305 89.6507 147.985 89.32C147.676 88.9893 147.26 88.824 146.737 88.824C146.214 88.824 145.793 88.9893 145.473 89.32C145.164 89.6507 144.94 90.1467 144.801 90.808C144.662 91.4587 144.593 92.28 144.593 93.272ZM159.765 93.272C159.765 94.2 159.691 95.0267 159.541 95.752C159.403 96.4773 159.179 97.096 158.869 97.608C158.571 98.1093 158.171 98.4933 157.669 98.76C157.179 99.0267 156.587 99.16 155.893 99.16C155.019 99.16 154.299 98.9253 153.733 98.456C153.168 97.9867 152.747 97.3147 152.469 96.44C152.192 95.5547 152.053 94.4987 152.053 93.272C152.053 92.0347 152.176 90.9787 152.421 90.104C152.677 89.2293 153.088 88.5627 153.653 88.104C154.219 87.6347 154.965 87.4 155.893 87.4C156.768 87.4 157.488 87.6347 158.053 88.104C158.629 88.5627 159.056 89.2293 159.333 90.104C159.621 90.9787 159.765 92.0347 159.765 93.272ZM153.749 93.272C153.749 94.264 153.819 95.0907 153.957 95.752C154.096 96.4133 154.32 96.9093 154.629 97.24C154.949 97.5707 155.371 97.736 155.893 97.736C156.416 97.736 156.832 97.576 157.141 97.256C157.461 96.9253 157.691 96.4293 157.829 95.768C157.979 95.096 158.053 94.264 158.053 93.272C158.053 92.28 157.979 91.4587 157.829 90.808C157.691 90.1467 157.461 89.6507 157.141 89.32C156.832 88.9893 156.416 88.824 155.893 88.824C155.371 88.824 154.949 88.9893 154.629 89.32C154.32 89.6507 154.096 90.1467 153.957 90.808C153.819 91.4587 153.749 92.28 153.749 93.272ZM169.802 92.024H171.034V98.2C171.034 98.76 171.162 98.856 171.786 98.856C172.074 98.856 173.466 98.856 173.866 98.856C174.522 98.856 174.618 98.44 174.682 95.976C174.954 96.2 175.482 96.408 175.802 96.504C175.674 99.256 175.354 100.008 173.946 100.008C173.626 100.008 171.946 100.008 171.642 100.008C170.186 100.008 169.802 99.592 169.802 98.2V92.024ZM161.434 91.304H175.562V92.472H161.434V91.304ZM162.826 86.808H174.202V87.976H162.826V86.808ZM165.53 92.2H166.794C166.522 95.784 165.818 98.728 161.994 100.248C161.866 99.96 161.514 99.528 161.242 99.304C164.778 97.976 165.29 95.32 165.53 92.2ZM179.002 100.712L178.634 99.88C179.946 99.336 180.666 98.52 180.666 97.32L180.362 95.96L181.226 97.176C181.002 97.464 180.682 97.544 180.378 97.544C179.722 97.544 179.178 97.16 179.178 96.392C179.178 95.64 179.754 95.24 180.394 95.24C181.29 95.24 181.77 95.976 181.77 97.096C181.77 98.824 180.682 100.136 179.002 100.712ZM194.81 89.576H199.514V90.664H194.81V89.576ZM194.234 86.424H195.37V98.376L194.234 98.616V86.424ZM193.114 98.248C194.586 97.88 196.922 97.224 199.178 96.584L199.322 97.72C197.29 98.344 195.098 99 193.514 99.464L193.114 98.248ZM197.162 94.984L198.122 94.504C199.21 95.88 200.346 97.72 200.794 98.92L199.738 99.48C199.322 98.264 198.202 96.376 197.162 94.984ZM194.778 86.424H200.186V93.752H194.778V92.632H199.066V87.544H194.778V86.424ZM205.994 86.44H207.226V96.2C207.226 96.888 207.098 97.304 206.602 97.528C206.138 97.768 205.37 97.784 204.25 97.784C204.218 97.416 204.026 96.824 203.818 96.472C204.682 96.504 205.45 96.488 205.706 96.488C205.93 96.488 205.994 96.408 205.994 96.184V86.44ZM201.402 86.44H206.666V87.64H202.618V100.296H201.402V86.44ZM220.426 87.064H221.674V98.568C221.674 99.432 221.466 99.848 220.842 100.04C220.202 100.248 219.082 100.264 217.498 100.264C217.418 99.912 217.178 99.32 216.986 98.968C218.282 99.032 219.578 99.016 219.962 99C220.314 98.984 220.426 98.872 220.426 98.536V87.064ZM211.018 90.264H212.186V97.512H211.018V90.264ZM211.514 90.264H217.578V96.232H211.514V95.08H216.378V91.4H211.514V90.264ZM209.37 86.696H223.642V87.912H209.37V86.696ZM227.21 91.56H231.194V92.68H227.21V91.56ZM230.714 91.56H231.882C231.882 91.56 231.882 91.912 231.882 92.072C231.802 95.688 231.706 97.032 231.37 97.48C231.114 97.768 230.858 97.88 230.41 97.928C229.994 97.976 229.274 97.96 228.49 97.928C228.458 97.576 228.33 97.112 228.154 96.808C228.874 96.872 229.578 96.872 229.85 96.872C230.074 96.872 230.234 96.856 230.346 96.712C230.586 96.424 230.666 95.224 230.714 91.768V91.56ZM235.226 86.376L235.946 85.624C236.938 86.136 238.202 86.904 238.826 87.464L238.074 88.28C237.466 87.72 236.234 86.904 235.226 86.376ZM237.514 90.712L238.714 91C237.354 95.176 234.97 98.264 231.69 100.2C231.514 99.96 231.066 99.464 230.81 99.224C234.058 97.496 236.314 94.568 237.514 90.712ZM227.306 88.28H239.69V89.464H227.306V88.28ZM226.538 88.28H227.786V92.792C227.786 95.064 227.53 98.296 226.074 100.392C225.866 100.152 225.354 99.736 225.066 99.592C226.394 97.624 226.538 94.872 226.538 92.776V88.28ZM233.178 85.592H234.426C234.394 92.952 235.962 98.952 238.042 98.952C238.49 98.952 238.698 98.12 238.794 95.992C239.066 96.264 239.514 96.536 239.834 96.648C239.61 99.384 239.162 100.168 237.946 100.168C234.682 100.168 233.242 93.256 233.178 85.592ZM243.85 94.088H254.746V95.144H243.85V94.088ZM241.786 88.312H252.25V89.416H241.786V88.312ZM246.298 91.192H253.626V92.264H246.298V91.192ZM254.234 94.088H255.434C255.434 94.088 255.418 94.44 255.386 94.616C255.098 97.992 254.794 99.32 254.282 99.848C253.978 100.152 253.674 100.264 253.194 100.296C252.794 100.328 251.994 100.312 251.162 100.28C251.146 99.944 251.018 99.48 250.826 99.16C251.626 99.256 252.394 99.256 252.698 99.256C253.002 99.256 253.162 99.224 253.306 99.096C253.674 98.728 253.978 97.464 254.234 94.28V94.088ZM250.682 96.008L251.53 95.688C252.042 96.344 252.538 97.24 252.746 97.816L251.866 98.184C251.658 97.608 251.162 96.68 250.682 96.008ZM243.77 86.04L244.81 85.608C245.434 86.248 246.138 87.16 246.458 87.768L245.338 88.28C245.066 87.656 244.394 86.712 243.77 86.04ZM245.946 96.408L246.922 96.28C247.242 97.288 247.418 98.616 247.418 99.48L246.362 99.624C246.394 98.76 246.218 97.448 245.946 96.408ZM248.298 96.264L249.242 96.04C249.658 96.92 250.058 98.056 250.186 98.808L249.194 99.08C249.082 98.312 248.698 97.144 248.298 96.264ZM243.898 96.04L244.906 96.376C244.538 97.704 243.978 99.224 243.002 100.2L242.074 99.544C242.97 98.696 243.578 97.272 243.898 96.04ZM248.618 85.56L249.834 85.864C248.378 90.344 245.866 94.568 241.626 97.08C241.482 96.792 241.178 96.312 240.97 96.056C244.938 93.8 247.402 89.704 248.618 85.56ZM251.978 88.312H253.114C252.89 89.416 252.602 90.744 252.362 91.608L251.306 91.464C251.53 90.616 251.802 89.336 251.978 88.312ZM253.178 91.192H254.314C254.09 92.296 253.818 93.64 253.594 94.504L252.506 94.376C252.746 93.512 253.018 92.216 253.178 91.192ZM259.402 97.912H269.546V99.112H259.402V97.912ZM259.322 92.984H269.562V94.168H259.322V92.984ZM258.778 88.136H270.202V100.216H268.954V89.336H259.978V100.28H258.778V88.136ZM263.61 85.512L265.098 85.784C264.65 86.872 264.122 88.072 263.674 88.872L262.506 88.6C262.906 87.736 263.386 86.44 263.61 85.512ZM280.426 86.728C279.098 88.632 276.522 90.84 273.818 92.28C273.674 91.992 273.338 91.576 273.082 91.32C275.85 89.928 278.506 87.56 279.738 85.544H280.97C282.666 87.864 285.434 90.008 287.946 91.128C287.658 91.416 287.37 91.832 287.162 92.184C284.682 90.904 281.898 88.712 280.426 86.728ZM276.458 90.44H284.49V91.528H276.458V90.44ZM274.394 93.656H286.57V94.728H274.394V93.656ZM273.658 98.712H287.338V99.768H273.658V98.712ZM279.786 90.856H281.05V99.272H279.786V90.856ZM275.722 95.544L276.698 95.144C277.354 96.024 278.01 97.24 278.234 98.04L277.194 98.488C276.986 97.688 276.362 96.44 275.722 95.544ZM284.09 95.112L285.226 95.576C284.618 96.584 283.866 97.736 283.274 98.488L282.362 98.088C282.938 97.304 283.69 96.024 284.09 95.112ZM292.122 91.032V93.448H300.906V91.032H292.122ZM291.098 90.216H301.994V94.264H291.098V90.216ZM293.722 88.488H299.306V89.336H293.722V88.488ZM295.914 90.472H296.938V93.816H295.914V90.472ZM296.41 86.536C294.986 87.992 292.314 89.624 289.658 90.616C289.514 90.344 289.242 89.928 289.018 89.672C291.738 88.744 294.442 87.112 295.77 85.56H296.906C298.714 87.304 301.498 88.776 303.978 89.512C303.722 89.768 303.45 90.2 303.274 90.504C300.922 89.688 298.042 88.104 296.41 86.536ZM293.098 91.512L293.962 91.224C294.378 91.784 294.762 92.536 294.922 93.048L293.994 93.384C293.866 92.872 293.498 92.088 293.098 91.512ZM298.858 91.16L299.882 91.48C299.514 92.168 299.114 92.904 298.794 93.384L297.946 93.096C298.25 92.552 298.666 91.704 298.858 91.16ZM292.042 95.032H301.082V100.264H299.866V95.88H293.226V100.28H292.042V95.032ZM292.746 96.952H300.394V97.832H292.746V96.952ZM292.746 98.92H300.394V99.784H292.746V98.92ZM308.714 87.16V88.808H316.314V87.16H308.714ZM307.514 86.184H317.578V89.8H307.514V86.184ZM308.026 93.592V94.728H316.986V93.592H308.026ZM308.026 95.576V96.728H316.986V95.576H308.026ZM308.026 91.624V92.744H316.986V91.624H308.026ZM306.826 90.728H318.218V97.608H306.826V90.728ZM309.882 97.592L311.002 98.328C309.722 99.112 307.642 99.88 305.994 100.296C305.786 100.04 305.386 99.656 305.098 99.416C306.778 99.016 308.874 98.248 309.882 97.592ZM313.786 98.424L314.826 97.64C316.49 98.136 318.634 98.92 319.882 99.448L318.842 100.312C317.658 99.752 315.482 98.92 313.786 98.424ZM323.002 100.712L322.634 99.88C323.946 99.336 324.666 98.52 324.666 97.32L324.362 95.96L325.226 97.176C325.002 97.464 324.682 97.544 324.378 97.544C323.722 97.544 323.178 97.16 323.178 96.392C323.178 95.64 323.754 95.24 324.394 95.24C325.29 95.24 325.77 95.976 325.77 97.096C325.77 98.824 324.682 100.136 323.002 100.712ZM33.9654 118.536H38.4934V119.752H33.9654V118.536ZM37.8854 118.536H39.1174C39.1174 121.4 39.4694 127.48 45.7894 131.224C45.5174 131.432 45.0374 131.944 44.8134 132.232C38.4134 128.36 37.8854 121.544 37.8854 118.536ZM37.4374 121.672L38.7974 121.928C37.6454 126.808 35.5334 130.184 31.9974 132.264C31.7734 132.008 31.2294 131.512 30.9094 131.288C34.4614 129.432 36.4614 126.2 37.4374 121.672ZM49.9654 123.032V125.448H58.7494V123.032H49.9654ZM48.9414 122.216H59.8374V126.264H48.9414V122.216ZM51.5654 120.488H57.1494V121.336H51.5654V120.488ZM53.7574 122.472H54.7814V125.816H53.7574V122.472ZM54.2534 118.536C52.8294 119.992 50.1574 121.624 47.5014 122.616C47.3574 122.344 47.0854 121.928 46.8614 121.672C49.5814 120.744 52.2854 119.112 53.6134 117.56H54.7494C56.5574 119.304 59.3414 120.776 61.8214 121.512C61.5654 121.768 61.2934 122.2 61.1174 122.504C58.7654 121.688 55.8854 120.104 54.2534 118.536ZM50.9414 123.512L51.8054 123.224C52.2214 123.784 52.6054 124.536 52.7654 125.048L51.8374 125.384C51.7094 124.872 51.3414 124.088 50.9414 123.512ZM56.7014 123.16L57.7254 123.48C57.3574 124.168 56.9574 124.904 56.6374 125.384L55.7894 125.096C56.0934 124.552 56.5094 123.704 56.7014 123.16ZM49.8854 127.032H58.9254V132.264H57.7094V127.88H51.0694V132.28H49.8854V127.032ZM50.5894 128.952H58.2374V129.832H50.5894V128.952ZM50.5894 130.92H58.2374V131.784H50.5894V130.92ZM70.5414 129.128L71.4854 128.872C71.8374 129.48 72.1094 130.28 72.1894 130.792L71.1974 131.096C71.1174 130.552 70.8454 129.72 70.5414 129.128ZM74.8134 128.84L75.8694 129.144C75.5494 129.848 75.1974 130.584 74.9254 131.096L74.0134 130.824C74.2854 130.28 74.6374 129.416 74.8134 128.84ZM70.7334 126.696V127.976H75.5974V126.696H70.7334ZM69.7094 125.896H76.6534V128.776H69.7094V125.896ZM70.1894 121.416V122.552H76.0934V121.416H70.1894ZM70.1894 119.512V120.632H76.0934V119.512H70.1894ZM69.1814 118.68H77.1494V123.384H69.1814V118.68ZM68.7974 124.136H77.5174V125.096H68.7974V124.136ZM68.5094 131H77.7094V131.928H68.5094V131ZM71.4374 117.56H72.3974V119.256H71.4374V117.56ZM73.8054 117.56H74.7654V119.256H73.8054V117.56ZM71.5814 119.096H72.3814V123.144H71.5814V119.096ZM73.8054 119.096H74.6054V123.144H73.8054V119.096ZM63.1174 121.832H68.4294V122.904H63.1174V121.832ZM63.5174 118.616H68.0614V119.688H63.5174V118.616ZM67.4374 124.04H68.2854V129.96H67.4374V124.04ZM65.3414 122.296H66.3654V132.28H65.3414V122.296ZM63.4214 124.056H64.2694V125.976C64.2694 127.624 64.1734 129.48 63.6134 130.984C63.4534 130.792 63.1014 130.536 62.8774 130.424C63.3414 129.096 63.4214 127.4 63.4214 125.944V124.056ZM79.8534 118.888H90.0934V120.12H79.8534V118.888ZM89.9334 118.888H90.1574L90.4454 118.808L91.2934 119.416C91.2294 119.48 91.1654 119.544 91.0534 119.592C81.5974 127.272 81.0534 128.456 81.0534 129.304C81.0534 130.072 81.8694 130.408 83.0854 130.408H90.5574C91.7094 130.408 91.9974 129.832 92.1094 127.096C92.4454 127.288 92.9734 127.464 93.3414 127.544C93.1334 130.888 92.4614 131.64 90.4454 131.64H83.2454C80.8934 131.64 79.7574 130.808 79.7574 129.4C79.7574 128.136 80.2214 126.84 89.9334 118.888ZM100.461 123.96H107.197V125.064H100.461V123.96ZM102.397 118.008H106.333V119.096H102.397V118.008ZM105.437 118.008H106.765C107.229 120.424 108.397 122.616 109.933 123.72C109.661 123.928 109.245 124.408 109.037 124.696C107.437 123.4 106.237 121.128 105.725 118.632H105.437V118.008ZM106.701 123.96H107.917C107.917 123.96 107.917 124.344 107.901 124.52C107.757 129.352 107.629 131.032 107.213 131.576C106.941 131.944 106.653 132.072 106.189 132.12C105.789 132.152 105.085 132.152 104.365 132.12C104.333 131.752 104.205 131.24 104.029 130.92C104.717 130.984 105.373 130.984 105.629 130.984C105.885 130.984 106.013 130.952 106.141 130.792C106.445 130.424 106.589 128.792 106.701 124.2V123.96ZM102.717 124.456H103.901C103.677 127.64 102.909 130.584 99.9654 132.28C99.8214 132.024 99.4854 131.592 99.2294 131.384C101.981 129.912 102.541 127.208 102.717 124.456ZM101.405 119.336L102.573 119.64C101.901 121.48 100.733 123.608 99.3094 124.968C99.1494 124.728 98.7654 124.36 98.5254 124.168C99.8214 122.952 100.909 120.968 101.405 119.336ZM98.5574 117.624L99.6934 117.976C98.6374 120.696 96.9894 123.4 95.2614 125.192C95.1334 124.92 94.7974 124.28 94.5734 124.008C96.1574 122.456 97.6614 120.056 98.5574 117.624ZM96.8934 121.752L98.0134 120.616L98.0454 120.632V132.264H96.8934V121.752ZM117.002 132.712L116.634 131.88C117.946 131.336 118.666 130.52 118.666 129.32L118.362 127.96L119.226 129.176C119.002 129.464 118.682 129.544 118.378 129.544C117.722 129.544 117.178 129.16 117.178 128.392C117.178 127.64 117.754 127.24 118.394 127.24C119.29 127.24 119.77 127.976 119.77 129.096C119.77 130.824 118.682 132.136 117.002 132.712ZM134.634 121.88H142.986V122.968H134.634V121.88ZM133.482 129.128H145.274V130.2H133.482V129.128ZM134.09 119.432H145.226V120.52H134.09V119.432ZM142.506 121.88H143.69C143.69 121.88 143.674 122.312 143.674 122.472C143.482 128.92 143.258 131.016 142.746 131.688C142.442 132.088 142.09 132.216 141.61 132.264C141.13 132.296 140.33 132.296 139.53 132.248C139.514 131.976 139.402 131.56 139.242 131.288C140.058 131.352 140.794 131.368 141.098 131.352C141.402 131.352 141.546 131.32 141.69 131.128C142.106 130.616 142.33 128.376 142.506 122.136V121.88ZM134.042 121.88H135.258C134.906 124.744 134.362 128.6 133.962 130.808L132.746 130.728C133.194 128.504 133.77 124.648 134.042 121.88ZM134.81 117.48L136.058 117.832C135.098 120.024 133.642 122.184 132.25 123.592C131.994 123.4 131.45 123.032 131.13 122.856C132.602 121.56 133.978 119.512 134.81 117.48ZM136.73 123.688L137.418 123C138.458 123.464 139.706 124.184 140.346 124.776L139.626 125.528C139.018 124.936 137.786 124.152 136.73 123.688ZM136.33 127.192L137.002 126.52C138.09 127.032 139.418 127.88 140.074 128.504L139.37 129.272C138.73 128.632 137.418 127.752 136.33 127.192ZM131.162 125.464H134.154V125.496H142.986V125.464H145.834V126.552H142.986V126.52H134.154V126.552H131.162V125.464ZM150.538 118.408H158.89V119.576H150.538V118.408ZM150.538 122.264H158.954V123.416H150.538V122.264ZM150.41 126.136H158.874V127.288H150.41V126.136ZM149.802 118.408H151.018V123.352C151.018 126.12 150.618 129.896 147.866 132.296C147.69 132.04 147.21 131.608 146.954 131.432C149.53 129.176 149.802 125.928 149.802 123.352V118.408ZM158.362 118.408H159.61V130.52C159.61 131.368 159.386 131.784 158.778 131.992C158.154 132.2 157.098 132.216 155.37 132.216C155.29 131.864 155.066 131.288 154.858 130.952C156.186 131 157.498 130.984 157.866 130.984C158.234 130.968 158.362 130.856 158.362 130.504V118.408ZM163.354 128.152H177.642V129.208H163.354V128.152ZM169.818 117.56H171.066V119.592H169.818V117.56ZM164.858 125.24H174.954V126.216H164.858V125.24ZM169.834 127.208H171.082V131.064C171.082 131.736 170.89 132.024 170.33 132.184C169.77 132.328 168.842 132.328 167.402 132.328C167.338 132.024 167.146 131.624 166.986 131.336C168.074 131.368 169.178 131.352 169.45 131.352C169.738 131.336 169.834 131.272 169.834 131.032V127.208ZM174.682 125.24H175.002L175.274 125.192L176.074 125.848C174.634 126.744 172.554 127.544 170.666 128.008C170.522 127.8 170.234 127.48 170.058 127.32C171.722 126.904 173.674 126.152 174.682 125.48V125.24ZM166.714 121.928V123.368H174.282V121.928H166.714ZM165.53 121.032H175.53V124.264H165.53V121.032ZM163.498 118.968H177.434V120.008H163.498V118.968ZM179.498 119.64H193.514V120.776H179.498V119.64ZM183.402 125.352H190.922V126.392H183.402V125.352ZM182.554 122.632H190.73V123.704H183.738V132.28H182.554V122.632ZM190.458 122.632H191.626V130.792C191.626 131.496 191.482 131.864 190.938 132.056C190.426 132.248 189.53 132.248 188.154 132.248C188.106 131.912 187.93 131.416 187.754 131.08C188.826 131.128 189.802 131.112 190.09 131.112C190.362 131.096 190.458 131.016 190.458 130.776V122.632ZM184.73 117.56L185.946 117.848C184.858 121.368 182.938 124.92 179.882 127.064C179.722 126.792 179.354 126.376 179.114 126.136C181.978 124.168 183.866 120.776 184.73 117.56ZM183.402 128.056H190.922V129.096H183.402V128.056ZM197.402 129.912H207.546V131.112H197.402V129.912ZM197.322 124.984H207.562V126.168H197.322V124.984ZM196.778 120.136H208.202V132.216H206.954V121.336H197.978V132.28H196.778V120.136ZM201.61 117.512L203.098 117.784C202.65 118.872 202.122 120.072 201.674 120.872L200.506 120.6C200.906 119.736 201.386 118.44 201.61 117.512ZM218.426 118.728C217.098 120.632 214.522 122.84 211.818 124.28C211.674 123.992 211.338 123.576 211.082 123.32C213.85 121.928 216.506 119.56 217.738 117.544H218.97C220.666 119.864 223.434 122.008 225.946 123.128C225.658 123.416 225.37 123.832 225.162 124.184C222.682 122.904 219.898 120.712 218.426 118.728ZM214.458 122.44H222.49V123.528H214.458V122.44ZM212.394 125.656H224.57V126.728H212.394V125.656ZM211.658 130.712H225.338V131.768H211.658V130.712ZM217.786 122.856H219.05V131.272H217.786V122.856ZM213.722 127.544L214.698 127.144C215.354 128.024 216.01 129.24 216.234 130.04L215.194 130.488C214.986 129.688 214.362 128.44 213.722 127.544ZM222.09 127.112L223.226 127.576C222.618 128.584 221.866 129.736 221.274 130.488L220.362 130.088C220.938 129.304 221.69 128.024 222.09 127.112ZM230.122 123.032V125.448H238.906V123.032H230.122ZM229.098 122.216H239.994V126.264H229.098V122.216ZM231.722 120.488H237.306V121.336H231.722V120.488ZM233.914 122.472H234.938V125.816H233.914V122.472ZM234.41 118.536C232.986 119.992 230.314 121.624 227.658 122.616C227.514 122.344 227.242 121.928 227.018 121.672C229.738 120.744 232.442 119.112 233.77 117.56H234.906C236.714 119.304 239.498 120.776 241.978 121.512C241.722 121.768 241.45 122.2 241.274 122.504C238.922 121.688 236.042 120.104 234.41 118.536ZM231.098 123.512L231.962 123.224C232.378 123.784 232.762 124.536 232.922 125.048L231.994 125.384C231.866 124.872 231.498 124.088 231.098 123.512ZM236.858 123.16L237.882 123.48C237.514 124.168 237.114 124.904 236.794 125.384L235.946 125.096C236.25 124.552 236.666 123.704 236.858 123.16ZM230.042 127.032H239.082V132.264H237.866V127.88H231.226V132.28H230.042V127.032ZM230.746 128.952H238.394V129.832H230.746V128.952ZM230.746 130.92H238.394V131.784H230.746V130.92ZM246.714 119.16V120.808H254.314V119.16H246.714ZM245.514 118.184H255.578V121.8H245.514V118.184ZM246.026 125.592V126.728H254.986V125.592H246.026ZM246.026 127.576V128.728H254.986V127.576H246.026ZM246.026 123.624V124.744H254.986V123.624H246.026ZM244.826 122.728H256.218V129.608H244.826V122.728ZM247.882 129.592L249.002 130.328C247.722 131.112 245.642 131.88 243.994 132.296C243.786 132.04 243.386 131.656 243.098 131.416C244.778 131.016 246.874 130.248 247.882 129.592ZM251.786 130.424L252.826 129.64C254.49 130.136 256.634 130.92 257.882 131.448L256.842 132.312C255.658 131.752 253.482 130.92 251.786 130.424ZM266.282 121.304H272.25V122.312H266.282V121.304ZM263.786 130.888C265.258 130.632 267.578 130.168 269.818 129.72L269.898 130.776C267.882 131.24 265.738 131.704 264.186 132.056L263.786 130.888ZM265.594 118.28H266.762V130.984H265.594V118.28ZM266.282 118.28H272.81V125.384H266.282V124.328H271.642V119.336H266.282V118.28ZM269.37 124.696C270.058 127.688 271.514 130.184 273.898 131.24C273.626 131.48 273.274 131.928 273.098 132.232C270.602 130.968 269.114 128.264 268.378 124.888L269.37 124.696ZM272.554 125.752L273.498 126.44C272.602 127.272 271.466 128.168 270.57 128.76L269.818 128.152C270.682 127.528 271.882 126.52 272.554 125.752ZM259.786 118.264H263.882V119.352H260.922V132.296H259.786V118.264ZM263.53 118.264H263.754L263.93 118.216L264.746 118.712C264.234 120.04 263.562 121.688 262.97 122.952C264.266 124.28 264.57 125.416 264.57 126.408C264.57 127.288 264.362 127.944 263.882 128.28C263.642 128.44 263.338 128.536 263.002 128.568C262.634 128.616 262.186 128.616 261.786 128.584C261.77 128.296 261.674 127.816 261.482 127.496C261.898 127.544 262.25 127.544 262.538 127.528C262.746 127.512 262.938 127.464 263.098 127.368C263.37 127.192 263.466 126.776 263.45 126.28C263.45 125.4 263.114 124.344 261.866 123.096C262.506 121.64 263.162 119.704 263.53 118.6V118.264ZM277.866 122.456H287.194V123.608H277.866V122.456ZM282.474 126.28H287.866V127.416H282.474V126.28ZM281.834 123.048H283.082V131.144L281.834 130.984V123.048ZM278.042 124.984L279.29 125.112C278.842 128.344 277.834 130.792 276.026 132.36C275.834 132.152 275.322 131.736 275.034 131.56C276.826 130.168 277.69 127.88 278.042 124.984ZM278.794 127.048C279.93 130.312 282.426 130.872 285.674 130.872C286.266 130.872 289.034 130.872 289.818 130.856C289.626 131.144 289.418 131.72 289.37 132.072H285.61C281.802 132.072 279.194 131.32 277.818 127.416L278.794 127.048ZM281.818 117.576H283.082V120.168H281.818V117.576ZM275.802 119.4H289.178V122.888H287.946V120.552H276.986V122.888H275.802V119.4ZM295.61 118.28H305.562V119.208H295.61V118.28ZM297.386 121.416H303.754V122.04H297.386V121.416ZM297.386 122.744H303.754V123.368H297.386V122.744ZM296.746 120.04H304.33V124.472H303.21V120.744H297.85V124.472H296.746V120.04ZM295.162 124.072H305.834V126.232H304.746V124.84H296.218V126.232H295.162V124.072ZM297.226 125.32L298.026 125.768C297.61 126.392 297.002 127.128 296.282 127.576L295.53 126.952C296.218 126.584 296.842 125.912 297.226 125.32ZM298.186 125.288H299.178V126.296C299.178 126.584 299.274 126.648 299.818 126.648C300.074 126.648 301.45 126.648 301.802 126.648C302.17 126.648 302.25 126.552 302.314 125.928C302.506 126.04 302.874 126.152 303.13 126.2C303.034 127.128 302.762 127.368 301.946 127.368C301.674 127.368 299.978 127.368 299.722 127.368C298.506 127.368 298.186 127.176 298.186 126.296V125.288ZM299.338 124.936L300.042 124.456C300.65 124.792 301.37 125.288 301.722 125.704L301.002 126.216C300.65 125.816 299.962 125.272 299.338 124.936ZM302.858 125.704L303.626 125.272C304.314 125.8 305.114 126.568 305.482 127.128L304.682 127.592C304.33 127.048 303.546 126.264 302.858 125.704ZM299.018 127.032L300.138 127.272C299.098 128.408 297.626 129.4 295.642 130.216C295.482 129.976 295.162 129.624 294.938 129.464C296.81 128.808 298.234 127.896 299.018 127.032ZM303.146 128.056H303.386L303.61 128.008L304.362 128.424C303.002 130.44 299.914 131.72 295.434 132.312C295.322 132.056 295.066 131.672 294.842 131.416C299.114 130.952 302.09 129.768 303.146 128.248V128.056ZM298.122 128.504C299.53 130.136 302.618 131.064 306.026 131.352C305.786 131.592 305.498 132.04 305.354 132.344C301.85 131.944 298.746 130.84 297.13 128.872L298.122 128.504ZM298.394 128.056H303.482V128.824H297.626L298.394 128.056ZM299.834 118.712L301.146 118.856C300.906 119.464 300.682 120.072 300.49 120.504L299.45 120.344C299.594 119.832 299.77 119.176 299.834 118.712ZM294.202 117.656L295.322 117.96C294.41 120.728 292.986 123.544 291.402 125.416C291.29 125.128 290.97 124.488 290.762 124.184C292.17 122.584 293.434 120.12 294.202 117.656ZM292.922 121.576L294.026 120.472L294.058 120.504V132.28H292.922V121.576ZM307.706 118.552H321.258V119.544H307.706V118.552ZM313.786 117.592H315.002V126.728H313.786V117.592ZM309.93 123.192V124.264H318.954V123.192H309.93ZM309.93 121.384V122.44H318.954V121.384H309.93ZM308.794 120.584H320.138V125.08H308.794V120.584ZM316.746 125.624L317.546 125.032C318.938 125.592 320.586 126.616 321.402 127.4L320.586 128.104C319.77 127.288 318.154 126.216 316.746 125.624ZM307.69 126.344C310.586 126.36 315.258 126.328 319.674 126.264L319.61 127.208C315.29 127.304 310.698 127.384 307.738 127.4L307.69 126.344ZM310.698 128.296H311.882V130.568C311.882 130.984 312.058 131.048 313.066 131.048C313.53 131.048 315.914 131.048 316.554 131.048C317.354 131.048 317.498 130.856 317.562 129.448C317.834 129.608 318.298 129.784 318.618 129.848C318.458 131.656 318.09 132.072 316.65 132.072C316.234 132.072 313.386 132.072 313.002 132.072C311.178 132.072 310.698 131.768 310.698 130.568V128.296ZM312.986 128.12L313.754 127.464C314.714 127.928 315.882 128.68 316.458 129.224L315.658 129.96C315.098 129.4 313.946 128.616 312.986 128.12ZM318.538 128.616L319.562 128.248C320.346 129.176 321.162 130.44 321.482 131.272L320.394 131.672C320.074 130.856 319.306 129.576 318.538 128.616ZM308.826 128.232L309.85 128.664C309.498 129.672 308.986 130.968 308.346 131.8L307.306 131.224C307.962 130.456 308.506 129.208 308.826 128.232ZM323.338 123.464H337.61V124.568H323.338V123.464ZM324.362 120.568H336.666V121.64H324.362V120.568ZM326.106 126.312H333.818V127.416H326.106V126.312ZM332.33 120.984C333.338 123.704 335.402 126.072 337.93 127.128C337.658 127.352 337.29 127.816 337.13 128.12C334.474 126.856 332.41 124.344 331.274 121.288L332.33 120.984ZM325.37 118.248L326.394 117.864C326.986 118.6 327.61 119.624 327.866 120.296L326.778 120.728C326.554 120.056 325.946 119.016 325.37 118.248ZM334.218 117.816L335.386 118.216C334.874 119.112 334.234 120.088 333.706 120.744L332.682 120.36C333.194 119.672 333.85 118.584 334.218 117.816ZM333.482 126.312H334.698C334.698 126.312 334.682 126.664 334.666 126.84C334.442 130.056 334.218 131.336 333.77 131.8C333.482 132.12 333.178 132.216 332.698 132.264C332.266 132.296 331.418 132.28 330.538 132.232C330.522 131.896 330.378 131.416 330.186 131.112C331.034 131.192 331.866 131.192 332.17 131.192C332.458 131.192 332.618 131.176 332.762 131.032C333.082 130.728 333.29 129.544 333.482 126.488V126.312ZM329.002 126.648H330.25C329.866 129.4 328.89 131.336 325.162 132.328C325.05 132.024 324.714 131.544 324.474 131.304C327.898 130.52 328.682 128.888 329.002 126.648ZM329.674 117.544L330.938 117.768C329.914 122.152 327.978 126.056 323.786 128.184C323.61 127.912 323.274 127.464 323.018 127.224C327.018 125.272 328.874 121.592 329.674 117.544Z" fill="white"/>
</g>
</g>
<defs>
<filter id="filter0_b_4052_9348" x="-5" y="-5" width="360" height="215.333" filterUnits="userSpaceOnUse" color-interpolation-filters="sRGB">
<feFlood flood-opacity="0" result="BackgroundImageFix"/>
<feGaussianBlur in="BackgroundImageFix" stdDeviation="2.5"/>
<feComposite in2="SourceAlpha" operator="in" result="effect1_backgroundBlur_4052_9348"/>
<feBlend mode="normal" in="SourceGraphic" in2="effect1_backgroundBlur_4052_9348" result="shape"/>
</filter>
<filter id="filter1_d_4052_9348" x="-41.047" y="-54.7294" width="459.459" height="314.792" filterUnits="userSpaceOnUse" color-interpolation-filters="sRGB">
<feFlood flood-opacity="0" result="BackgroundImageFix"/>
<feColorMatrix in="SourceAlpha" type="matrix" values="0 0 0 0 0 0 0 0 0 0 0 0 0 0 0 0 0 0 127 0" result="hardAlpha"/>
<feOffset dx="13.6823"/>
<feGaussianBlur stdDeviation="27.3647"/>
<feComposite in2="hardAlpha" operator="out"/>
<feColorMatrix type="matrix" values="0 0 0 0 0 0 0 0 0 0 0 0 0 0 0 0 0 0 0.1 0"/>
<feBlend mode="normal" in2="BackgroundImageFix" result="effect1_dropShadow_4052_9348"/>
<feBlend mode="normal" in="SourceGraphic" in2="effect1_dropShadow_4052_9348" result="shape"/>
</filter>
<linearGradient id="paint0_linear_4052_9348" x1="429.318" y1="64.0666" x2="242.314" y2="384.92" gradientUnits="userSpaceOnUse">
<stop stop-color="#CDB47A"/>
<stop offset="0.16" stop-color="#CAB78D"/>
<stop offset="0.445" stop-color="#F3EAD6"/>
<stop offset="0.965" stop-color="#C6B489"/>
</linearGradient>
<clipPath id="clip0_4052_9348">
<rect width="350" height="205.333" rx="15" fill="white"/>
</clipPath>
</defs>
</svg>
