<svg width="350" height="206" viewBox="0 0 350 206" fill="none" xmlns="http://www.w3.org/2000/svg">
<g filter="url(#filter0_b_5882_14960)">
<g clip-path="url(#clip0_5882_14960)">
<g filter="url(#filter1_d_5882_14960)">
<rect width="350" height="205.333" rx="15" fill="url(#paint0_linear_5882_14960)" shape-rendering="crispEdges"/>
</g>
<path d="M-18.6667 -21H369.833V225.167H-18.6667V-21Z" fill="black" fill-opacity="0.2"/>
<path d="M30.408 40.208H59.688V42.832H30.408V40.208ZM79.272 28.4H86.408V30.512H79.272V28.4ZM76.52 41.136H88.296V43.28H76.52V41.136ZM85.352 28.4H87.56V35.792C87.56 36.4 87.56 36.752 87.688 36.848C87.784 36.976 87.976 37.008 88.2 37.008C88.424 37.008 88.808 37.008 89.096 37.008C89.352 37.008 89.64 36.976 89.768 36.88C89.896 36.784 90.024 36.592 90.088 36.208C90.152 35.76 90.184 34.832 90.216 33.584C90.664 33.968 91.432 34.352 92.008 34.544C91.976 35.728 91.88 37.072 91.688 37.552C91.496 38.064 91.176 38.416 90.76 38.608C90.408 38.8 89.8 38.896 89.288 38.896C88.904 38.896 88.04 38.896 87.688 38.896C87.08 38.896 86.376 38.736 85.96 38.32C85.512 37.936 85.352 37.424 85.352 35.664V28.4ZM87.88 41.136H88.296L88.712 41.04L90.248 41.584C88.136 49.744 82.696 54.416 76.264 56.624C76.008 56.016 75.4 55.12 74.952 54.608C80.872 52.848 86.088 48.4 87.88 41.52V41.136ZM79.688 43.216C81.704 48.72 86.024 52.976 92.2 54.576C91.688 55.056 91.016 55.984 90.696 56.56C84.328 54.64 79.976 50 77.704 43.728L79.688 43.216ZM78.248 28.4H80.392V32.624C80.392 35.088 79.88 38.224 77.256 40.272C76.904 39.856 76.04 39.12 75.56 38.864C77.896 37.04 78.248 34.608 78.248 32.56V28.4ZM68.36 44.048H69.928V51.6H68.36V44.048ZM65.448 31.568H72.84V33.52H65.448V31.568ZM72.2 31.568H74.216V54.128C74.216 55.248 73.992 55.856 73.256 56.208C72.488 56.528 71.368 56.592 69.512 56.592C69.416 56.048 69.128 55.152 68.84 54.608C70.152 54.64 71.336 54.64 71.688 54.64C72.072 54.64 72.2 54.512 72.2 54.128V31.568ZM64.456 31.568H66.44V43.184C66.44 47.312 66.088 52.944 63.784 56.56C63.432 56.208 62.568 55.696 62.088 55.472C64.264 51.984 64.456 47.056 64.456 43.184V31.568ZM62.12 41.744C65.512 41.456 70.664 40.912 75.688 40.368L75.72 42.32C70.888 42.832 65.896 43.408 62.376 43.792L62.12 41.744ZM67.592 35.408L69.096 34.8C69.96 36.112 70.696 37.904 70.952 39.12L69.32 39.792C69.096 38.576 68.392 36.784 67.592 35.408ZM68.456 27.152L71.016 27.664C70.376 29.36 69.64 31.28 69.096 32.496L67.112 32.016C67.592 30.64 68.168 28.56 68.456 27.152ZM100.264 38.064V42.896H117.832V38.064H100.264ZM98.216 36.432H120.008V44.528H98.216V36.432ZM103.464 32.976H114.632V34.672H103.464V32.976ZM107.848 36.944H109.896V43.632H107.848V36.944ZM108.84 29.072C105.992 31.984 100.648 35.248 95.336 37.232C95.048 36.688 94.504 35.856 94.056 35.344C99.496 33.488 104.904 30.224 107.56 27.12H109.832C113.448 30.608 119.016 33.552 123.976 35.024C123.464 35.536 122.92 36.4 122.568 37.008C117.864 35.376 112.104 32.208 108.84 29.072ZM102.216 39.024L103.944 38.448C104.776 39.568 105.544 41.072 105.864 42.096L104.008 42.768C103.752 41.744 103.016 40.176 102.216 39.024ZM113.736 38.32L115.784 38.96C115.048 40.336 114.248 41.808 113.608 42.768L111.912 42.192C112.52 41.104 113.352 39.408 113.736 38.32ZM100.104 46.064H118.184V56.528H115.752V47.76H102.472V56.56H100.104V46.064ZM101.512 49.904H116.808V51.664H101.512V49.904ZM101.512 53.84H116.808V55.568H101.512V53.84ZM133.448 30.32V33.616H148.648V30.32H133.448ZM131.048 28.368H151.176V35.6H131.048V28.368ZM132.072 43.184V45.456H149.992V43.184H132.072ZM132.072 47.152V49.456H149.992V47.152H132.072ZM132.072 39.248V41.488H149.992V39.248H132.072ZM129.672 37.456H152.456V51.216H129.672V37.456ZM135.784 51.184L138.024 52.656C135.464 54.224 131.304 55.76 128.008 56.592C127.592 56.08 126.792 55.312 126.216 54.832C129.576 54.032 133.768 52.496 135.784 51.184ZM143.592 52.848L145.672 51.28C149 52.272 153.288 53.84 155.784 54.896L153.704 56.624C151.336 55.504 146.984 53.84 143.592 52.848ZM30.632 92.152H34.84V93.112H30.632V92.152ZM30.472 96.472H34.984V97.432H30.472V96.472ZM30.472 98.616H34.984V99.576H30.472V98.616ZM29.64 94.264H35.832V95.272H29.64V94.264ZM36.056 94.728H44.056V95.864H36.056V94.728ZM35.592 104.648H44.36V105.784H35.592V104.648ZM36.328 99.448H43.816V100.568H36.328V99.448ZM30.984 100.76H35.112V105.256H30.984V104.312H33.976V101.704H30.984V100.76ZM30.376 100.76H31.48V106.04H30.376V100.76ZM39.368 91.608H40.568V95.272H39.368V91.608ZM39.368 95.112H40.568V105.24H39.368V95.112ZM47.208 92.552H58.392V93.736H48.392V106.328H47.208V92.552ZM57.768 92.552H58.968V104.856C58.968 105.496 58.84 105.848 58.424 106.056C58.024 106.264 57.4 106.296 56.456 106.296C56.424 105.976 56.248 105.432 56.072 105.112C56.728 105.144 57.336 105.128 57.512 105.128C57.704 105.128 57.768 105.048 57.768 104.84V92.552ZM45.64 98.344H60.392V99.512H45.64V98.344ZM50.68 92.952H51.8V106.12H50.68V92.952ZM54.2 92.952H55.336V106.12H54.2V92.952ZM66.504 92.904H76.168V93.912H66.504V92.904ZM66.056 102.248H76.376V103.272H66.056V102.248ZM70.712 91.56H71.88V95.544H70.712V91.56ZM68.872 97.656V98.68H73.784V97.656H68.872ZM68.872 99.48V100.504H73.784V99.48H68.872ZM68.872 95.88V96.872H73.784V95.88H68.872ZM67.768 95.048H74.936V101.336H67.768V95.048ZM72.168 104.088L73 103.48C74.264 104.168 75.656 105.032 76.488 105.688L75.384 106.296C74.648 105.656 73.368 104.776 72.168 104.088ZM69.224 103.528L70.344 103.912C69.352 104.856 67.8 105.752 66.488 106.312C66.296 106.088 65.848 105.656 65.592 105.464C66.92 105 68.36 104.28 69.224 103.528ZM61.832 95.48H66.552V96.616H61.832V95.48ZM63.704 91.768H64.84V102.2H63.704V91.768ZM61.528 102.536C62.824 102.056 64.776 101.224 66.664 100.424L66.936 101.544C65.24 102.328 63.4 103.128 61.992 103.736L61.528 102.536ZM84.376 91.576H85.576V93.544H84.376V91.576ZM78.2 92.856H91.8V95.704H90.664V93.912H79.304V95.704H78.2V92.856ZM83.832 94.424L84.6 95.208C83.544 95.64 82.104 96.008 80.888 96.232C80.84 96.024 80.696 95.688 80.584 95.48C81.72 95.192 83.064 94.792 83.832 94.424ZM80.152 95.24L81.24 95.48V99.704H80.152V95.24ZM80.152 99.144H88.808V96.12H85.464V95.24H89.912V100.04H80.152V99.144ZM80.536 97.192H84.312V98.056H80.536V97.192ZM85.704 97.192H89.368V98.056H85.704V97.192ZM82.36 99.56L83.432 99.88C82.328 101.624 80.344 103.048 78.408 103.928C78.264 103.688 77.912 103.192 77.688 102.968C79.544 102.248 81.4 101.032 82.36 99.56ZM81.672 101.08H90.552V102.056H80.68L81.672 101.08ZM90.168 101.08H91.352C91.352 101.08 91.336 101.4 91.32 101.56C91.144 104.328 90.952 105.416 90.568 105.832C90.28 106.12 89.992 106.216 89.544 106.248C89.144 106.28 88.376 106.264 87.576 106.232C87.56 105.912 87.432 105.464 87.24 105.176C88.024 105.24 88.76 105.256 89.016 105.24C89.304 105.256 89.448 105.24 89.576 105.112C89.848 104.824 90.008 103.832 90.168 101.24V101.08ZM80.36 102.696L81.32 103C81.08 104.136 80.632 105.368 79.752 106.088L78.872 105.544C79.656 104.904 80.12 103.752 80.36 102.696ZM82.264 102.968L83.208 102.856C83.544 103.752 83.8 104.904 83.8 105.64L82.808 105.784C82.824 105.048 82.6 103.88 82.264 102.968ZM84.52 102.888L85.4 102.648C85.896 103.4 86.344 104.424 86.472 105.08L85.56 105.368C85.432 104.696 85 103.672 84.52 102.888ZM86.744 102.808L87.544 102.424C88.104 102.936 88.696 103.656 88.952 104.184L88.104 104.6C87.88 104.088 87.288 103.32 86.744 102.808ZM96.632 97.032V99.448H105.416V97.032H96.632ZM95.608 96.216H106.504V100.264H95.608V96.216ZM98.232 94.488H103.816V95.336H98.232V94.488ZM100.424 96.472H101.448V99.816H100.424V96.472ZM100.92 92.536C99.496 93.992 96.824 95.624 94.168 96.616C94.024 96.344 93.752 95.928 93.528 95.672C96.248 94.744 98.952 93.112 100.28 91.56H101.416C103.224 93.304 106.008 94.776 108.488 95.512C108.232 95.768 107.96 96.2 107.784 96.504C105.432 95.688 102.552 94.104 100.92 92.536ZM97.608 97.512L98.472 97.224C98.888 97.784 99.272 98.536 99.432 99.048L98.504 99.384C98.376 98.872 98.008 98.088 97.608 97.512ZM103.368 97.16L104.392 97.48C104.024 98.168 103.624 98.904 103.304 99.384L102.456 99.096C102.76 98.552 103.176 97.704 103.368 97.16ZM96.552 101.032H105.592V106.264H104.376V101.88H97.736V106.28H96.552V101.032ZM97.256 102.952H104.904V103.832H97.256V102.952ZM97.256 104.92H104.904V105.784H97.256V104.92ZM113.224 93.16V94.808H120.824V93.16H113.224ZM112.024 92.184H122.088V95.8H112.024V92.184ZM112.536 99.592V100.728H121.496V99.592H112.536ZM112.536 101.576V102.728H121.496V101.576H112.536ZM112.536 97.624V98.744H121.496V97.624H112.536ZM111.336 96.728H122.728V103.608H111.336V96.728ZM114.392 103.592L115.512 104.328C114.232 105.112 112.152 105.88 110.504 106.296C110.296 106.04 109.896 105.656 109.608 105.416C111.288 105.016 113.384 104.248 114.392 103.592ZM118.296 104.424L119.336 103.64C121 104.136 123.144 104.92 124.392 105.448L123.352 106.312C122.168 105.752 119.992 104.92 118.296 104.424ZM126.536 92.744L127.064 91.928C128.168 92.216 129.656 92.76 130.424 93.16L129.896 94.088C129.144 93.672 127.656 93.096 126.536 92.744ZM125.736 96.12C126.888 95.848 128.584 95.368 130.248 94.904L130.376 95.848C128.92 96.312 127.416 96.808 126.2 97.176L125.736 96.12ZM132.6 92.744H139.032V93.656H131.896L132.6 92.744ZM138.712 92.744H138.904L139.112 92.696L139.912 92.936C139.464 93.768 138.872 94.664 138.296 95.224L137.336 94.888C137.848 94.392 138.392 93.592 138.712 92.92V92.744ZM134.584 93.064H135.688C135.352 95.336 134.328 96.584 131.064 97.24C130.952 96.984 130.696 96.584 130.488 96.376C133.448 95.88 134.312 94.888 134.584 93.064ZM135.64 93.352C135.96 94.712 136.744 96.024 140.296 96.536C140.072 96.776 139.8 97.208 139.672 97.512C135.88 96.856 135.08 95.128 134.664 93.448L135.64 93.352ZM132.856 91.56L133.944 91.736C133.4 92.904 132.584 94.088 131.336 95.048C131.128 94.824 130.712 94.568 130.424 94.44C131.624 93.624 132.44 92.52 132.856 91.56ZM129.048 99.928V101.016H137.112V99.928H129.048ZM129.048 101.8V102.92H137.112V101.8H129.048ZM129.048 98.056V99.144H137.112V98.056H129.048ZM127.88 97.256H138.312V103.72H127.88V97.256ZM134.328 104.536L135.304 103.928C137.064 104.472 139 105.176 140.152 105.72L138.824 106.328C137.816 105.8 136.072 105.112 134.328 104.536ZM130.568 103.896L131.656 104.392C130.36 105.16 128.328 105.896 126.728 106.344C126.536 106.104 126.12 105.64 125.848 105.432C127.496 105.08 129.416 104.52 130.568 103.896ZM144.328 91.624H145.448V106.264H144.328V91.624ZM141.752 96.936H148.072V98.072H141.752V96.936ZM144.152 97.528L144.872 97.848C144.312 100.024 143.176 102.792 142.104 104.248C141.976 103.896 141.688 103.384 141.496 103.064C142.52 101.832 143.64 99.4 144.152 97.528ZM145.416 98.28C145.864 98.76 147.496 100.936 147.864 101.464L147.064 102.424C146.664 101.56 145.352 99.464 144.824 98.776L145.416 98.28ZM141.864 92.808L142.744 92.584C143.192 93.704 143.56 95.16 143.672 96.12L142.728 96.376C142.648 95.416 142.28 93.928 141.864 92.808ZM147.032 92.52L148.088 92.792C147.672 94.008 147.176 95.512 146.744 96.408L145.976 96.168C146.328 95.208 146.808 93.608 147.032 92.52ZM153.24 91.576H154.376V106.28H153.24V91.576ZM148.04 101.752L156.264 100.28L156.456 101.384L148.232 102.872L148.04 101.752ZM149.24 93.528L149.864 92.712C150.792 93.256 151.896 94.072 152.424 94.664L151.784 95.592C151.272 94.968 150.168 94.104 149.24 93.528ZM148.424 97.56L148.984 96.712C149.944 97.208 151.128 97.96 151.704 98.536L151.096 99.48C150.536 98.904 149.384 98.088 148.424 97.56ZM159.512 106.712L159.144 105.88C160.456 105.336 161.176 104.52 161.176 103.32L160.872 101.96L161.736 103.176C161.512 103.464 161.192 103.544 160.888 103.544C160.232 103.544 159.688 103.16 159.688 102.392C159.688 101.64 160.264 101.24 160.904 101.24C161.8 101.24 162.28 101.976 162.28 103.096C162.28 104.824 161.192 106.136 159.512 106.712ZM175.32 95.576H180.024V96.664H175.32V95.576ZM174.744 92.424H175.88V104.376L174.744 104.616V92.424ZM173.624 104.248C175.096 103.88 177.432 103.224 179.688 102.584L179.832 103.72C177.8 104.344 175.608 105 174.024 105.464L173.624 104.248ZM177.672 100.984L178.632 100.504C179.72 101.88 180.856 103.72 181.304 104.92L180.248 105.48C179.832 104.264 178.712 102.376 177.672 100.984ZM175.288 92.424H180.696V99.752H175.288V98.632H179.576V93.544H175.288V92.424ZM186.504 92.44H187.736V102.2C187.736 102.888 187.608 103.304 187.112 103.528C186.648 103.768 185.88 103.784 184.76 103.784C184.728 103.416 184.536 102.824 184.328 102.472C185.192 102.504 185.96 102.488 186.216 102.488C186.44 102.488 186.504 102.408 186.504 102.184V92.44ZM181.912 92.44H187.176V93.64H183.128V106.296H181.912V92.44ZM200.936 93.064H202.184V104.568C202.184 105.432 201.976 105.848 201.352 106.04C200.712 106.248 199.592 106.264 198.008 106.264C197.928 105.912 197.688 105.32 197.496 104.968C198.792 105.032 200.088 105.016 200.472 105C200.824 104.984 200.936 104.872 200.936 104.536V93.064ZM191.528 96.264H192.696V103.512H191.528V96.264ZM192.024 96.264H198.088V102.232H192.024V101.08H196.888V97.4H192.024V96.264ZM189.88 92.696H204.152V93.912H189.88V92.696ZM207.72 97.56H211.704V98.68H207.72V97.56ZM211.224 97.56H212.392C212.392 97.56 212.392 97.912 212.392 98.072C212.312 101.688 212.216 103.032 211.88 103.48C211.624 103.768 211.368 103.88 210.92 103.928C210.504 103.976 209.784 103.96 209 103.928C208.968 103.576 208.84 103.112 208.664 102.808C209.384 102.872 210.088 102.872 210.36 102.872C210.584 102.872 210.744 102.856 210.856 102.712C211.096 102.424 211.176 101.224 211.224 97.768V97.56ZM215.736 92.376L216.456 91.624C217.448 92.136 218.712 92.904 219.336 93.464L218.584 94.28C217.976 93.72 216.744 92.904 215.736 92.376ZM218.024 96.712L219.224 97C217.864 101.176 215.48 104.264 212.2 106.2C212.024 105.96 211.576 105.464 211.32 105.224C214.568 103.496 216.824 100.568 218.024 96.712ZM207.816 94.28H220.2V95.464H207.816V94.28ZM207.048 94.28H208.296V98.792C208.296 101.064 208.04 104.296 206.584 106.392C206.376 106.152 205.864 105.736 205.576 105.592C206.904 103.624 207.048 100.872 207.048 98.776V94.28ZM213.688 91.592H214.936C214.904 98.952 216.472 104.952 218.552 104.952C219 104.952 219.208 104.12 219.304 101.992C219.576 102.264 220.024 102.536 220.344 102.648C220.12 105.384 219.672 106.168 218.456 106.168C215.192 106.168 213.752 99.256 213.688 91.592ZM224.36 100.088H235.256V101.144H224.36V100.088ZM222.296 94.312H232.76V95.416H222.296V94.312ZM226.808 97.192H234.136V98.264H226.808V97.192ZM234.744 100.088H235.944C235.944 100.088 235.928 100.44 235.896 100.616C235.608 103.992 235.304 105.32 234.792 105.848C234.488 106.152 234.184 106.264 233.704 106.296C233.304 106.328 232.504 106.312 231.672 106.28C231.656 105.944 231.528 105.48 231.336 105.16C232.136 105.256 232.904 105.256 233.208 105.256C233.512 105.256 233.672 105.224 233.816 105.096C234.184 104.728 234.488 103.464 234.744 100.28V100.088ZM231.192 102.008L232.04 101.688C232.552 102.344 233.048 103.24 233.256 103.816L232.376 104.184C232.168 103.608 231.672 102.68 231.192 102.008ZM224.28 92.04L225.32 91.608C225.944 92.248 226.648 93.16 226.968 93.768L225.848 94.28C225.576 93.656 224.904 92.712 224.28 92.04ZM226.456 102.408L227.432 102.28C227.752 103.288 227.928 104.616 227.928 105.48L226.872 105.624C226.904 104.76 226.728 103.448 226.456 102.408ZM228.808 102.264L229.752 102.04C230.168 102.92 230.568 104.056 230.696 104.808L229.704 105.08C229.592 104.312 229.208 103.144 228.808 102.264ZM224.408 102.04L225.416 102.376C225.048 103.704 224.488 105.224 223.512 106.2L222.584 105.544C223.48 104.696 224.088 103.272 224.408 102.04ZM229.128 91.56L230.344 91.864C228.888 96.344 226.376 100.568 222.136 103.08C221.992 102.792 221.688 102.312 221.48 102.056C225.448 99.8 227.912 95.704 229.128 91.56ZM232.488 94.312H233.624C233.4 95.416 233.112 96.744 232.872 97.608L231.816 97.464C232.04 96.616 232.312 95.336 232.488 94.312ZM233.688 97.192H234.824C234.6 98.296 234.328 99.64 234.104 100.504L233.016 100.376C233.256 99.512 233.528 98.216 233.688 97.192ZM33.864 125.576C34.8347 125.576 35.6453 125.667 36.296 125.848C36.9573 126.029 37.4533 126.333 37.784 126.76C38.1253 127.176 38.296 127.731 38.296 128.424C38.296 128.872 38.216 129.272 38.056 129.624C37.896 129.965 37.6613 130.253 37.352 130.488C37.0533 130.712 36.68 130.861 36.232 130.936V131.016C36.6907 131.091 37.1013 131.229 37.464 131.432C37.8267 131.624 38.1147 131.907 38.328 132.28C38.5413 132.653 38.648 133.139 38.648 133.736C38.648 134.429 38.4827 135.021 38.152 135.512C37.832 135.992 37.368 136.36 36.76 136.616C36.1627 136.872 35.448 137 34.616 137H30.52V125.576H33.864ZM34.152 130.344C35.048 130.344 35.6613 130.2 35.992 129.912C36.3333 129.624 36.504 129.197 36.504 128.632C36.504 128.056 36.3013 127.645 35.896 127.4C35.4907 127.155 34.8453 127.032 33.96 127.032H32.248V130.344H34.152ZM32.248 131.752V135.56H34.344C35.272 135.56 35.9173 135.379 36.28 135.016C36.6427 134.653 36.824 134.173 36.824 133.576C36.824 133.213 36.744 132.893 36.584 132.616C36.424 132.339 36.152 132.125 35.768 131.976C35.3947 131.827 34.8827 131.752 34.232 131.752H32.248ZM44.22 128.216C44.9773 128.216 45.628 128.376 46.172 128.696C46.716 129.005 47.132 129.453 47.42 130.04C47.7187 130.627 47.868 131.32 47.868 132.12V133.048H42.076C42.0973 133.933 42.3267 134.611 42.764 135.08C43.212 135.549 43.836 135.784 44.636 135.784C45.1907 135.784 45.6813 135.736 46.108 135.64C46.5453 135.533 46.9933 135.379 47.452 135.176V136.584C47.0253 136.776 46.588 136.92 46.14 137.016C45.7027 137.112 45.18 137.16 44.572 137.16C43.74 137.16 43.004 136.995 42.364 136.664C41.724 136.333 41.2227 135.843 40.86 135.192C40.508 134.531 40.332 133.72 40.332 132.76C40.332 131.789 40.492 130.968 40.812 130.296C41.1427 129.624 41.596 129.112 42.172 128.76C42.7587 128.397 43.4413 128.216 44.22 128.216ZM44.22 129.528C43.612 129.528 43.1213 129.725 42.748 130.12C42.3853 130.515 42.172 131.075 42.108 131.8H46.172C46.172 131.352 46.1027 130.957 45.964 130.616C45.8253 130.275 45.612 130.008 45.324 129.816C45.036 129.624 44.668 129.528 44.22 129.528ZM53.3283 128.216C54.4163 128.216 55.2269 128.456 55.7603 128.936C56.2936 129.405 56.5603 130.147 56.5603 131.16V137H55.3603L55.0243 135.8H54.9603C54.7149 136.109 54.4589 136.365 54.1923 136.568C53.9363 136.771 53.6376 136.92 53.2963 137.016C52.9656 137.112 52.5603 137.16 52.0803 137.16C51.5683 137.16 51.1043 137.069 50.6883 136.888C50.2829 136.696 49.9629 136.408 49.7283 136.024C49.4936 135.629 49.3763 135.139 49.3763 134.552C49.3763 133.677 49.7069 133.011 50.3683 132.552C51.0403 132.093 52.0589 131.843 53.4243 131.8L54.8963 131.752V131.272C54.8963 130.632 54.7523 130.184 54.4643 129.928C54.1763 129.672 53.7709 129.544 53.2483 129.544C52.8003 129.544 52.3736 129.608 51.9683 129.736C51.5629 129.864 51.1789 130.019 50.8163 130.2L50.2723 128.968C50.6776 128.755 51.1416 128.579 51.6643 128.44C52.1976 128.291 52.7523 128.216 53.3283 128.216ZM53.7283 132.888C52.7469 132.931 52.0643 133.096 51.6803 133.384C51.3069 133.661 51.1203 134.056 51.1203 134.568C51.1203 135.016 51.2536 135.341 51.5203 135.544C51.7976 135.747 52.1443 135.848 52.5603 135.848C53.2323 135.848 53.7869 135.661 54.2243 135.288C54.6616 134.915 54.8803 134.355 54.8803 133.608V132.856L53.7283 132.888ZM66.5958 128.376V137H65.2358L64.9958 135.864H64.9158C64.7344 136.163 64.4998 136.408 64.2118 136.6C63.9238 136.792 63.6091 136.931 63.2678 137.016C62.9264 137.112 62.5744 137.16 62.2118 137.16C61.5398 137.16 60.9691 137.053 60.4998 136.84C60.0411 136.616 59.6891 136.275 59.4438 135.816C59.2091 135.347 59.0918 134.749 59.0918 134.024V128.376H60.8038V133.768C60.8038 134.44 60.9424 134.941 61.2198 135.272C61.5078 135.603 61.9504 135.768 62.5477 135.768C63.1451 135.768 63.6144 135.651 63.9558 135.416C64.2971 135.181 64.5371 134.84 64.6758 134.392C64.8251 133.933 64.8998 133.384 64.8998 132.744V128.376H66.5958ZM72.3539 135.784C72.5779 135.784 72.8072 135.763 73.0419 135.72C73.2765 135.677 73.4792 135.629 73.6499 135.576V136.856C73.4685 136.941 73.2232 137.011 72.9139 137.064C72.6045 137.128 72.2952 137.16 71.9859 137.16C71.5165 137.16 71.0845 137.08 70.6899 136.92C70.3059 136.76 69.9965 136.483 69.7619 136.088C69.5272 135.693 69.4099 135.144 69.4099 134.44V129.672H68.2099V128.904L69.4739 128.264L70.0659 126.44H71.1059V128.376H73.5699V129.672H71.1059V134.408C71.1059 134.877 71.2179 135.224 71.4419 135.448C71.6765 135.672 71.9805 135.784 72.3539 135.784ZM77.0709 128.376V137H75.3749V128.376H77.0709ZM76.2389 125.096C76.4949 125.096 76.7189 125.171 76.9109 125.32C77.1029 125.469 77.1989 125.72 77.1989 126.072C77.1989 126.413 77.1029 126.664 76.9109 126.824C76.7189 126.973 76.4949 127.048 76.2389 127.048C75.9615 127.048 75.7269 126.973 75.5349 126.824C75.3535 126.664 75.2629 126.413 75.2629 126.072C75.2629 125.72 75.3535 125.469 75.5349 125.32C75.7269 125.171 75.9615 125.096 76.2389 125.096ZM85.3023 137.176C85.3023 136.973 85.3076 136.749 85.3183 136.504C85.3396 136.259 85.3663 136.04 85.3983 135.848H85.3023C85.0569 136.211 84.7209 136.52 84.2943 136.776C83.8783 137.032 83.3343 137.16 82.6623 137.16C81.6489 137.16 80.8223 136.787 80.1823 136.04C79.5529 135.293 79.2383 134.179 79.2383 132.696C79.2383 131.715 79.3823 130.893 79.6703 130.232C79.9689 129.56 80.3796 129.059 80.9023 128.728C81.4249 128.387 82.0276 128.216 82.7103 128.216C83.3823 128.216 83.9263 128.344 84.3423 128.6C84.7583 128.856 85.0943 129.165 85.3503 129.528H85.4143L85.6223 128.376H86.9983V140.84H85.3023V137.176ZM83.1102 135.784C83.6543 135.784 84.0863 135.683 84.4063 135.48C84.7369 135.277 84.9769 134.973 85.1263 134.568C85.2756 134.152 85.3556 133.635 85.3663 133.016V132.728C85.3663 131.704 85.2009 130.931 84.8703 130.408C84.5396 129.875 83.9423 129.608 83.0783 129.608C82.3743 129.608 81.8463 129.891 81.4943 130.456C81.1529 131.011 80.9823 131.773 80.9823 132.744C80.9823 133.715 81.1529 134.467 81.4943 135C81.8463 135.523 82.3849 135.784 83.1102 135.784ZM97.0801 128.376V137H95.7201L95.4801 135.864H95.4001C95.2188 136.163 94.9841 136.408 94.6961 136.6C94.4081 136.792 94.0935 136.931 93.7521 137.016C93.4108 137.112 93.0588 137.16 92.6961 137.16C92.0241 137.16 91.4535 137.053 90.9841 136.84C90.5255 136.616 90.1735 136.275 89.9281 135.816C89.6935 135.347 89.5761 134.749 89.5761 134.024V128.376H91.2881V133.768C91.2881 134.44 91.4268 134.941 91.7041 135.272C91.9921 135.603 92.4348 135.768 93.0321 135.768C93.6295 135.768 94.0988 135.651 94.4401 135.416C94.7815 135.181 95.0215 134.84 95.1601 134.392C95.3095 133.933 95.3841 133.384 95.3841 132.744V128.376H97.0801ZM103.126 128.216C103.884 128.216 104.534 128.376 105.078 128.696C105.622 129.005 106.038 129.453 106.326 130.04C106.625 130.627 106.774 131.32 106.774 132.12V133.048H100.982C101.004 133.933 101.233 134.611 101.67 135.08C102.118 135.549 102.742 135.784 103.542 135.784C104.097 135.784 104.588 135.736 105.014 135.64C105.452 135.533 105.9 135.379 106.358 135.176V136.584C105.932 136.776 105.494 136.92 105.046 137.016C104.609 137.112 104.086 137.16 103.478 137.16C102.646 137.16 101.91 136.995 101.27 136.664C100.63 136.333 100.129 135.843 99.7663 135.192C99.4143 134.531 99.2383 133.72 99.2383 132.76C99.2383 131.789 99.3983 130.968 99.7183 130.296C100.049 129.624 100.502 129.112 101.078 128.76C101.665 128.397 102.348 128.216 103.126 128.216ZM103.126 129.528C102.518 129.528 102.028 129.725 101.654 130.12C101.292 130.515 101.078 131.075 101.014 131.8H105.078C105.078 131.352 105.009 130.957 104.87 130.616C104.732 130.275 104.518 130.008 104.23 129.816C103.942 129.624 103.574 129.528 103.126 129.528ZM108.267 130.104H122.907V131.416H108.267V130.104ZM132.699 124.2H136.267V125.256H132.699V124.2ZM131.323 130.568H137.211V131.64H131.323V130.568ZM135.739 124.2H136.843V127.896C136.843 128.2 136.843 128.376 136.907 128.424C136.955 128.488 137.051 128.504 137.163 128.504C137.275 128.504 137.467 128.504 137.611 128.504C137.739 128.504 137.883 128.488 137.947 128.44C138.011 128.392 138.075 128.296 138.107 128.104C138.139 127.88 138.155 127.416 138.171 126.792C138.395 126.984 138.779 127.176 139.067 127.272C139.051 127.864 139.003 128.536 138.907 128.776C138.811 129.032 138.651 129.208 138.443 129.304C138.267 129.4 137.963 129.448 137.707 129.448C137.515 129.448 137.083 129.448 136.907 129.448C136.603 129.448 136.251 129.368 136.043 129.16C135.819 128.968 135.739 128.712 135.739 127.832V124.2ZM137.003 130.568H137.211L137.419 130.52L138.187 130.792C137.131 134.872 134.411 137.208 131.195 138.312C131.067 138.008 130.763 137.56 130.539 137.304C133.499 136.424 136.107 134.2 137.003 130.76V130.568ZM132.907 131.608C133.915 134.36 136.075 136.488 139.163 137.288C138.907 137.528 138.571 137.992 138.411 138.28C135.227 137.32 133.051 135 131.915 131.864L132.907 131.608ZM132.187 124.2H133.259V126.312C133.259 127.544 133.003 129.112 131.691 130.136C131.515 129.928 131.083 129.56 130.843 129.432C132.01 128.52 132.187 127.304 132.187 126.28V124.2ZM127.243 132.024H128.027V135.8H127.243V132.024ZM125.787 125.784H129.483V126.76H125.787V125.784ZM129.163 125.784H130.171V137.064C130.171 137.624 130.059 137.928 129.691 138.104C129.307 138.264 128.747 138.296 127.819 138.296C127.771 138.024 127.627 137.576 127.483 137.304C128.139 137.32 128.731 137.32 128.907 137.32C129.099 137.32 129.163 137.256 129.163 137.064V125.784ZM125.291 125.784H126.283V131.592C126.283 133.656 126.107 136.472 124.955 138.28C124.779 138.104 124.347 137.848 124.107 137.736C125.195 135.992 125.291 133.528 125.291 131.592V125.784ZM124.123 130.872C125.819 130.728 128.395 130.456 130.907 130.184L130.923 131.16C128.507 131.416 126.011 131.704 124.251 131.896L124.123 130.872ZM126.859 127.704L127.611 127.4C128.043 128.056 128.411 128.952 128.539 129.56L127.723 129.896C127.611 129.288 127.259 128.392 126.859 127.704ZM127.291 123.576L128.571 123.832C128.251 124.68 127.883 125.64 127.611 126.248L126.619 126.008C126.859 125.32 127.147 124.28 127.291 123.576ZM143.195 129.032V131.448H151.979V129.032H143.195ZM142.171 128.216H153.067V132.264H142.171V128.216ZM144.795 126.488H150.379V127.336H144.795V126.488ZM146.987 128.472H148.01V131.816H146.987V128.472ZM147.483 124.536C146.059 125.992 143.387 127.624 140.731 128.616C140.587 128.344 140.315 127.928 140.09 127.672C142.811 126.744 145.515 125.112 146.843 123.56H147.979C149.787 125.304 152.571 126.776 155.051 127.512C154.795 127.768 154.523 128.2 154.347 128.504C151.995 127.688 149.115 126.104 147.483 124.536ZM144.171 129.512L145.035 129.224C145.451 129.784 145.835 130.536 145.995 131.048L145.067 131.384C144.939 130.872 144.571 130.088 144.171 129.512ZM149.931 129.16L150.955 129.48C150.587 130.168 150.187 130.904 149.867 131.384L149.019 131.096C149.323 130.552 149.739 129.704 149.931 129.16ZM143.115 133.032H152.155V138.264H150.939V133.88H144.299V138.28H143.115V133.032ZM143.819 134.952H151.467V135.832H143.819V134.952ZM143.819 136.92H151.467V137.784H143.819V136.92ZM159.786 125.16V126.808H167.387V125.16H159.786ZM158.587 124.184H168.651V127.8H158.587V124.184ZM159.099 131.592V132.728H168.059V131.592H159.099ZM159.099 133.576V134.728H168.059V133.576H159.099ZM159.099 129.624V130.744H168.059V129.624H159.099ZM157.899 128.728H169.291V135.608H157.899V128.728ZM160.955 135.592L162.075 136.328C160.795 137.112 158.715 137.88 157.067 138.296C156.859 138.04 156.459 137.656 156.171 137.416C157.851 137.016 159.947 136.248 160.955 135.592ZM164.859 136.424L165.899 135.64C167.563 136.136 169.707 136.92 170.955 137.448L169.915 138.312C168.731 137.752 166.555 136.92 164.859 136.424ZM174.075 138.712L173.707 137.88C175.019 137.336 175.739 136.52 175.739 135.32L175.435 133.96L176.299 135.176C176.075 135.464 175.755 135.544 175.451 135.544C174.795 135.544 174.251 135.16 174.251 134.392C174.251 133.64 174.827 133.24 175.467 133.24C176.363 133.24 176.843 133.976 176.843 135.096C176.843 136.824 175.755 138.136 174.075 138.712ZM188.443 129.976H192.987V131.112H188.443V129.976ZM190.523 126.872H195.659V128.024H190.523V126.872ZM196.123 127.592C197.179 131.592 199.419 134.856 202.987 136.2C202.715 136.44 202.331 136.92 202.155 137.24C198.491 135.672 196.283 132.264 195.099 127.816L196.123 127.592ZM201.323 128.008L202.427 128.792C201.083 130.056 199.307 131.544 197.915 132.472L197.067 131.784C198.427 130.824 200.267 129.224 201.323 128.008ZM194.955 126.872H196.235V136.744C196.235 137.48 196.059 137.848 195.547 138.056C195.019 138.248 194.155 138.264 192.827 138.264C192.763 137.928 192.587 137.4 192.395 137.048C193.371 137.096 194.315 137.096 194.587 137.08C194.875 137.064 194.955 136.984 194.955 136.728V126.872ZM191.995 124.568L192.587 123.592C194.555 124.04 197.163 124.936 198.523 125.656L197.915 126.776C196.587 126.04 194.011 125.096 191.995 124.568ZM192.539 129.976H192.779L193.003 129.928L193.803 130.264C192.971 133.56 191.115 135.96 189.067 137.288C188.875 137.016 188.395 136.568 188.107 136.36C190.123 135.208 191.851 133 192.539 130.216V129.976ZM208.939 123.576L210.219 123.864C209.099 127.24 207.307 130.216 205.163 132.12C204.939 131.896 204.395 131.464 204.09 131.256C206.267 129.512 207.947 126.68 208.939 123.576ZM212.907 130.28C213.963 133.32 216.203 136.024 219.019 137.208C218.747 137.448 218.347 137.944 218.155 138.264C215.227 136.872 213.003 134.024 211.771 130.616L212.907 130.28ZM208.427 126.168H213.595V127.368H207.851L208.427 126.168ZM213.163 126.168H213.403L213.643 126.104L214.491 126.488C213.019 132.568 209.387 136.424 205.195 138.328C205.019 138.024 204.571 137.496 204.267 137.288C208.411 135.528 211.883 131.944 213.163 126.44V126.168ZM229.323 124.36H233.771V125.464H229.323V124.36ZM229.323 128.04H233.771V129.112H229.323V128.04ZM229.307 131.768H233.803V132.856H229.307V131.768ZM233.227 124.36H234.395V136.76C234.395 137.448 234.235 137.816 233.771 138.008C233.323 138.2 232.571 138.232 231.387 138.232C231.355 137.896 231.179 137.368 231.019 137.064C231.867 137.08 232.667 137.08 232.907 137.064C233.147 137.064 233.227 136.984 233.227 136.744V124.36ZM228.827 124.36H229.963V130.168C229.963 132.632 229.771 136.088 228.331 138.36C228.123 138.136 227.642 137.784 227.371 137.672C228.715 135.528 228.827 132.488 228.827 130.168V124.36ZM220.379 125.704H228.043V126.76H220.379V125.704ZM222.267 128.184H226.315V129.16H222.267V128.184ZM222.267 130.728H226.331V131.688H222.267V130.728ZM220.171 133.304H228.043V134.376H220.171V133.304ZM221.739 123.752H222.843V133.736H221.739V123.752ZM225.755 123.752H226.859V133.736H225.755V123.752ZM222.395 134.728L223.547 135.048C222.955 136.264 222.027 137.496 221.163 138.296C220.939 138.104 220.475 137.752 220.187 137.592C221.083 136.872 221.914 135.8 222.395 134.728ZM224.699 135.224L225.627 134.728C226.251 135.448 227.003 136.44 227.323 137.096L226.347 137.672C226.043 137.032 225.323 135.976 224.699 135.224ZM243.355 127.304H249.323V128.312H243.355V127.304ZM240.859 136.888C242.331 136.632 244.651 136.168 246.891 135.72L246.971 136.776C244.955 137.24 242.811 137.704 241.259 138.056L240.859 136.888ZM242.667 124.28H243.835V136.984H242.667V124.28ZM243.355 124.28H249.883V131.384H243.355V130.328H248.715V125.336H243.355V124.28ZM246.443 130.696C247.131 133.688 248.587 136.184 250.971 137.24C250.699 137.48 250.347 137.928 250.171 138.232C247.675 136.968 246.187 134.264 245.451 130.888L246.443 130.696ZM249.627 131.752L250.571 132.44C249.675 133.272 248.539 134.168 247.643 134.76L246.891 134.152C247.755 133.528 248.955 132.52 249.627 131.752ZM236.859 124.264H240.955V125.352H237.995V138.296H236.859V124.264ZM240.603 124.264H240.827L241.003 124.216L241.819 124.712C241.307 126.04 240.635 127.688 240.043 128.952C241.339 130.28 241.643 131.416 241.643 132.408C241.643 133.288 241.435 133.944 240.955 134.28C240.715 134.44 240.411 134.536 240.075 134.568C239.707 134.616 239.259 134.616 238.859 134.584C238.843 134.296 238.747 133.816 238.555 133.496C238.971 133.544 239.323 133.544 239.611 133.528C239.819 133.512 240.011 133.464 240.171 133.368C240.443 133.192 240.539 132.776 240.523 132.28C240.523 131.4 240.187 130.344 238.939 129.096C239.579 127.64 240.235 125.704 240.603 124.6V124.264ZM254.667 133.112C256.011 133.112 257.099 134.2 257.099 135.544C257.099 136.888 256.011 137.976 254.667 137.976C253.323 137.976 252.219 136.888 252.219 135.544C252.219 134.2 253.323 133.112 254.667 133.112ZM254.667 137.16C255.562 137.16 256.283 136.44 256.283 135.544C256.283 134.648 255.562 133.928 254.667 133.928C253.771 133.928 253.035 134.648 253.035 135.544C253.035 136.44 253.771 137.16 254.667 137.16Z" fill="white"/>
</g>
</g>
<defs>
<filter id="filter0_b_5882_14960" x="-5" y="-5" width="360" height="215.333" filterUnits="userSpaceOnUse" color-interpolation-filters="sRGB">
<feFlood flood-opacity="0" result="BackgroundImageFix"/>
<feGaussianBlur in="BackgroundImageFix" stdDeviation="2.5"/>
<feComposite in2="SourceAlpha" operator="in" result="effect1_backgroundBlur_5882_14960"/>
<feBlend mode="normal" in="SourceGraphic" in2="effect1_backgroundBlur_5882_14960" result="shape"/>
</filter>
<filter id="filter1_d_5882_14960" x="-41.047" y="-54.7294" width="459.459" height="314.792" filterUnits="userSpaceOnUse" color-interpolation-filters="sRGB">
<feFlood flood-opacity="0" result="BackgroundImageFix"/>
<feColorMatrix in="SourceAlpha" type="matrix" values="0 0 0 0 0 0 0 0 0 0 0 0 0 0 0 0 0 0 127 0" result="hardAlpha"/>
<feOffset dx="13.6823"/>
<feGaussianBlur stdDeviation="27.3647"/>
<feComposite in2="hardAlpha" operator="out"/>
<feColorMatrix type="matrix" values="0 0 0 0 0 0 0 0 0 0 0 0 0 0 0 0 0 0 0.1 0"/>
<feBlend mode="normal" in2="BackgroundImageFix" result="effect1_dropShadow_5882_14960"/>
<feBlend mode="normal" in="SourceGraphic" in2="effect1_dropShadow_5882_14960" result="shape"/>
</filter>
<linearGradient id="paint0_linear_5882_14960" x1="429.318" y1="64.0666" x2="242.314" y2="384.92" gradientUnits="userSpaceOnUse">
<stop stop-color="#E7E3E3"/>
<stop offset="0.16" stop-color="white" stop-opacity="0.925"/>
<stop offset="0.445" stop-color="#DAD5D5" stop-opacity="0.85"/>
<stop offset="0.965" stop-color="#9B9B9B"/>
</linearGradient>
<clipPath id="clip0_5882_14960">
<rect width="350" height="205.333" rx="15" fill="white"/>
</clipPath>
</defs>
</svg>
