<svg width="103" height="93" viewBox="0 0 103 93" fill="none" xmlns="http://www.w3.org/2000/svg">
<path d="M97 46.5C97 72.1812 76.1812 93 50.5 93C24.8188 93 4 72.1812 4 46.5C4 20.8188 24.8188 0 50.5 0C76.1812 0 97 20.8188 97 46.5Z" fill="#674538"/>
<path fill-rule="evenodd" clip-rule="evenodd" d="M21.9894 74.9821C29.2729 82.2469 39.3237 86.7384 50.4236 86.7384H50.4493V46.5223L21.9894 74.9821Z" fill="#CA6E47"/>
<path fill-rule="evenodd" clip-rule="evenodd" d="M22.0045 74.9971C14.7235 67.7163 10.2178 57.66 10.2109 46.5513H50.4504L22.0045 74.9971Z" fill="#42656B"/>
<path fill-rule="evenodd" clip-rule="evenodd" d="M50.4459 46.4428L22.0023 17.9992C14.7225 25.2798 10.2178 35.3352 10.2109 46.4428H50.4459Z" fill="#EAB981"/>
<path fill-rule="evenodd" clip-rule="evenodd" d="M50.4632 6.26172V46.4823L22.0011 18.0202C29.2848 10.7542 39.3366 6.26172 50.4375 6.26172H50.4632Z" fill="#42656B"/>
<path fill-rule="evenodd" clip-rule="evenodd" d="M50.577 46.5547L78.9693 74.947C71.6998 82.2156 61.6641 86.7176 50.577 86.7384V46.5547Z" fill="#42656B"/>
<path fill-rule="evenodd" clip-rule="evenodd" d="M90.6871 46.6021C90.6803 57.693 86.189 67.7348 78.9286 75.0128L50.5178 46.6021H90.6871Z" fill="#EAB981"/>
<path fill-rule="evenodd" clip-rule="evenodd" d="M50.5223 46.4585H90.6871C90.6803 35.3688 86.19 25.3278 78.9308 18.05L50.5223 46.4585Z" fill="#42656B"/>
<path fill-rule="evenodd" clip-rule="evenodd" d="M78.9715 18.0553C71.7018 10.7854 61.6653 6.28252 50.577 6.26177V46.4498L78.9715 18.0553Z" fill="#CA6E47"/>
<g filter="url(#filter0_d_5860_13665)">
<path d="M82.6973 60.8617L87.175 40.2754H91.2977L86.7108 60.8617H82.6973ZM80.0489 60.8617V60.0153H90.3967V60.8617H80.0489ZM78.8203 46.8554L80.7861 40.2754H97.55L96.649 46.8554H95.6934C95.6934 45.3264 95.5933 44.1524 95.3931 43.3333C95.2111 42.496 94.8379 41.9136 94.2737 41.5859C93.7276 41.2583 92.9176 41.0945 91.8437 41.0945H85.8098C84.7541 41.0945 83.6802 41.5586 82.5881 42.4869C81.496 43.4152 80.5586 44.8714 79.7759 46.8554H78.8203Z" fill="#963827"/>
</g>
<g filter="url(#filter1_d_5860_13665)">
<path d="M71.1212 61.2166L62.9303 43.4698H62.8211L63.3399 40.2754H66.4524L72.7593 53.5718H72.8685L71.6672 61.2166H71.1212ZM55.5586 60.8617V60.0426H62.0293V60.8617H55.5586ZM57.9339 60.8617L62.4116 40.2754H63.5037L59.026 60.8617H57.9339ZM59.4356 41.0945V40.2754H66.4524V41.0945H59.4356ZM71.3669 61.2166L75.435 40.2754H76.5271L71.9675 61.2166H71.3669ZM72.6774 41.0945V40.2754H78.6294V41.0945H72.6774Z" fill="#963827"/>
</g>
<g filter="url(#filter2_d_5860_13665)">
<path d="M46.966 60.8617L51.4437 40.2754H55.5664L50.9795 60.8617H46.966ZM45.1367 60.8617V60.0153H53.5733V60.8617H45.1367ZM49.2594 41.0945V40.2754H57.423V41.0945H49.2594Z" fill="#963827"/>
</g>
<g filter="url(#filter3_d_5860_13665)">
<path d="M33.6948 61.1616C32.5117 61.1616 31.4196 60.9432 30.4185 60.5064C29.4356 60.0513 28.5801 59.4325 27.852 58.6498C27.124 57.8671 26.5597 56.957 26.1593 55.9195C25.7588 54.882 25.5586 53.7626 25.5586 52.5613C25.5586 51.3417 25.7679 50.1313 26.1866 48.93C26.6052 47.7105 27.1877 46.5729 27.9339 45.5171C28.6984 44.4432 29.5721 43.4967 30.555 42.6777C31.5561 41.8586 32.6391 41.2124 33.804 40.7392C34.9871 40.2659 36.1976 40.0293 37.4353 40.0293C38.6184 40.0293 39.7014 40.2477 40.6843 40.6846C41.6672 41.1032 42.5227 41.6948 43.2508 42.4592C43.9971 43.2055 44.5704 44.0974 44.9709 45.1349C45.3713 46.1542 45.5715 47.2645 45.5715 48.4658C45.5715 49.7036 45.3531 50.9322 44.9162 52.1517C44.4976 53.3712 43.9151 54.5271 43.1689 55.6192C42.4226 56.6931 41.5489 57.6487 40.5478 58.486C39.5467 59.3232 38.4637 59.9785 37.2988 60.4518C36.1339 60.925 34.9325 61.1616 33.6948 61.1616ZM33.531 60.2879C34.4775 60.2879 35.3148 60.0513 36.0429 59.5781C36.7709 59.1048 37.3989 58.4678 37.9267 57.6669C38.4728 56.8478 38.9278 55.9377 39.2919 54.9366C39.6741 53.9173 39.9744 52.8616 40.1929 51.7695C40.4113 50.6774 40.566 49.6217 40.657 48.6024C40.7662 47.5831 40.8208 46.6548 40.8208 45.8175C40.8208 45.2714 40.7844 44.7163 40.7116 44.152C40.657 43.5696 40.5205 43.0326 40.3021 42.5412C40.0837 42.0497 39.7469 41.6584 39.2919 41.3671C38.855 41.0577 38.2635 40.903 37.5172 40.903C36.5889 40.903 35.7607 41.1396 35.0327 41.6129C34.3046 42.0861 33.6766 42.7323 33.1488 43.5514C32.6209 44.3522 32.1659 45.2623 31.7836 46.2816C31.4196 47.3009 31.1284 48.3657 30.9099 49.476C30.6915 50.5682 30.5277 51.6421 30.4185 52.6978C30.3275 53.7353 30.282 54.6909 30.282 55.5646C30.282 57.0025 30.5277 58.1492 31.0191 59.0047C31.5106 59.8602 32.3479 60.2879 33.531 60.2879Z" fill="#963827"/>
</g>
<g filter="url(#filter4_d_5860_13665)">
<path d="M10.0081 51.3603V50.6777H15.2503C16.8156 50.6777 18.0169 50.159 18.8542 49.1215C19.7097 48.084 20.1374 46.5004 20.1374 44.3708C20.1374 43.5881 20.0555 42.9602 19.8917 42.4869C19.7279 41.9955 19.4094 41.6405 18.9361 41.4221C18.4811 41.2037 17.7985 41.0945 16.8884 41.0945H8.45187V40.2754H17.216C19.6733 40.2754 21.5299 40.7213 22.7858 41.6132C24.0417 42.5051 24.6697 43.7246 24.6697 45.2718C24.6697 46.4913 24.2693 47.5652 23.4684 48.4935C22.6857 49.4036 21.539 50.1135 20.0282 50.6231C18.5175 51.1146 16.67 51.3603 14.4858 51.3603H10.0081ZM5.01172 60.8617V60.0153H13.4483V60.8617H5.01172ZM6.841 60.8617L11.3187 40.2754H15.4414L10.8545 60.8617H6.841Z" fill="#963827"/>
</g>
<g filter="url(#filter5_d_5860_13665)">
<path fill-rule="evenodd" clip-rule="evenodd" d="M80.0508 60.8641V60.0177H82.8833L86.9987 41.0969H85.8117C84.756 41.0969 83.6821 41.561 82.59 42.4893C81.4978 43.4176 80.5604 44.8738 79.7778 46.8578H78.8222L80.788 40.2778H97.5519L96.6509 46.8578H95.6953C95.6953 45.3288 95.5952 44.1548 95.3949 43.3357C95.2129 42.4984 94.8398 41.916 94.2755 41.5883C93.7295 41.2607 92.9195 41.0969 91.8456 41.0969H91.117L86.9012 60.0177H90.3985V60.8641H80.0508ZM79.482 61.4329V59.4489H82.4249L86.2928 41.6657H85.8117C84.9325 41.6657 83.9845 42.0505 82.9583 42.9227C81.9638 43.7681 81.0707 45.1303 80.3069 47.0665L80.1648 47.4266H78.0586L80.3643 39.709H98.2039L97.1471 47.4266H95.1265V46.8578C95.1265 45.3439 95.0264 44.2235 94.8424 43.4708L94.8407 43.4637L94.8391 43.4565C94.6798 42.7239 94.3761 42.3045 93.9899 42.0802L93.9864 42.0782L93.9829 42.0761C93.5668 41.8264 92.879 41.6657 91.8456 41.6657H91.573L87.6107 59.4489H90.9673V61.4329H79.482Z" fill="white"/>
</g>
<g filter="url(#filter6_d_5860_13665)">
<path fill-rule="evenodd" clip-rule="evenodd" d="M70.7031 61.6654L63.0452 45.0732L59.9124 59.4762H62.6006V61.4329H54.9922V59.4762H57.6561L61.53 41.6657H58.8692V39.709H67.0236V40.1497L72.5993 51.9046L74.5883 41.6657H72.111V39.709H79.2006V41.6657H76.8095L72.4282 61.7878H70.6793L70.7031 61.6654ZM71.1236 61.219H71.9699L76.3512 41.0969H78.6318V40.2778H72.6798V41.0969H75.2783L72.8544 53.5742H72.7617L66.4548 40.2778H59.438V41.0969H62.2358L58.1145 60.045H55.561V60.8641H62.0317V60.045H59.2066L62.8596 43.2501L62.8235 43.4722H62.9327L71.1236 61.219Z" fill="white"/>
</g>
<g filter="url(#filter7_d_5860_13665)">
<path fill-rule="evenodd" clip-rule="evenodd" d="M45.1391 60.8641V60.0177H47.1525L51.2679 41.0969H49.2618V40.2778H57.4254V41.0969H55.3863L51.1705 60.0177H53.5757V60.8641H45.1391ZM44.5703 61.4329V59.4489H46.6941L50.5621 41.6657H48.693V39.709H57.9942V41.6657H55.8423L51.88 59.4489H54.1445V61.4329H44.5703Z" fill="white"/>
</g>
<g filter="url(#filter8_d_5860_13665)">
<path fill-rule="evenodd" clip-rule="evenodd" d="M30.1876 61.0276L30.1819 61.0249C29.133 60.5393 28.217 59.877 27.438 59.0396C26.6586 58.2017 26.0565 57.229 25.631 56.1267C25.2034 55.0188 24.9922 53.8294 24.9922 52.5637C24.9922 51.2781 25.213 50.0049 25.6514 48.7464C26.0876 47.4761 26.6947 46.2906 27.4719 45.1912L27.4729 45.1897C28.2649 44.0772 29.1717 43.0944 30.1933 42.2431L30.1952 42.2415L30.1972 42.2398C31.2411 41.3857 32.3731 40.7099 33.5923 40.2146L33.5952 40.2134C34.8435 39.7141 36.1255 39.4629 37.4377 39.4629C38.6908 39.4629 39.8521 39.6943 40.9137 40.1654C41.9631 40.613 42.8802 41.2466 43.6604 42.0644C44.463 42.8685 45.0768 43.8265 45.5034 44.9311C45.9318 46.0223 46.1427 47.2034 46.1427 48.4682C46.1427 49.7732 45.9124 51.0655 45.4554 52.3425C45.0198 53.6102 44.4145 54.8104 43.6409 55.9425L43.6396 55.9443L43.6384 55.9462C42.8632 57.0616 41.9552 58.0548 40.9151 58.9247C39.8705 59.7984 38.7369 60.4848 37.5153 60.9811C36.2835 61.4816 35.0095 61.7328 33.6972 61.7328C32.4424 61.7328 31.272 61.5008 30.1934 61.0301L30.1876 61.0276ZM44.9733 45.1373C44.5728 44.0998 43.9995 43.2079 43.2532 42.4616C42.5251 41.6972 41.6696 41.1056 40.6867 40.687C39.7038 40.2501 38.6208 40.0317 37.4377 40.0317C36.2 40.0317 34.9895 40.2683 33.8064 40.7416C32.6415 41.2148 31.5585 41.861 30.5574 42.6801C29.5745 43.4991 28.7008 44.4456 27.9363 45.5196C27.1901 46.5753 26.6076 47.7129 26.189 48.9324C25.7703 50.1337 25.561 51.3441 25.561 52.5637C25.561 53.765 25.7612 54.8844 26.1617 55.9219C26.5621 56.9594 27.1264 57.8695 27.8544 58.6522C28.5825 59.4349 29.438 60.0537 30.4209 60.5088C31.422 60.9456 32.5141 61.164 33.6972 61.164C34.9349 61.164 36.1363 60.9274 37.3012 60.4542C38.4661 59.9809 39.5491 59.3256 40.5502 58.4884C41.5513 57.6511 42.425 56.6955 43.1713 55.6216C43.9175 54.5295 44.5 53.3736 44.9186 52.1541C45.3555 50.9346 45.5739 49.706 45.5739 48.4682C45.5739 47.2669 45.3737 46.1566 44.9733 45.1373ZM39.2943 41.3695C38.8574 41.0601 38.2659 40.9054 37.5196 40.9054C36.5913 40.9054 35.7631 41.142 35.0351 41.6153C34.307 42.0885 33.679 42.7347 33.1512 43.5538C32.6233 44.3546 32.1683 45.2647 31.786 46.284C31.422 47.3033 31.1308 48.3681 30.9123 49.4785C30.6939 50.5706 30.5301 51.6445 30.4209 52.7002C30.3299 53.7377 30.2844 54.6933 30.2844 55.567C30.2844 57.0049 30.5301 58.1516 31.0215 59.0071C31.513 59.8626 32.3503 60.2903 33.5334 60.2903C34.4799 60.2903 35.3172 60.0537 36.0453 59.5805C36.7733 59.1072 37.4013 58.4702 37.9291 57.6693C38.4752 56.8502 38.9302 55.9401 39.2943 54.939C39.6765 53.9197 39.9768 52.864 40.1953 51.7719C40.4137 50.6798 40.5684 49.6241 40.6594 48.6048C40.7686 47.5855 40.8232 46.6572 40.8232 45.8199C40.8232 45.2738 40.7868 44.7187 40.714 44.1544C40.6594 43.572 40.5229 43.035 40.3045 42.5436C40.0861 42.0521 39.7493 41.6608 39.2943 41.3695ZM30.9871 52.7543C30.8976 53.7766 30.8532 54.7139 30.8532 55.567C30.8532 56.948 31.0904 57.9851 31.5148 58.7238C31.8829 59.3647 32.506 59.7215 33.5334 59.7215C34.3802 59.7215 35.1077 59.5114 35.7353 59.1036C36.3911 58.6773 36.9649 58.0986 37.4542 57.3563L37.4559 57.3538C37.9748 56.5754 38.4099 55.7065 38.7597 54.7446L38.7607 54.7419L38.7617 54.7393C39.1329 53.7493 39.425 52.7231 39.6375 51.6603C39.8523 50.5866 40.0038 49.5513 40.0929 48.5542L40.0933 48.5492L40.0938 48.5442C40.2014 47.5407 40.2544 46.633 40.2544 45.8199C40.2544 45.2992 40.2197 44.7683 40.1499 44.2272L40.1486 44.2174L40.1477 44.2075C40.0983 43.6811 39.976 43.2049 39.7847 42.7746C39.6117 42.3854 39.3494 42.0801 38.9877 41.8486L38.9764 41.8414L38.9655 41.8337C38.656 41.6144 38.1932 41.4742 37.5196 41.4742C36.6934 41.4742 35.9744 41.6831 35.345 42.0922C34.6921 42.5166 34.119 43.102 33.6293 43.8619L33.6277 43.8643L33.6261 43.8668C33.1252 44.6267 32.6891 45.4965 32.3202 46.4796C31.9668 47.4698 31.6834 48.5059 31.4704 49.5882L31.4701 49.59C31.2553 50.6639 31.0944 51.7186 30.9871 52.7543Z" fill="white"/>
</g>
<g filter="url(#filter9_d_5860_13665)">
<path fill-rule="evenodd" clip-rule="evenodd" d="M11.1429 41.0969H8.45427V40.2778H17.2185C19.6757 40.2778 21.5323 40.7237 22.7882 41.6156C24.0441 42.5075 24.6721 43.727 24.6721 45.2742C24.6721 46.4937 24.2717 47.5676 23.4708 48.4959C22.6881 49.406 21.5414 50.1159 20.0306 50.6255C18.5199 51.117 16.6724 51.3627 14.4882 51.3627H12.9739L11.0455 60.0177H13.4507V60.8641H5.01412V60.0177H7.0275L11.1429 41.0969ZM6.56911 59.4489L10.4371 41.6657H7.88546V39.709H17.2185C19.729 39.709 21.7235 40.1619 23.1176 41.1519C24.5245 42.151 25.2409 43.5438 25.2409 45.2742C25.2409 46.6306 24.7911 47.836 23.902 48.8668C23.0344 49.8757 21.7891 50.6326 20.2125 51.1645L20.2095 51.1655L20.2066 51.1664C18.6222 51.6818 16.7114 51.9315 14.4882 51.9315H13.4299L11.755 59.4489H14.0195V61.4329H4.44531V59.4489H6.56911ZM15.2527 50.6801C16.818 50.6801 18.0193 50.1614 18.8566 49.1239C19.7121 48.0864 20.1398 46.5028 20.1398 44.3732C20.1398 43.5905 20.0579 42.9626 19.8941 42.4893C19.7303 41.9979 19.4118 41.6429 18.9385 41.4245C18.4835 41.2061 17.8009 41.0969 16.8908 41.0969H15.2613L13.126 50.6801H15.2527ZM13.8355 50.1113H15.2527C16.6795 50.1113 17.7041 49.6463 18.414 48.7667L18.4159 48.7643L18.4178 48.762C19.1525 47.871 19.571 46.4433 19.571 44.3732C19.571 43.6224 19.4914 43.0649 19.3566 42.6754L19.3555 42.6723L19.3545 42.6692C19.2407 42.3277 19.0318 42.094 18.7002 41.941L18.6963 41.9392L18.6924 41.9373C18.3532 41.7745 17.7735 41.6657 16.8908 41.6657H15.7173L13.8355 50.1113Z" fill="white"/>
</g>
<path d="M71.3789 32.2729L68.3074 25.6178H68.2664L68.4609 24.4199H69.6281L71.9932 29.4061H72.0342L71.5837 32.2729H71.3789ZM65.543 32.1398V31.8326H67.9695V32.1398H65.543ZM66.4337 32.1398L68.1128 24.4199H68.5224L66.8433 32.1398H66.4337ZM66.9968 24.7271V24.4199H69.6281V24.7271H66.9968ZM71.4711 32.2729L72.9966 24.4199H73.4062L71.6963 32.2729H71.4711ZM71.9625 24.7271V24.4199H74.1945V24.7271H71.9625Z" fill="white"/>
<path d="M61.3362 32.2527C60.8926 32.2527 60.483 32.1708 60.1076 32.007C59.739 31.8364 59.4182 31.6043 59.1452 31.3108C58.8722 31.0173 58.6606 30.676 58.5104 30.287C58.3602 29.8979 58.2852 29.4781 58.2852 29.0276C58.2852 28.5703 58.3637 28.1164 58.5206 27.6659C58.6776 27.2086 58.8961 26.782 59.1759 26.3861C59.4626 25.9834 59.7902 25.6284 60.1588 25.3213C60.5342 25.0141 60.9403 24.7718 61.3772 24.5943C61.8209 24.4169 62.2748 24.3281 62.7389 24.3281C63.1826 24.3281 63.5887 24.41 63.9573 24.5738C64.3259 24.7308 64.6467 24.9527 64.9197 25.2394C65.1996 25.5192 65.4146 25.8537 65.5648 26.2427C65.7149 26.625 65.79 27.0413 65.79 27.4918C65.79 27.956 65.7081 28.4167 65.5443 28.874C65.3873 29.3314 65.1689 29.7648 64.889 30.1743C64.6092 30.577 64.2815 30.9354 63.9061 31.2494C63.5307 31.5634 63.1246 31.8091 62.6877 31.9865C62.2509 32.164 61.8004 32.2527 61.3362 32.2527ZM61.2748 31.9251C61.6297 31.9251 61.9437 31.8364 62.2168 31.6589C62.4898 31.4814 62.7253 31.2425 62.9232 30.9422C63.128 30.6351 63.2986 30.2938 63.4351 29.9184C63.5785 29.5361 63.6911 29.1402 63.773 28.7307C63.8549 28.3212 63.9129 27.9253 63.9471 27.543C63.988 27.1608 64.0085 26.8127 64.0085 26.4987C64.0085 26.2939 63.9948 26.0857 63.9675 25.8741C63.9471 25.6557 63.8959 25.4544 63.814 25.2701C63.7321 25.0858 63.6058 24.939 63.4351 24.8298C63.2713 24.7138 63.0495 24.6558 62.7696 24.6558C62.4215 24.6558 62.111 24.7445 61.8379 24.922C61.5649 25.0994 61.3294 25.3417 61.1315 25.6489C60.9335 25.9492 60.7629 26.2905 60.6195 26.6727C60.483 27.055 60.3738 27.4543 60.2919 27.8707C60.21 28.2802 60.1486 28.6829 60.1076 29.0788C60.0735 29.4679 60.0564 29.8262 60.0564 30.1538C60.0564 30.6931 60.1486 31.1231 60.3329 31.4439C60.5172 31.7647 60.8311 31.9251 61.2748 31.9251Z" fill="white"/>
<path d="M52.4518 28.5768V28.3208H54.4176C55.0046 28.3208 55.4551 28.1263 55.7691 27.7372C56.0899 27.3481 56.2503 26.7543 56.2503 25.9557C56.2503 25.6622 56.2196 25.4267 56.1581 25.2492C56.0967 25.0649 55.9772 24.9318 55.7998 24.8499C55.6291 24.768 55.3732 24.7271 55.0319 24.7271H51.8682V24.4199H55.1547C56.0762 24.4199 56.7724 24.5872 57.2434 24.9216C57.7144 25.2561 57.9499 25.7134 57.9499 26.2936C57.9499 26.7509 57.7997 27.1536 57.4994 27.5017C57.2059 27.843 56.7759 28.1092 56.2093 28.3003C55.6428 28.4846 54.95 28.5768 54.1309 28.5768H52.4518ZM50.5781 32.1398V31.8224H53.7418V32.1398H50.5781ZM51.2641 32.1398L52.9432 24.4199H54.4892L52.7692 32.1398H51.2641Z" fill="white"/>
<path d="M46.6675 32.2524C45.8007 32.2524 45.1556 32.0783 44.7324 31.7302C44.3093 31.3821 44.0977 30.9385 44.0977 30.3992C44.0977 30.3105 44.1011 30.2183 44.1079 30.1228C44.1215 30.0272 44.1386 29.9283 44.1591 29.8259L45.3263 24.4199H46.8723L45.6642 29.8259C45.6437 29.9283 45.6266 30.0306 45.613 30.133C45.5993 30.2354 45.5925 30.331 45.5925 30.4197C45.5925 30.877 45.7222 31.2251 45.9815 31.464C46.2409 31.7029 46.5822 31.8224 47.0054 31.8224C47.4832 31.8224 47.9166 31.6654 48.3057 31.3514C48.6948 31.0306 48.9644 30.5221 49.1145 29.8259L50.2817 24.4199H50.6913L49.5241 29.8259C49.408 30.3583 49.2408 30.8054 49.0224 31.1671C48.804 31.5289 48.5036 31.8019 48.1214 31.9862C47.746 32.1637 47.2614 32.2524 46.6675 32.2524ZM44.0977 24.7271V24.4199H47.7733V24.7271H44.0977ZM49.1862 24.7271V24.4199H51.5104V24.7271H49.1862Z" fill="white"/>
<path d="M38.5667 32.2527C38.123 32.2527 37.7135 32.1708 37.3381 32.007C36.9695 31.8364 36.6487 31.6043 36.3757 31.3108C36.1026 31.0173 35.891 30.676 35.7409 30.287C35.5907 29.8979 35.5156 29.4781 35.5156 29.0276C35.5156 28.5703 35.5941 28.1164 35.7511 27.6659C35.9081 27.2086 36.1265 26.782 36.4064 26.3861C36.6931 25.9834 37.0207 25.6284 37.3893 25.3213C37.7647 25.0141 38.1708 24.7718 38.6077 24.5943C39.0513 24.4169 39.5052 24.3281 39.9694 24.3281C40.4131 24.3281 40.8192 24.41 41.1878 24.5738C41.5564 24.7308 41.8772 24.9527 42.1502 25.2394C42.43 25.5192 42.6451 25.8537 42.7952 26.2427C42.9454 26.625 43.0205 27.0413 43.0205 27.4918C43.0205 27.956 42.9386 28.4167 42.7747 28.874C42.6178 29.3314 42.3993 29.7648 42.1195 30.1743C41.8396 30.577 41.512 30.9354 41.1366 31.2494C40.7612 31.5634 40.355 31.8091 39.9182 31.9865C39.4813 32.164 39.0309 32.2527 38.5667 32.2527ZM38.5053 31.9251C38.8602 31.9251 39.1742 31.8364 39.4472 31.6589C39.7202 31.4814 39.9557 31.2425 40.1537 30.9422C40.3585 30.6351 40.5291 30.2938 40.6656 29.9184C40.8089 29.5361 40.9216 29.1402 41.0035 28.7307C41.0854 28.3212 41.1434 27.9253 41.1775 27.543C41.2185 27.1608 41.239 26.8127 41.239 26.4987C41.239 26.2939 41.2253 26.0857 41.198 25.8741C41.1775 25.6557 41.1263 25.4544 41.0444 25.2701C40.9625 25.0858 40.8362 24.939 40.6656 24.8298C40.5018 24.7138 40.28 24.6558 40.0001 24.6558C39.652 24.6558 39.3414 24.7445 39.0684 24.922C38.7954 25.0994 38.5599 25.3417 38.3619 25.6489C38.164 25.9492 37.9933 26.2905 37.85 26.6727C37.7135 27.055 37.6043 27.4543 37.5224 27.8707C37.4405 28.2802 37.379 28.6829 37.3381 29.0788C37.304 29.4679 37.2869 29.8262 37.2869 30.1538C37.2869 30.6931 37.379 31.1231 37.5633 31.4439C37.7476 31.7647 38.0616 31.9251 38.5053 31.9251Z" fill="white"/>
<path d="M31.4449 32.2722C30.8238 32.2722 30.2982 32.1323 29.8682 31.8524C29.445 31.5658 29.1242 31.1903 28.9058 30.7262C28.6873 30.2621 28.5781 29.7672 28.5781 29.2416C28.5781 28.7638 28.66 28.2894 28.8238 27.8185C28.9945 27.3407 29.2266 26.8936 29.5201 26.4772C29.8204 26.054 30.1617 25.682 30.5439 25.3612C30.9262 25.0336 31.3289 24.7776 31.7521 24.5933C32.1821 24.4022 32.6155 24.3066 33.0524 24.3066C33.339 24.3066 33.595 24.3544 33.8203 24.45C34.0523 24.5387 34.2742 24.6889 34.4858 24.9005L34.9363 24.4193H35.2946L34.8134 26.8048H34.5062C34.5062 26.3543 34.438 25.9687 34.3015 25.6479C34.165 25.3271 33.9807 25.0814 33.7486 24.9107C33.5233 24.7401 33.2708 24.6548 32.9909 24.6548C32.7043 24.6548 32.4415 24.7435 32.2026 24.921C31.9637 25.0916 31.7452 25.3271 31.5473 25.6274C31.3562 25.9277 31.189 26.2656 31.0456 26.641C30.9023 27.0164 30.7794 27.4089 30.677 27.8185C30.5815 28.228 30.5098 28.6273 30.462 29.0164C30.4142 29.4054 30.3903 29.7638 30.3903 30.0914C30.3903 30.7672 30.4927 31.2381 30.6975 31.5043C30.9023 31.7637 31.1958 31.8934 31.578 31.8934C31.8101 31.8934 32.0695 31.8422 32.3561 31.7398C32.6428 31.6374 32.9432 31.4531 33.2571 31.1869C33.5779 30.9139 33.8885 30.5283 34.1888 30.03H34.496L33.9534 32.1391H33.6462L33.339 31.791C33.0592 31.9207 32.7623 32.0333 32.4483 32.1289C32.1411 32.2244 31.8067 32.2722 31.4449 32.2722Z" fill="white"/>
<path fill-rule="evenodd" clip-rule="evenodd" d="M71.1463 32.4485L68.3732 26.4399L67.2622 31.5475H68.2532V32.4234H65.2578V31.5475H66.2706L67.6924 25.0107H66.7117V24.1348H69.9118V24.3551L71.9031 28.5532L72.5912 25.0107H71.6774V24.1348H74.4782V25.0107H73.5677L71.9247 32.5565H71.1254L71.1463 32.4485ZM71.3782 32.2721H71.6956L73.3385 24.7263H74.1938V24.4192H71.9618V24.7263H72.9362L72.0274 29.4044L72.0272 29.4053H71.9925L69.6274 24.4192H66.9961V24.7263H68.0453L66.4998 31.8319H65.5422V32.139H67.9687V31.8319H66.9093L68.2792 25.5338L68.2657 25.6171H68.3066L71.3782 32.2721Z" fill="white"/>
<path fill-rule="evenodd" clip-rule="evenodd" d="M59.9902 32.2657L59.9874 32.2644C59.5858 32.0784 59.2347 31.8246 58.9362 31.5038C58.6375 31.1827 58.407 30.8101 58.2443 30.3886C58.0806 29.9643 58 29.5095 58 29.0269C58 28.5365 58.0842 28.0512 58.2511 27.5722C58.4169 27.0895 58.6476 26.6389 58.9429 26.2211L58.9435 26.2204C59.2439 25.7984 59.5881 25.4253 59.976 25.102L59.978 25.1004C60.3748 24.7757 60.8054 24.5186 61.2694 24.3301L61.2708 24.3295C61.7471 24.139 62.2368 24.043 62.7382 24.043C63.2168 24.043 63.6621 24.1314 64.07 24.3123C64.4719 24.4838 64.8235 24.7266 65.1225 25.0399C65.4306 25.3488 65.666 25.7164 65.8292 26.1392C65.9933 26.5573 66.0736 27.0089 66.0736 27.4911C66.0736 27.9887 65.9858 28.4812 65.812 28.9672C65.6465 29.4487 65.4166 29.9044 65.1231 30.334L65.1218 30.3359C64.8275 30.7594 64.4827 31.1365 64.0878 31.4668C63.6906 31.799 63.2592 32.0603 62.794 32.2493C62.3237 32.4403 61.8369 32.5364 61.3355 32.5364C60.856 32.5364 60.4073 32.4477 59.9931 32.2669L59.9902 32.2657ZM65.564 26.242C65.4138 25.8529 65.1988 25.5185 64.919 25.2386C64.6459 24.9519 64.3251 24.7301 63.9566 24.5731C63.588 24.4093 63.1818 24.3274 62.7382 24.3274C62.274 24.3274 61.8201 24.4161 61.3764 24.5936C60.9396 24.771 60.5335 25.0134 60.1581 25.3205C59.7895 25.6277 59.4618 25.9826 59.1752 26.3853C58.8953 26.7812 58.6769 27.2078 58.5199 27.6651C58.3629 28.1156 58.2844 28.5695 58.2844 29.0269C58.2844 29.4774 58.3595 29.8971 58.5097 30.2862C58.6598 30.6753 58.8714 31.0165 59.1444 31.3101C59.4175 31.6036 59.7383 31.8356 60.1069 32.0063C60.4823 32.1701 60.8918 32.252 61.3355 32.252C61.7996 32.252 62.2501 32.1633 62.687 31.9858C63.1238 31.8083 63.5299 31.5626 63.9054 31.2486C64.2808 30.9346 64.6084 30.5763 64.8883 30.1736C65.1681 29.764 65.3865 29.3306 65.5435 28.8733C65.7073 28.416 65.7892 27.9552 65.7892 27.4911C65.7892 27.0406 65.7142 26.6242 65.564 26.242ZM63.4344 24.8291C63.2706 24.713 63.0487 24.655 62.7689 24.655C62.4208 24.655 62.1102 24.7437 61.8372 24.9212C61.5641 25.0987 61.3287 25.341 61.1307 25.6481C60.9328 25.9485 60.7621 26.2898 60.6188 26.672C60.4823 27.0542 60.3731 27.4535 60.2912 27.8699C60.2092 28.2794 60.1478 28.6822 60.1069 29.0781C60.0727 29.4671 60.0557 29.8255 60.0557 30.1531C60.0557 30.6923 60.1478 31.1223 60.3321 31.4432C60.5164 31.764 60.8304 31.9244 61.2741 31.9244C61.629 31.9244 61.943 31.8356 62.216 31.6582C62.489 31.4807 62.7245 31.2418 62.9225 30.9415C63.1272 30.6343 63.2979 30.293 63.4344 29.9176C63.5777 29.5354 63.6903 29.1395 63.7723 28.7299C63.8542 28.3204 63.9122 27.9245 63.9463 27.5423C63.9873 27.16 64.0077 26.8119 64.0077 26.4979C64.0077 26.2932 63.9941 26.085 63.9668 25.8734C63.9463 25.655 63.8951 25.4536 63.8132 25.2693C63.7313 25.085 63.605 24.9383 63.4344 24.8291ZM60.39 29.105C60.3566 29.4865 60.3401 29.8357 60.3401 30.1531C60.3401 30.6639 60.428 31.0391 60.5787 31.3015C60.7014 31.515 60.9082 31.64 61.2741 31.64C61.5791 31.64 61.8382 31.5645 62.061 31.4197C62.2979 31.2657 62.5063 31.056 62.685 30.785L62.6858 30.7837C62.877 30.4969 63.0377 30.1762 63.1671 29.8204L63.1681 29.8177C63.3059 29.4502 63.4144 29.069 63.4934 28.6742C63.5734 28.2738 63.6299 27.8881 63.663 27.517L63.6633 27.5145L63.6635 27.512C63.7036 27.1377 63.7233 26.7999 63.7233 26.4979C63.7233 26.3058 63.7105 26.1098 63.6847 25.9098L63.6841 25.9049L63.6836 25.8999C63.6658 25.7095 63.6216 25.5386 63.5533 25.3848C63.4941 25.2517 63.405 25.1479 63.2811 25.0686L63.2754 25.065L63.27 25.0611C63.1698 24.9902 63.0124 24.9394 62.7689 24.9394C62.4718 24.9394 62.2158 25.0143 61.9922 25.1597C61.7567 25.3127 61.5486 25.5247 61.3698 25.8022L61.3682 25.8047C61.1837 26.0845 61.0226 26.4056 60.8859 26.7697C60.7547 27.1374 60.6494 27.5224 60.5702 27.9248L60.57 27.9257C60.49 28.3261 60.43 28.7192 60.39 29.105Z" fill="white"/>
<path fill-rule="evenodd" clip-rule="evenodd" d="M52.8757 24.7263H51.8674V24.4192H55.154C56.0755 24.4192 56.7717 24.5864 57.2427 24.9209C57.7136 25.2553 57.9491 25.7126 57.9491 26.2928C57.9491 26.7501 57.7989 27.1529 57.4986 27.501C57.2051 27.8423 56.7751 28.1085 56.2086 28.2996C55.8565 28.4141 55.4558 28.493 55.0063 28.5364C54.8183 28.5545 54.6218 28.5664 54.4168 28.5721C54.323 28.5747 54.2275 28.576 54.1301 28.576H53.5623L52.8391 31.8216H53.7411V32.139H50.5774V31.8216H51.3324L52.8757 24.7263ZM51.1032 31.5372L52.5228 25.0107H51.583V24.1348H55.154C56.1021 24.1348 56.8673 24.3055 57.4073 24.689C57.9538 25.0771 58.2335 25.621 58.2335 26.2928C58.2335 26.8187 58.0586 27.2872 57.7141 27.6866C57.714 27.6867 57.7141 27.6865 57.7141 27.6866M51.1032 31.5372H50.293V32.4234H54.0255V31.5372H53.1939L53.7903 28.8604H54.1301C54.9687 28.8604 55.6932 28.7663 56.2965 28.57L56.2995 28.5691C56.8989 28.3669 57.3781 28.0772 57.7141 27.6866M53.6193 28.32H54.4168C54.6124 28.32 54.7928 28.2985 54.9581 28.2553C55.2888 28.1688 55.5589 27.9959 55.7683 27.7365C56.0891 27.3474 56.2495 26.7536 56.2495 25.9549C56.2495 25.6614 56.2188 25.426 56.1574 25.2485C56.0959 25.0642 55.9765 24.9311 55.799 24.8492C55.6284 24.7673 55.3724 24.7263 55.0311 24.7263H54.4201L53.6193 28.32ZM53.9741 28.0356L54.6481 25.0107H55.0311C55.3587 25.0107 55.5633 25.0515 55.676 25.1056L55.6779 25.1065L55.6798 25.1074C55.7865 25.1567 55.8511 25.2291 55.8876 25.3384L55.8886 25.3415C55.9356 25.4771 55.9651 25.6774 55.9651 25.9549C55.9651 26.7238 55.8093 27.2397 55.5489 27.5555L55.547 27.5578C55.2967 27.868 54.9346 28.0356 54.4168 28.0356H53.9741Z" fill="white"/>
<path fill-rule="evenodd" clip-rule="evenodd" d="M43.8242 30.0918L43.8256 30.0818C43.84 29.9806 43.858 29.8765 43.8795 29.7693L43.8799 29.7672L44.9068 25.0107H43.8125V24.1348H48.0569V25.0107H47.0308L45.9417 29.8839C45.9227 29.9793 45.9068 30.0746 45.8941 30.1699C45.8819 30.2618 45.8761 30.3446 45.8761 30.4189C45.8761 30.8217 45.9887 31.0839 46.1735 31.2541C46.3702 31.4353 46.6377 31.5372 47.0046 31.5372C47.4138 31.5372 47.7844 31.4048 48.1251 31.1303C48.4475 30.864 48.6938 30.4233 48.8358 29.7652L49.8623 25.0107H48.9011V24.1348H51.794V25.0107H50.8538L49.8012 29.8857C49.6803 30.4402 49.5036 30.9184 49.2651 31.3134C49.018 31.7226 48.6759 32.0335 48.2442 32.2416L48.2422 32.2426C47.8161 32.444 47.2859 32.536 46.6668 32.536C45.7701 32.536 45.0473 32.3574 44.551 31.9491C44.0634 31.548 43.8125 31.0243 43.8125 30.3985C43.8125 30.3025 43.8162 30.2035 43.8235 30.1018L43.8242 30.0918ZM50.6242 24.7263H51.5096V24.4192H49.1855V24.7263H50.2147L49.1138 29.8251C48.9636 30.5213 48.694 31.0298 48.3049 31.3507C47.9159 31.6646 47.4824 31.8216 47.0046 31.8216C46.5815 31.8216 46.2402 31.7022 45.9808 31.4633C45.7214 31.2244 45.5917 30.8763 45.5917 30.4189C45.5917 30.3302 45.5986 30.2347 45.6122 30.1323C45.6259 30.0299 45.6429 29.9275 45.6634 29.8251L46.8029 24.7263H47.7725V24.4192H44.0969V24.7263H45.2592L44.1583 29.8251C44.1379 29.9275 44.1208 30.0265 44.1071 30.122C44.1003 30.2176 44.0969 30.3097 44.0969 30.3985C44.0969 30.9377 44.3085 31.3814 44.7317 31.7295C45.1549 32.0776 45.7999 32.2516 46.6668 32.2516C47.2606 32.2516 47.7452 32.1629 48.1206 31.9854C48.5029 31.8012 48.8032 31.5281 49.0216 31.1664C49.2401 30.8046 49.4073 30.3575 49.5233 29.8251L50.6242 24.7263Z" fill="white"/>
<path fill-rule="evenodd" clip-rule="evenodd" d="M37.2207 32.2657L37.2178 32.2644C36.8162 32.0784 36.4652 31.8246 36.1667 31.5038C35.868 31.1827 35.6375 30.8101 35.4748 30.3886C35.311 29.9643 35.2305 29.5095 35.2305 29.0269C35.2305 28.5365 35.3147 28.0512 35.4816 27.5722C35.6473 27.0895 35.8781 26.6389 36.1734 26.2211L36.1739 26.2204C36.4744 25.7984 36.8185 25.4253 37.2065 25.102L37.2084 25.1004L37.2084 25.1004C37.6052 24.7757 38.0359 24.5186 38.4999 24.3301L38.5013 24.3295C38.9775 24.139 39.4672 24.043 39.9686 24.043C40.4473 24.043 40.8926 24.1314 41.3005 24.3123C41.7024 24.4838 42.0539 24.7266 42.353 25.0399C42.661 25.3486 42.8962 25.7161 43.0595 26.1387C43.2237 26.557 43.3041 27.0087 43.3041 27.4911C43.3041 27.9888 43.2163 28.4813 43.0424 28.9674C42.8769 29.4488 42.6471 29.9045 42.3535 30.334L42.3523 30.3359C42.058 30.7594 41.7132 31.1365 41.3183 31.4668C40.9211 31.799 40.4897 32.0603 40.0245 32.2493C39.5542 32.4403 39.0674 32.5364 38.566 32.5364C38.0864 32.5364 37.6378 32.4477 37.2236 32.2669L37.2207 32.2657ZM42.774 28.8733C42.9378 28.416 43.0197 27.9552 43.0197 27.4911C43.0197 27.0406 42.9446 26.6242 42.7945 26.242C42.6443 25.8529 42.4293 25.5185 42.1494 25.2386C41.8764 24.9519 41.5556 24.7301 41.187 24.5731C40.8184 24.4093 40.4123 24.3274 39.9686 24.3274C39.5045 24.3274 39.0506 24.4161 38.6069 24.5936C38.1701 24.771 37.7639 25.0134 37.3885 25.3205C37.0199 25.6277 36.6923 25.9826 36.4056 26.3853C36.1258 26.7812 35.9073 27.2078 35.7504 27.6651C35.5934 28.1156 35.5149 28.5695 35.5149 29.0269C35.5149 29.4774 35.59 29.8971 35.7401 30.2862C35.8903 30.6753 36.1019 31.0165 36.3749 31.3101C36.6479 31.6036 36.9687 31.8356 37.3373 32.0063C37.7127 32.1701 38.1223 32.252 38.566 32.252C39.0301 32.252 39.4806 32.1633 39.9174 31.9858C40.3543 31.8083 40.7604 31.5626 41.1358 31.2486C41.5112 30.9346 41.8389 30.5763 42.1187 30.1736C42.3986 29.764 42.617 29.3306 42.774 28.8733ZM40.6649 24.8291C40.501 24.713 40.2792 24.655 39.9993 24.655C39.6512 24.655 39.3407 24.7437 39.0676 24.9212C38.7946 25.0987 38.5591 25.341 38.3612 25.6481C38.1632 25.9485 37.9926 26.2898 37.8493 26.672C37.7127 27.0542 37.6035 27.4535 37.5216 27.8699C37.4397 28.2794 37.3783 28.6822 37.3373 29.0781C37.3032 29.4671 37.2861 29.8255 37.2861 30.1531C37.2861 30.6923 37.3783 31.1223 37.5626 31.4432C37.7469 31.764 38.0609 31.9244 38.5045 31.9244C38.8595 31.9244 39.1734 31.8356 39.4465 31.6582C39.7195 31.4807 39.955 31.2418 40.1529 30.9415C40.3577 30.6343 40.5283 30.293 40.6649 29.9176C40.8082 29.5354 40.9208 29.1395 41.0027 28.7299C41.0846 28.3204 41.1427 27.9245 41.1768 27.5423C41.2177 27.16 41.2382 26.8119 41.2382 26.4979C41.2382 26.2932 41.2246 26.085 41.1973 25.8734C41.1768 25.655 41.1256 25.4536 41.0437 25.2693C40.9618 25.085 40.8355 24.9383 40.6649 24.8291ZM37.6205 29.1051C37.587 29.4866 37.5705 29.8358 37.5705 30.1531C37.5705 30.6639 37.6585 31.0391 37.8092 31.3015C37.9318 31.515 38.1387 31.64 38.5045 31.64C38.8096 31.64 39.0687 31.5645 39.2915 31.4197C39.5284 31.2657 39.7368 31.056 39.9155 30.785L39.9163 30.7837C40.1075 30.4969 40.2682 30.1762 40.3976 29.8204L40.3985 29.8177L40.3986 29.8177C40.5364 29.4502 40.6449 29.069 40.7238 28.6742C40.8039 28.2738 40.8604 27.8881 40.8935 27.517L40.8937 27.5145L40.894 27.512C40.9341 27.1377 40.9538 26.7999 40.9538 26.4979C40.9538 26.3058 40.941 26.1098 40.9152 25.9098L40.9146 25.9049L40.9141 25.8999C40.8962 25.7095 40.8521 25.5386 40.7838 25.3848C40.7246 25.2517 40.6355 25.1479 40.5115 25.0686L40.5059 25.065L40.5005 25.0611C40.4003 24.9902 40.2428 24.9394 39.9993 24.9394C39.7023 24.9394 39.4463 25.0143 39.2226 25.1597C38.9872 25.3127 38.7791 25.5247 38.6002 25.8022L38.5987 25.8047L38.5986 25.8047C38.4142 26.0845 38.253 26.4057 38.1163 26.7698C37.9851 27.1375 37.8798 27.5224 37.8007 27.9248L37.8005 27.9257C37.7204 28.3261 37.6604 28.7192 37.6205 29.1051Z" fill="white"/>
<path fill-rule="evenodd" clip-rule="evenodd" d="M29.7101 32.0886L29.7079 32.0871C29.2423 31.7717 28.8878 31.3567 28.6477 30.8465C28.411 30.3436 28.293 29.8072 28.293 29.2409C28.293 28.7299 28.3807 28.224 28.5545 27.7243L28.5553 27.722C28.7346 27.2199 28.9786 26.7499 29.2869 26.3126L29.2874 26.3119C29.6009 25.8701 29.9581 25.4803 30.3592 25.1436C30.7604 24.7999 31.1862 24.5286 31.6368 24.3322C32.1 24.1265 32.5723 24.0215 33.0516 24.0215C33.3681 24.0215 33.6612 24.074 33.9259 24.1854C34.1166 24.259 34.297 24.3658 34.4675 24.5022L34.8122 24.1341H35.6413L35.0454 27.0885H34.2211V26.8041C34.2211 26.3812 34.1569 26.0354 34.039 25.7585C33.9183 25.4747 33.7625 25.2738 33.5794 25.1391L33.5777 25.1379L33.5761 25.1367C33.3997 25.0031 33.2074 24.9384 32.9902 24.9384C32.767 24.9384 32.5633 25.006 32.3714 25.1485L32.3693 25.1501L32.3671 25.1516C32.1627 25.2976 31.9678 25.5047 31.7853 25.7813C31.6062 26.0631 31.4476 26.3828 31.3106 26.7417C31.1717 27.1053 31.0524 27.4862 30.9527 27.8845C30.8596 28.2841 30.7899 28.6727 30.7435 29.0503C30.6969 29.43 30.674 29.7766 30.674 30.0907C30.674 30.7551 30.7782 31.1418 30.9211 31.3288C31.0631 31.5077 31.2675 31.6082 31.5773 31.6082C31.7684 31.6082 31.9947 31.5659 32.2597 31.4712C32.505 31.3836 32.7759 31.2207 33.0723 30.9694C33.3626 30.7223 33.6545 30.3635 33.9445 29.8824L34.0274 29.7448H34.8621L34.1731 32.4228H33.5171L33.263 32.1348C33.0292 32.2343 32.7852 32.3226 32.5312 32.3999C32.1938 32.5048 31.8308 32.5559 31.4442 32.5559C30.7797 32.5559 30.1974 32.4058 29.7123 32.0901L29.7101 32.0886ZM32.4475 32.1281C32.7615 32.0326 33.0584 31.9199 33.3383 31.7903L33.6454 32.1384H33.9526L34.4952 30.0292H34.1881C33.8878 30.5275 33.5772 30.9132 33.2564 31.1862C32.9424 31.4524 32.6421 31.6367 32.3554 31.7391C32.0687 31.8414 31.8093 31.8926 31.5773 31.8926C31.195 31.8926 30.9015 31.763 30.6967 31.5036C30.492 31.2374 30.3896 30.7664 30.3896 30.0907C30.3896 29.763 30.4135 29.4047 30.4613 29.0156C30.509 28.6265 30.5807 28.2272 30.6763 27.8177C30.7787 27.4082 30.9015 27.0157 31.0449 26.6403C31.1882 26.2649 31.3554 25.927 31.5465 25.6267C31.7445 25.3263 31.9629 25.0908 32.2018 24.9202C32.4407 24.7427 32.7035 24.654 32.9902 24.654C33.27 24.654 33.5226 24.7393 33.7478 24.91C33.9799 25.0806 34.1642 25.3263 34.3007 25.6471C34.4372 25.9679 34.5055 26.3536 34.5055 26.8041H34.8126L35.2938 24.4185H34.9355L34.485 24.8997C34.4448 24.8595 34.4042 24.8215 34.3632 24.7857C34.1887 24.6332 34.0074 24.5211 33.8195 24.4492C33.5943 24.3537 33.3383 24.3059 33.0516 24.3059C32.6148 24.3059 32.1813 24.4014 31.7513 24.5926C31.3281 24.7769 30.9254 25.0328 30.5432 25.3605C30.1609 25.6813 29.8196 26.0533 29.5193 26.4765C29.2258 26.8928 28.9937 27.3399 28.8231 27.8177C28.6593 28.2887 28.5774 28.7631 28.5774 29.2409C28.5774 29.7664 28.6866 30.2613 28.905 30.7254C29.1234 31.1896 29.4442 31.565 29.8674 31.8517C30.2974 32.1315 30.823 32.2715 31.4442 32.2715C31.8059 32.2715 32.1404 32.2237 32.4475 32.1281Z" fill="white"/>
<path d="M53.2036 90.0139C53.2036 91.1919 52.2486 92.1469 51.0705 92.1469C49.8925 92.1469 48.9375 91.1919 48.9375 90.0139C48.9375 88.8358 49.8925 87.8809 51.0705 87.8809C52.2486 87.8809 53.2036 88.8358 53.2036 90.0139Z" fill="white"/>
<path d="M53.2036 2.98654C53.2036 4.16458 52.2486 5.11957 51.0705 5.11957C49.8925 5.11957 48.9375 4.16458 48.9375 2.98654C48.9375 1.8085 49.8925 0.853516 51.0705 0.853516C52.2486 0.853516 53.2036 1.8085 53.2036 2.98654Z" fill="white"/>
<path d="M83.0629 77.5002C83.0629 78.6783 82.1079 79.6332 80.9299 79.6332C79.7519 79.6332 78.7969 78.6783 78.7969 77.5002C78.7969 76.3222 79.7519 75.3672 80.9299 75.3672C82.1079 75.3672 83.0629 76.3222 83.0629 77.5002Z" fill="white"/>
<path d="M83.3481 15.5002C83.3481 16.6783 82.3931 17.6332 81.2151 17.6332C80.037 17.6332 79.082 16.6783 79.082 15.5002C79.082 14.3222 80.037 13.3672 81.2151 13.3672C82.3931 13.3672 83.3481 14.3222 83.3481 15.5002Z" fill="white"/>
<path d="M22.2036 77.2151C22.2036 78.3931 21.2486 79.3481 20.0705 79.3481C18.8925 79.3481 17.9375 78.3931 17.9375 77.2151C17.9375 76.037 18.8925 75.082 20.0705 75.082C21.2486 75.082 22.2036 76.037 22.2036 77.2151Z" fill="white"/>
<path d="M22.2036 15.7854C22.2036 16.9634 21.2486 17.9184 20.0705 17.9184C18.8925 17.9184 17.9375 16.9634 17.9375 15.7854C17.9375 14.6073 18.8925 13.6523 20.0705 13.6523C21.2486 13.6523 22.2036 14.6073 22.2036 15.7854Z" fill="white"/>
<defs>
<filter id="filter0_d_5860_13665" x="74.8203" y="40.2754" width="26.7305" height="28.5859" filterUnits="userSpaceOnUse" color-interpolation-filters="sRGB">
<feFlood flood-opacity="0" result="BackgroundImageFix"/>
<feColorMatrix in="SourceAlpha" type="matrix" values="0 0 0 0 0 0 0 0 0 0 0 0 0 0 0 0 0 0 127 0" result="hardAlpha"/>
<feOffset dy="4"/>
<feGaussianBlur stdDeviation="2"/>
<feComposite in2="hardAlpha" operator="out"/>
<feColorMatrix type="matrix" values="0 0 0 0 0 0 0 0 0 0 0 0 0 0 0 0 0 0 0.25 0"/>
<feBlend mode="normal" in2="BackgroundImageFix" result="effect1_dropShadow_5860_13665"/>
<feBlend mode="normal" in="SourceGraphic" in2="effect1_dropShadow_5860_13665" result="shape"/>
</filter>
<filter id="filter1_d_5860_13665" x="51.5586" y="40.2754" width="31.0703" height="28.9414" filterUnits="userSpaceOnUse" color-interpolation-filters="sRGB">
<feFlood flood-opacity="0" result="BackgroundImageFix"/>
<feColorMatrix in="SourceAlpha" type="matrix" values="0 0 0 0 0 0 0 0 0 0 0 0 0 0 0 0 0 0 127 0" result="hardAlpha"/>
<feOffset dy="4"/>
<feGaussianBlur stdDeviation="2"/>
<feComposite in2="hardAlpha" operator="out"/>
<feColorMatrix type="matrix" values="0 0 0 0 0 0 0 0 0 0 0 0 0 0 0 0 0 0 0.25 0"/>
<feBlend mode="normal" in2="BackgroundImageFix" result="effect1_dropShadow_5860_13665"/>
<feBlend mode="normal" in="SourceGraphic" in2="effect1_dropShadow_5860_13665" result="shape"/>
</filter>
<filter id="filter2_d_5860_13665" x="41.1367" y="40.2754" width="20.2852" height="28.5859" filterUnits="userSpaceOnUse" color-interpolation-filters="sRGB">
<feFlood flood-opacity="0" result="BackgroundImageFix"/>
<feColorMatrix in="SourceAlpha" type="matrix" values="0 0 0 0 0 0 0 0 0 0 0 0 0 0 0 0 0 0 127 0" result="hardAlpha"/>
<feOffset dy="4"/>
<feGaussianBlur stdDeviation="2"/>
<feComposite in2="hardAlpha" operator="out"/>
<feColorMatrix type="matrix" values="0 0 0 0 0 0 0 0 0 0 0 0 0 0 0 0 0 0 0.25 0"/>
<feBlend mode="normal" in2="BackgroundImageFix" result="effect1_dropShadow_5860_13665"/>
<feBlend mode="normal" in="SourceGraphic" in2="effect1_dropShadow_5860_13665" result="shape"/>
</filter>
<filter id="filter3_d_5860_13665" x="21.5586" y="40.0293" width="28.0117" height="29.1328" filterUnits="userSpaceOnUse" color-interpolation-filters="sRGB">
<feFlood flood-opacity="0" result="BackgroundImageFix"/>
<feColorMatrix in="SourceAlpha" type="matrix" values="0 0 0 0 0 0 0 0 0 0 0 0 0 0 0 0 0 0 127 0" result="hardAlpha"/>
<feOffset dy="4"/>
<feGaussianBlur stdDeviation="2"/>
<feComposite in2="hardAlpha" operator="out"/>
<feColorMatrix type="matrix" values="0 0 0 0 0 0 0 0 0 0 0 0 0 0 0 0 0 0 0.25 0"/>
<feBlend mode="normal" in2="BackgroundImageFix" result="effect1_dropShadow_5860_13665"/>
<feBlend mode="normal" in="SourceGraphic" in2="effect1_dropShadow_5860_13665" result="shape"/>
</filter>
<filter id="filter4_d_5860_13665" x="1.01172" y="40.2754" width="27.6562" height="28.5859" filterUnits="userSpaceOnUse" color-interpolation-filters="sRGB">
<feFlood flood-opacity="0" result="BackgroundImageFix"/>
<feColorMatrix in="SourceAlpha" type="matrix" values="0 0 0 0 0 0 0 0 0 0 0 0 0 0 0 0 0 0 127 0" result="hardAlpha"/>
<feOffset dy="4"/>
<feGaussianBlur stdDeviation="2"/>
<feComposite in2="hardAlpha" operator="out"/>
<feColorMatrix type="matrix" values="0 0 0 0 0 0 0 0 0 0 0 0 0 0 0 0 0 0 0.25 0"/>
<feBlend mode="normal" in2="BackgroundImageFix" result="effect1_dropShadow_5860_13665"/>
<feBlend mode="normal" in="SourceGraphic" in2="effect1_dropShadow_5860_13665" result="shape"/>
</filter>
<filter id="filter5_d_5860_13665" x="74.0586" y="39.709" width="28.1445" height="29.7246" filterUnits="userSpaceOnUse" color-interpolation-filters="sRGB">
<feFlood flood-opacity="0" result="BackgroundImageFix"/>
<feColorMatrix in="SourceAlpha" type="matrix" values="0 0 0 0 0 0 0 0 0 0 0 0 0 0 0 0 0 0 127 0" result="hardAlpha"/>
<feOffset dy="4"/>
<feGaussianBlur stdDeviation="2"/>
<feComposite in2="hardAlpha" operator="out"/>
<feColorMatrix type="matrix" values="0 0 0 0 0 0 0 0 0 0 0 0 0 0 0 0 0 0 0.25 0"/>
<feBlend mode="normal" in2="BackgroundImageFix" result="effect1_dropShadow_5860_13665"/>
<feBlend mode="normal" in="SourceGraphic" in2="effect1_dropShadow_5860_13665" result="shape"/>
</filter>
<filter id="filter6_d_5860_13665" x="50.9922" y="39.709" width="32.207" height="30.0781" filterUnits="userSpaceOnUse" color-interpolation-filters="sRGB">
<feFlood flood-opacity="0" result="BackgroundImageFix"/>
<feColorMatrix in="SourceAlpha" type="matrix" values="0 0 0 0 0 0 0 0 0 0 0 0 0 0 0 0 0 0 127 0" result="hardAlpha"/>
<feOffset dy="4"/>
<feGaussianBlur stdDeviation="2"/>
<feComposite in2="hardAlpha" operator="out"/>
<feColorMatrix type="matrix" values="0 0 0 0 0 0 0 0 0 0 0 0 0 0 0 0 0 0 0.25 0"/>
<feBlend mode="normal" in2="BackgroundImageFix" result="effect1_dropShadow_5860_13665"/>
<feBlend mode="normal" in="SourceGraphic" in2="effect1_dropShadow_5860_13665" result="shape"/>
</filter>
<filter id="filter7_d_5860_13665" x="40.5703" y="39.709" width="21.4258" height="29.7246" filterUnits="userSpaceOnUse" color-interpolation-filters="sRGB">
<feFlood flood-opacity="0" result="BackgroundImageFix"/>
<feColorMatrix in="SourceAlpha" type="matrix" values="0 0 0 0 0 0 0 0 0 0 0 0 0 0 0 0 0 0 127 0" result="hardAlpha"/>
<feOffset dy="4"/>
<feGaussianBlur stdDeviation="2"/>
<feComposite in2="hardAlpha" operator="out"/>
<feColorMatrix type="matrix" values="0 0 0 0 0 0 0 0 0 0 0 0 0 0 0 0 0 0 0.25 0"/>
<feBlend mode="normal" in2="BackgroundImageFix" result="effect1_dropShadow_5860_13665"/>
<feBlend mode="normal" in="SourceGraphic" in2="effect1_dropShadow_5860_13665" result="shape"/>
</filter>
<filter id="filter8_d_5860_13665" x="20.9922" y="39.4629" width="29.1523" height="30.2695" filterUnits="userSpaceOnUse" color-interpolation-filters="sRGB">
<feFlood flood-opacity="0" result="BackgroundImageFix"/>
<feColorMatrix in="SourceAlpha" type="matrix" values="0 0 0 0 0 0 0 0 0 0 0 0 0 0 0 0 0 0 127 0" result="hardAlpha"/>
<feOffset dy="4"/>
<feGaussianBlur stdDeviation="2"/>
<feComposite in2="hardAlpha" operator="out"/>
<feColorMatrix type="matrix" values="0 0 0 0 0 0 0 0 0 0 0 0 0 0 0 0 0 0 0.25 0"/>
<feBlend mode="normal" in2="BackgroundImageFix" result="effect1_dropShadow_5860_13665"/>
<feBlend mode="normal" in="SourceGraphic" in2="effect1_dropShadow_5860_13665" result="shape"/>
</filter>
<filter id="filter9_d_5860_13665" x="0.445312" y="39.709" width="28.7969" height="29.7246" filterUnits="userSpaceOnUse" color-interpolation-filters="sRGB">
<feFlood flood-opacity="0" result="BackgroundImageFix"/>
<feColorMatrix in="SourceAlpha" type="matrix" values="0 0 0 0 0 0 0 0 0 0 0 0 0 0 0 0 0 0 127 0" result="hardAlpha"/>
<feOffset dy="4"/>
<feGaussianBlur stdDeviation="2"/>
<feComposite in2="hardAlpha" operator="out"/>
<feColorMatrix type="matrix" values="0 0 0 0 0 0 0 0 0 0 0 0 0 0 0 0 0 0 0.25 0"/>
<feBlend mode="normal" in2="BackgroundImageFix" result="effect1_dropShadow_5860_13665"/>
<feBlend mode="normal" in="SourceGraphic" in2="effect1_dropShadow_5860_13665" result="shape"/>
</filter>
</defs>
</svg>
