<svg width="157" height="66" viewBox="0 0 157 66" fill="none" xmlns="http://www.w3.org/2000/svg">
<mask id="path-1-inside-1_5851_13416" fill="white">
<path fill-rule="evenodd" clip-rule="evenodd" d="M32.6905 5.28378C32.3551 6.12146 31.1693 6.12145 30.8339 5.28377L28.718 0H0V26.4C4.41828 26.4 8 29.5519 8 33.44C8 37.3281 4.41828 40.48 0 40.48V66H28.5797L30.8339 60.3706C31.1693 59.533 32.3551 59.533 32.6905 60.3706L34.9447 66H157V40.48C152.582 40.48 149 37.3281 149 33.44C149 29.5519 152.582 26.4 157 26.4V0H34.8064L32.6905 5.28378Z"/>
</mask>
<path d="M30.8339 5.28377L26.1922 7.14248L26.1922 7.14248L30.8339 5.28377ZM32.6905 5.28378L37.3322 7.14248L37.3322 7.14248L32.6905 5.28378ZM28.718 0L33.3597 -1.8587L32.1018 -5L28.718 -5V0ZM0 0V-5H-5V0H0ZM0 26.4H-5V31.4H0V26.4ZM0 40.48V35.48H-5V40.48H0ZM0 66H-5V71H0V66ZM28.5797 66V71H31.9635L33.2213 67.8587L28.5797 66ZM30.8339 60.3706L26.1922 58.5119L26.1922 58.5119L30.8339 60.3706ZM32.6905 60.3706L28.0489 62.2293L28.0489 62.2293L32.6905 60.3706ZM34.9447 66L30.3031 67.8587L31.5609 71H34.9447V66ZM157 66V71H162V66H157ZM157 40.48H162V35.48H157V40.48ZM157 26.4V31.4H162V26.4H157ZM157 0H162V-5H157V0ZM34.8064 0V-5H31.4226L30.1647 -1.8587L34.8064 0ZM26.1922 7.14248C28.2048 12.1685 35.3196 12.1686 37.3322 7.14248L28.0489 3.42507C29.3906 0.0743401 34.1338 0.07437 35.4755 3.42507L26.1922 7.14248ZM24.0764 1.8587L26.1922 7.14248L35.4755 3.42507L33.3597 -1.8587L24.0764 1.8587ZM28.718 -5H0V5H28.718V-5ZM-5 0V26.4H5V0H-5ZM0 31.4C1.02546 31.4 1.84281 31.7659 2.35372 32.2155C2.85498 32.6567 3 33.1001 3 33.44H13C13 26.2091 6.55998 21.4 0 21.4V31.4ZM3 33.44C3 33.7799 2.85498 34.2233 2.35371 34.6645C1.84281 35.1141 1.02546 35.48 0 35.48V45.48C6.55998 45.48 13 40.6709 13 33.44H3ZM-5 40.48V66H5V40.48H-5ZM0 71H28.5797V61H0V71ZM33.2213 67.8587L35.4755 62.2293L26.1922 58.5119L23.938 64.1413L33.2213 67.8587ZM35.4755 62.2294C34.1338 65.58 29.3906 65.5801 28.0489 62.2293L37.3322 58.5119C35.3196 53.4858 28.2048 53.4859 26.1922 58.5119L35.4755 62.2294ZM28.0489 62.2293L30.3031 67.8587L39.5864 64.1413L37.3322 58.5119L28.0489 62.2293ZM34.9447 71H157V61H34.9447V71ZM162 66V40.48H152V66H162ZM157 35.48C155.975 35.48 155.157 35.1141 154.646 34.6645C154.145 34.2233 154 33.7799 154 33.44H144C144 40.6709 150.44 45.48 157 45.48V35.48ZM154 33.44C154 33.1001 154.145 32.6567 154.646 32.2155C155.157 31.7659 155.975 31.4 157 31.4V21.4C150.44 21.4 144 26.2091 144 33.44H154ZM162 26.4V0H152V26.4H162ZM157 -5H34.8064V5H157V-5ZM37.3322 7.14248L39.448 1.8587L30.1647 -1.8587L28.0489 3.42507L37.3322 7.14248Z" fill="white" mask="url(#path-1-inside-1_5851_13416)"/>
</svg>
