<svg width="202" height="48" viewBox="0 0 202 48" fill="none" xmlns="http://www.w3.org/2000/svg">
<path d="M7.9 33.552C5.72267 33.552 4.02067 33.1073 2.794 32.218C1.56733 31.3287 0.954 30.24 0.954 28.952C0.954 28.0627 1.21467 27.4033 1.736 26.974C2.288 26.514 2.932 26.284 3.668 26.284C4.46533 26.284 5.06333 26.514 5.462 26.974C5.89133 27.434 6.106 27.94 6.106 28.492C6.106 29.0133 5.98333 29.4273 5.738 29.734C5.49267 30.0407 5.37 30.378 5.37 30.746C5.37 31.0833 5.58467 31.39 6.014 31.666C6.474 31.9113 7.256 32.034 8.36 32.034C9.98533 32.034 11.1507 31.758 11.856 31.206C12.592 30.6233 12.96 29.964 12.96 29.228C12.96 28.492 12.6687 27.8327 12.086 27.25C11.5033 26.6673 10.7673 26.1153 9.878 25.594C9.01933 25.042 8.14533 24.4593 7.256 23.846C6.36667 23.202 5.63067 22.4507 5.048 21.592C4.46533 20.7333 4.174 19.6907 4.174 18.464C4.174 17.268 4.496 16.1793 5.14 15.198C5.81467 14.186 6.73467 13.3887 7.9 12.806C9.096 12.1927 10.476 11.886 12.04 11.886C13.2053 11.886 14.2327 12.0547 15.122 12.392C16.0113 12.7293 16.7167 13.1893 17.238 13.772C17.79 14.3547 18.066 15.0293 18.066 15.796C18.066 16.44 17.8513 16.992 17.422 17.452C17.0233 17.912 16.4407 18.142 15.674 18.142C14.9687 18.142 14.4167 17.958 14.018 17.59C13.65 17.1913 13.466 16.7313 13.466 16.21C13.466 15.8113 13.5273 15.474 13.65 15.198C13.8033 14.922 13.88 14.646 13.88 14.37C13.88 13.9407 13.65 13.6493 13.19 13.496C12.7607 13.312 12.2393 13.22 11.626 13.22C10.7367 13.22 9.924 13.404 9.188 13.772C8.452 14.14 8.084 14.7073 8.084 15.474C8.084 16.1487 8.37533 16.762 8.958 17.314C9.57133 17.8353 10.3227 18.3567 11.212 18.878C12.1013 19.3993 12.9753 19.9973 13.834 20.672C14.7233 21.316 15.4593 22.098 16.042 23.018C16.6553 23.9073 16.962 25.0113 16.962 26.33C16.962 27.7407 16.5633 28.998 15.766 30.102C14.9687 31.1753 13.88 32.0187 12.5 32.632C11.1507 33.2453 9.61733 33.552 7.9 33.552ZM25.3135 33.552C23.9335 33.552 22.9368 33.2147 22.3235 32.54C21.7102 31.8653 21.4035 31.0527 21.4035 30.102C21.4035 29.734 21.4342 29.32 21.4955 28.86C21.5875 28.3693 21.6642 27.9553 21.7255 27.618L26.5555 6.78H32.3055L27.0615 28.86C26.9695 29.2587 26.9082 29.5807 26.8775 29.826C26.8468 30.0713 26.8315 30.24 26.8315 30.332C26.8315 30.976 27.1535 31.298 27.7975 31.298C28.4415 31.298 29.2082 30.8993 30.0975 30.102C31.0175 29.3047 31.9682 27.8787 32.9495 25.824L34.0075 26.238C33.4248 27.71 32.6735 28.998 31.7535 30.102C30.8642 31.1753 29.8675 32.0187 28.7635 32.632C27.6902 33.2453 26.5402 33.552 25.3135 33.552ZM22.1395 13.588V12.3H35.2955V13.588H22.1395ZM45.4533 33.552C43.4599 33.552 41.7733 33.138 40.3933 32.31C39.0133 31.4513 37.9553 30.3473 37.2193 28.998C36.4833 27.6487 36.1153 26.2073 36.1153 24.674C36.1153 23.0487 36.4833 21.4693 37.2193 19.936C37.9553 18.4027 38.9519 17.0227 40.2093 15.796C41.4666 14.5387 42.8926 13.5573 44.4873 12.852C46.0819 12.116 47.7226 11.748 49.4093 11.748C50.7893 11.748 52.0159 11.9933 53.0893 12.484C54.1626 12.944 55.0059 13.6033 55.6193 14.462C56.2326 15.3207 56.5393 16.302 56.5393 17.406C56.5393 18.602 56.1559 19.6907 55.3893 20.672C54.6226 21.6533 53.4879 22.4353 51.9853 23.018C50.5133 23.6007 48.7346 23.892 46.6493 23.892C45.8826 23.892 45.0699 23.8613 44.2113 23.8C43.3833 23.7387 42.6319 23.662 41.9573 23.57C41.3133 23.478 40.8993 23.4167 40.7153 23.386L40.9453 21.914C41.4666 22.1287 42.0339 22.2667 42.6473 22.328C43.2606 22.3587 44.0579 22.374 45.0393 22.374C46.6339 22.374 47.9219 22.1287 48.9033 21.638C49.8846 21.1167 50.6053 20.4267 51.0653 19.568C51.5253 18.7093 51.7553 17.7587 51.7553 16.716C51.7553 15.612 51.5099 14.738 51.0193 14.094C50.5593 13.45 49.8999 13.128 49.0413 13.128C48.3053 13.128 47.5999 13.404 46.9252 13.956C46.2813 14.4773 45.6679 15.3207 45.0853 16.486C44.5333 17.6207 44.0273 19.108 43.5673 20.948C43.1073 22.7573 42.7239 24.95 42.4173 27.526C42.2639 29.0287 42.4786 30.1327 43.0613 30.838C43.6746 31.5127 44.6713 31.85 46.0513 31.85C47.4926 31.85 48.9799 31.4667 50.5133 30.7C52.0466 29.9027 53.4879 28.4767 54.8373 26.422L55.8953 27.204C54.7606 29.136 53.3039 30.6847 51.5253 31.85C49.7466 32.9847 47.7226 33.552 45.4533 33.552ZM55.583 46.478L63.495 12.3H69.337L61.241 46.478H55.583ZM52.133 47.306V45.972H65.795V47.306H52.133ZM70.487 33.552C69.107 33.552 68.003 33.2607 67.175 32.678C66.347 32.0953 65.703 31.3133 65.243 30.332H64.921L66.071 25.87C66.0403 26.1767 66.0096 26.468 65.979 26.744C65.9483 26.9893 65.933 27.2193 65.933 27.434C65.933 28.6607 66.2703 29.7187 66.945 30.608C67.6196 31.4667 68.509 31.896 69.613 31.896C70.5943 31.896 71.4683 31.5433 72.235 30.838C73.0016 30.102 73.661 29.1513 74.213 27.986C74.765 26.8207 75.225 25.5633 75.593 24.214C75.961 22.8647 76.2216 21.5613 76.375 20.304C76.559 19.0467 76.651 17.9733 76.651 17.084C76.651 15.7347 76.467 14.7993 76.099 14.278C75.731 13.7567 75.179 13.496 74.443 13.496C73.7376 13.496 72.9096 13.7413 71.959 14.232C71.039 14.692 70.1496 15.474 69.291 16.578C68.4323 17.6513 67.727 19.0927 67.175 20.902L68.417 15.336H68.739C69.3523 14.4467 70.2263 13.634 71.361 12.898C72.4956 12.1313 73.799 11.748 75.271 11.748C76.6203 11.748 77.847 12.0853 78.951 12.76C80.0856 13.4347 81.0056 14.4007 81.711 15.658C82.4163 16.8847 82.769 18.3873 82.769 20.166C82.769 21.8833 82.4316 23.5393 81.757 25.134C81.0823 26.7287 80.1623 28.17 78.997 29.458C77.8316 30.7153 76.513 31.712 75.041 32.448C73.569 33.184 72.051 33.552 70.487 33.552ZM59.171 13.588V12.3H68.785V13.588H59.171ZM88.0518 33.552C87.0398 33.552 86.1658 33.1993 85.4298 32.494C84.7244 31.7887 84.3718 30.93 84.3718 29.918C84.3718 28.8447 84.7244 27.9553 85.4298 27.25C86.1658 26.5447 87.0398 26.192 88.0518 26.192C89.0944 26.192 89.9684 26.5447 90.6738 27.25C91.4098 27.9553 91.7778 28.8447 91.7778 29.918C91.7778 30.93 91.4098 31.7887 90.6738 32.494C89.9684 33.1993 89.0944 33.552 88.0518 33.552ZM99.3103 33L106.118 0.523999H112.512L105.52 33H99.3103ZM94.2503 33V31.528H111.73V33H94.2503ZM99.8163 1.996V0.523999H111.546V1.996H99.8163ZM133.121 25.88H140.941V27.04H133.121V25.88ZM133.121 29.16H140.941V30.34H133.121V29.16ZM133.141 32.46H141.881V33.74H133.141V32.46ZM130.861 18.26H141.781V21.68H140.441V19.56H132.161V21.68H130.861V18.26ZM136.381 23.5H137.781V33.14H136.381V23.5ZM133.661 22.54H141.281V23.84H133.661V34.6H132.241V23.9L133.541 22.54H133.661ZM135.541 16.2L136.981 16.48C135.841 20.54 133.861 23.86 131.161 26C130.941 25.72 130.401 25.16 130.081 24.9C132.721 22.98 134.561 19.88 135.541 16.2ZM137.621 20.16L139.041 20.52C138.561 21.56 138.021 22.68 137.601 23.44L136.441 23.1C136.861 22.3 137.381 21.04 137.621 20.16ZM123.741 17.56H130.801V18.94H123.741V17.56ZM125.761 23.4H130.281V32.16H125.761V30.84H128.961V24.74H125.761V23.4ZM126.101 18.22L127.541 18.44C126.921 22.64 125.881 26.58 124.021 29.2C123.861 28.86 123.441 28.12 123.161 27.78C124.761 25.52 125.621 21.98 126.101 18.22ZM125.141 23.4H126.401V33.72H125.141V23.4ZM155.101 17.6H156.481C156.061 20.84 155.081 24.08 151.581 25.82C151.421 25.5 151.001 25 150.681 24.76C153.941 23.26 154.761 20.34 155.101 17.6ZM151.421 20.46L152.161 19.42C154.241 20.12 156.741 21.36 158.061 22.28L157.341 23.46C156.001 22.48 153.501 21.16 151.421 20.46ZM159.821 17.06H161.241C161.241 17.06 161.241 17.5 161.221 17.7C161.021 22.42 160.821 24.2 160.321 24.78C160.001 25.16 159.661 25.3 159.121 25.36C158.641 25.4 157.701 25.38 156.761 25.34C156.741 24.92 156.601 24.34 156.381 23.98C157.301 24.06 158.141 24.06 158.461 24.06C158.781 24.08 158.961 24.02 159.101 23.86C159.461 23.44 159.661 21.84 159.821 17.32V17.06ZM153.681 27.72H155.081V32.54C155.081 33.04 155.161 33.12 155.721 33.12C155.981 33.12 157.281 33.12 157.601 33.12C158.141 33.12 158.221 32.84 158.281 30.84C158.561 31.08 159.161 31.28 159.561 31.4C159.401 33.84 159.021 34.46 157.761 34.46C157.441 34.46 155.861 34.46 155.541 34.46C154.021 34.46 153.681 34.04 153.681 32.56V27.72ZM151.781 28.4L153.001 28.7C152.781 30.48 152.361 32.42 151.301 33.54L150.181 32.8C151.141 31.82 151.581 30.06 151.781 28.4ZM154.021 25.88L154.901 25C156.221 25.7 157.761 26.78 158.501 27.62L157.561 28.64C156.841 27.8 155.321 26.64 154.021 25.88ZM158.681 28.54L159.921 28.04C161.001 29.5 161.901 31.46 162.201 32.82L160.861 33.38C160.601 32.02 159.721 30 158.681 28.54ZM151.601 17.06H160.441V18.36H151.601V17.06ZM144.361 22.26H150.041V23.46H144.361V22.26ZM144.441 16.92H149.961V18.12H144.441V16.92ZM144.361 24.94H150.041V26.14H144.361V24.94ZM143.461 19.54H150.601V20.78H143.461V19.54ZM145.021 27.64H150.041V33.48H145.021V32.22H148.741V28.88H145.021V27.64ZM144.341 27.64H145.621V34.4H144.341V27.64ZM165.121 17.44H170.861V29.38H165.121V27.98H169.461V18.82H165.121V17.44ZM165.141 22.62H170.061V23.98H165.141V22.62ZM173.581 17.06H180.321V18.46H173.581V17.06ZM173.581 21.92H180.321V23.3H173.581V21.92ZM173.461 26.84H180.281V28.2H173.461V26.84ZM164.301 17.44H165.701V31.24H164.301V17.44ZM179.761 17.06H181.261V32.64C181.261 33.58 181.021 34.04 180.381 34.3C179.741 34.54 178.641 34.56 176.921 34.56C176.841 34.16 176.601 33.5 176.381 33.1C177.661 33.14 178.921 33.12 179.281 33.12C179.641 33.1 179.761 32.98 179.761 32.62V17.06ZM172.701 17.06H174.181V24.2C174.181 27.56 173.681 31.98 170.081 34.74C169.861 34.44 169.301 33.92 168.981 33.72C172.361 31.12 172.701 27.32 172.701 24.2V17.06ZM195.781 18.42H197.121V32.72H195.781V18.42ZM191.821 17.8H201.281V34.2H199.881V19.2H193.181V34.36H191.821V17.8ZM192.561 24.74H200.501V26.12H192.561V24.74ZM192.561 31.88H200.441V33.26H192.561V31.88ZM186.841 25.62H188.181V34.58H186.841V25.62ZM186.641 16.2L187.981 16.74C187.221 18.22 186.241 20 185.461 21.12L184.401 20.64C185.181 19.48 186.121 17.54 186.641 16.2ZM189.101 18.5L190.381 19.12C188.981 21.34 187.001 24.18 185.461 25.9L184.521 25.36C186.061 23.6 188.001 20.62 189.101 18.5ZM183.441 20.48L184.201 19.48C185.281 20.38 186.521 21.66 187.061 22.52L186.261 23.68C185.741 22.76 184.501 21.4 183.441 20.48ZM188.541 23.08L189.681 22.58C190.561 23.88 191.441 25.6 191.781 26.72L190.581 27.3C190.261 26.18 189.401 24.4 188.541 23.08ZM183.301 25.04C185.121 24.94 187.821 24.76 190.501 24.56L190.521 25.78C188.021 26 185.461 26.24 183.521 26.42L183.301 25.04ZM188.901 27.92L190.061 27.56C190.641 28.78 191.201 30.38 191.441 31.44L190.181 31.86C190.001 30.8 189.461 29.16 188.901 27.92ZM184.541 27.62L185.841 27.86C185.581 29.74 185.101 31.68 184.481 32.96C184.221 32.8 183.621 32.52 183.281 32.4C183.941 31.18 184.321 29.38 184.541 27.62Z" fill="#90957A"/>
</svg>
