<svg width="214" height="48" viewBox="0 0 214 48" fill="none" xmlns="http://www.w3.org/2000/svg">
<path d="M7.9 33.552C5.72267 33.552 4.02067 33.1073 2.794 32.218C1.56733 31.3287 0.954 30.24 0.954 28.952C0.954 28.0627 1.21467 27.4033 1.736 26.974C2.288 26.514 2.932 26.284 3.668 26.284C4.46533 26.284 5.06333 26.514 5.462 26.974C5.89133 27.434 6.106 27.94 6.106 28.492C6.106 29.0133 5.98333 29.4273 5.738 29.734C5.49267 30.0407 5.37 30.378 5.37 30.746C5.37 31.0833 5.58467 31.39 6.014 31.666C6.474 31.9113 7.256 32.034 8.36 32.034C9.98533 32.034 11.1507 31.758 11.856 31.206C12.592 30.6233 12.96 29.964 12.96 29.228C12.96 28.492 12.6687 27.8327 12.086 27.25C11.5033 26.6673 10.7673 26.1153 9.878 25.594C9.01933 25.042 8.14533 24.4593 7.256 23.846C6.36667 23.202 5.63067 22.4507 5.048 21.592C4.46533 20.7333 4.174 19.6907 4.174 18.464C4.174 17.268 4.496 16.1793 5.14 15.198C5.81467 14.186 6.73467 13.3887 7.9 12.806C9.096 12.1927 10.476 11.886 12.04 11.886C13.2053 11.886 14.2327 12.0547 15.122 12.392C16.0113 12.7293 16.7167 13.1893 17.238 13.772C17.79 14.3547 18.066 15.0293 18.066 15.796C18.066 16.44 17.8513 16.992 17.422 17.452C17.0233 17.912 16.4407 18.142 15.674 18.142C14.9687 18.142 14.4167 17.958 14.018 17.59C13.65 17.1913 13.466 16.7313 13.466 16.21C13.466 15.8113 13.5273 15.474 13.65 15.198C13.8033 14.922 13.88 14.646 13.88 14.37C13.88 13.9407 13.65 13.6493 13.19 13.496C12.7607 13.312 12.2393 13.22 11.626 13.22C10.7367 13.22 9.924 13.404 9.188 13.772C8.452 14.14 8.084 14.7073 8.084 15.474C8.084 16.1487 8.37533 16.762 8.958 17.314C9.57133 17.8353 10.3227 18.3567 11.212 18.878C12.1013 19.3993 12.9753 19.9973 13.834 20.672C14.7233 21.316 15.4593 22.098 16.042 23.018C16.6553 23.9073 16.962 25.0113 16.962 26.33C16.962 27.7407 16.5633 28.998 15.766 30.102C14.9687 31.1753 13.88 32.0187 12.5 32.632C11.1507 33.2453 9.61733 33.552 7.9 33.552ZM25.3135 33.552C23.9335 33.552 22.9368 33.2147 22.3235 32.54C21.7102 31.8653 21.4035 31.0527 21.4035 30.102C21.4035 29.734 21.4342 29.32 21.4955 28.86C21.5875 28.3693 21.6642 27.9553 21.7255 27.618L26.5555 6.78H32.3055L27.0615 28.86C26.9695 29.2587 26.9082 29.5807 26.8775 29.826C26.8468 30.0713 26.8315 30.24 26.8315 30.332C26.8315 30.976 27.1535 31.298 27.7975 31.298C28.4415 31.298 29.2082 30.8993 30.0975 30.102C31.0175 29.3047 31.9682 27.8787 32.9495 25.824L34.0075 26.238C33.4248 27.71 32.6735 28.998 31.7535 30.102C30.8642 31.1753 29.8675 32.0187 28.7635 32.632C27.6902 33.2453 26.5402 33.552 25.3135 33.552ZM22.1395 13.588V12.3H35.2955V13.588H22.1395ZM45.4533 33.552C43.4599 33.552 41.7733 33.138 40.3933 32.31C39.0133 31.4513 37.9553 30.3473 37.2193 28.998C36.4833 27.6487 36.1153 26.2073 36.1153 24.674C36.1153 23.0487 36.4833 21.4693 37.2193 19.936C37.9553 18.4027 38.9519 17.0227 40.2093 15.796C41.4666 14.5387 42.8926 13.5573 44.4873 12.852C46.0819 12.116 47.7226 11.748 49.4093 11.748C50.7893 11.748 52.0159 11.9933 53.0893 12.484C54.1626 12.944 55.0059 13.6033 55.6193 14.462C56.2326 15.3207 56.5393 16.302 56.5393 17.406C56.5393 18.602 56.1559 19.6907 55.3893 20.672C54.6226 21.6533 53.4879 22.4353 51.9853 23.018C50.5133 23.6007 48.7346 23.892 46.6493 23.892C45.8826 23.892 45.0699 23.8613 44.2113 23.8C43.3833 23.7387 42.6319 23.662 41.9573 23.57C41.3133 23.478 40.8993 23.4167 40.7153 23.386L40.9453 21.914C41.4666 22.1287 42.0339 22.2667 42.6473 22.328C43.2606 22.3587 44.0579 22.374 45.0393 22.374C46.6339 22.374 47.9219 22.1287 48.9033 21.638C49.8846 21.1167 50.6053 20.4267 51.0653 19.568C51.5253 18.7093 51.7553 17.7587 51.7553 16.716C51.7553 15.612 51.5099 14.738 51.0193 14.094C50.5593 13.45 49.8999 13.128 49.0413 13.128C48.3053 13.128 47.5999 13.404 46.9252 13.956C46.2813 14.4773 45.6679 15.3207 45.0853 16.486C44.5333 17.6207 44.0273 19.108 43.5673 20.948C43.1073 22.7573 42.7239 24.95 42.4173 27.526C42.2639 29.0287 42.4786 30.1327 43.0613 30.838C43.6746 31.5127 44.6713 31.85 46.0513 31.85C47.4926 31.85 48.9799 31.4667 50.5133 30.7C52.0466 29.9027 53.4879 28.4767 54.8373 26.422L55.8953 27.204C54.7606 29.136 53.3039 30.6847 51.5253 31.85C49.7466 32.9847 47.7226 33.552 45.4533 33.552ZM55.583 46.478L63.495 12.3H69.337L61.241 46.478H55.583ZM52.133 47.306V45.972H65.795V47.306H52.133ZM70.487 33.552C69.107 33.552 68.003 33.2607 67.175 32.678C66.347 32.0953 65.703 31.3133 65.243 30.332H64.921L66.071 25.87C66.0403 26.1767 66.0096 26.468 65.979 26.744C65.9483 26.9893 65.933 27.2193 65.933 27.434C65.933 28.6607 66.2703 29.7187 66.945 30.608C67.6196 31.4667 68.509 31.896 69.613 31.896C70.5943 31.896 71.4683 31.5433 72.235 30.838C73.0016 30.102 73.661 29.1513 74.213 27.986C74.765 26.8207 75.225 25.5633 75.593 24.214C75.961 22.8647 76.2216 21.5613 76.375 20.304C76.559 19.0467 76.651 17.9733 76.651 17.084C76.651 15.7347 76.467 14.7993 76.099 14.278C75.731 13.7567 75.179 13.496 74.443 13.496C73.7376 13.496 72.9096 13.7413 71.959 14.232C71.039 14.692 70.1496 15.474 69.291 16.578C68.4323 17.6513 67.727 19.0927 67.175 20.902L68.417 15.336H68.739C69.3523 14.4467 70.2263 13.634 71.361 12.898C72.4956 12.1313 73.799 11.748 75.271 11.748C76.6203 11.748 77.847 12.0853 78.951 12.76C80.0856 13.4347 81.0056 14.4007 81.711 15.658C82.4163 16.8847 82.769 18.3873 82.769 20.166C82.769 21.8833 82.4316 23.5393 81.757 25.134C81.0823 26.7287 80.1623 28.17 78.997 29.458C77.8316 30.7153 76.513 31.712 75.041 32.448C73.569 33.184 72.051 33.552 70.487 33.552ZM59.171 13.588V12.3H68.785V13.588H59.171ZM88.0518 33.552C87.0398 33.552 86.1658 33.1993 85.4298 32.494C84.7244 31.7887 84.3718 30.93 84.3718 29.918C84.3718 28.8447 84.7244 27.9553 85.4298 27.25C86.1658 26.5447 87.0398 26.192 88.0518 26.192C89.0944 26.192 89.9684 26.5447 90.6738 27.25C91.4098 27.9553 91.7778 28.8447 91.7778 29.918C91.7778 30.93 91.4098 31.7887 90.6738 32.494C89.9684 33.1993 89.0944 33.552 88.0518 33.552ZM104.37 33.598C102.346 33.598 100.69 33.322 99.4023 32.77C98.1143 32.218 97.1636 31.4973 96.5503 30.608C95.9676 29.7187 95.6763 28.7833 95.6763 27.802C95.6763 26.8207 95.9216 25.9773 96.4123 25.272C96.9336 24.5667 97.7003 24.214 98.7123 24.214C99.5096 24.214 100.169 24.4593 100.69 24.95C101.212 25.41 101.472 26.0233 101.472 26.79C101.472 27.3727 101.319 27.8327 101.012 28.17C100.736 28.4767 100.414 28.722 100.046 28.906C99.6783 29.09 99.3409 29.2587 99.0343 29.412C98.7583 29.5653 98.6203 29.7953 98.6203 30.102C98.6203 30.5007 98.8809 30.8687 99.4023 31.206C99.9543 31.5433 100.629 31.8193 101.426 32.034C102.224 32.218 103.021 32.31 103.818 32.31C104.984 32.31 106.011 32.08 106.9 31.62C107.82 31.1293 108.602 30.47 109.246 29.642C109.89 28.7833 110.366 27.756 110.672 26.56C111.01 25.364 111.178 24.0453 111.178 22.604C111.178 20.396 110.749 18.8167 109.89 17.866C109.062 16.9153 107.744 16.44 105.934 16.44C105.536 16.44 105.214 16.486 104.968 16.578C104.754 16.6393 104.554 16.7007 104.37 16.762C104.186 16.8233 103.941 16.854 103.634 16.854C103.113 16.854 102.745 16.7467 102.53 16.532C102.316 16.3173 102.208 16.072 102.208 15.796C102.208 15.428 102.331 15.152 102.576 14.968C102.852 14.7533 103.144 14.646 103.45 14.646C103.696 14.646 104.064 14.692 104.554 14.784C105.045 14.876 105.566 14.922 106.118 14.922C107.345 14.922 108.403 14.6153 109.292 14.002C110.212 13.358 110.979 12.5607 111.592 11.61C112.206 10.6593 112.65 9.64733 112.926 8.574C113.233 7.47 113.386 6.458 113.386 5.538C113.386 4.12733 113.034 3.11533 112.328 2.502C111.654 1.88867 110.657 1.582 109.338 1.582C108.204 1.582 107.284 1.766 106.578 2.134C105.873 2.502 105.52 2.97733 105.52 3.56C105.52 3.928 105.643 4.21933 105.888 4.434C106.134 4.64867 106.379 4.87867 106.624 5.124C106.87 5.36933 106.992 5.75266 106.992 6.274C106.992 6.97933 106.732 7.59267 106.21 8.114C105.72 8.60467 105.076 8.85 104.278 8.85C103.634 8.85 103.036 8.63533 102.484 8.206C101.932 7.77667 101.656 7.08666 101.656 6.136C101.656 5.032 102.04 4.05067 102.806 3.192C103.604 2.30267 104.692 1.59733 106.072 1.076C107.452 0.554666 108.986 0.293999 110.672 0.293999C112.604 0.293999 114.214 0.600665 115.502 1.214C116.821 1.82733 117.802 2.64 118.446 3.652C119.09 4.664 119.412 5.73733 119.412 6.872C119.412 8.65066 118.615 10.322 117.02 11.886C115.426 13.4193 113.095 14.6153 110.028 15.474V15.704C111.408 15.704 112.712 16.0413 113.938 16.716C115.196 17.3907 116.223 18.3107 117.02 19.476C117.818 20.6413 118.216 21.9753 118.216 23.478C118.216 24.7967 117.879 26.0693 117.204 27.296C116.53 28.492 115.564 29.5653 114.306 30.516C113.08 31.4667 111.623 32.218 109.936 32.77C108.25 33.322 106.394 33.598 104.37 33.598ZM138.79 22.02H149.67V23.38H138.79V22.02ZM135.37 25.7H153.11V27.12H135.37V25.7ZM140.63 26.68H142.23C141.81 30.58 140.69 33.28 135.81 34.64C135.65 34.26 135.25 33.66 134.93 33.36C139.43 32.24 140.29 29.94 140.63 26.68ZM145.69 26.56H147.19V32.18C147.19 32.78 147.33 32.88 148.17 32.88C148.57 32.88 150.47 32.88 150.99 32.88C151.75 32.88 151.89 32.52 151.95 30.22C152.27 30.46 152.91 30.7 153.31 30.82C153.15 33.56 152.71 34.26 151.11 34.26C150.71 34.26 148.41 34.26 148.01 34.26C146.17 34.26 145.69 33.8 145.69 32.2V26.56ZM143.41 16.22H144.99V19.4H143.41V16.22ZM135.83 18.36H152.65V22.6H151.07V19.78H137.35V22.6H135.83V18.36ZM157.65 23.7H162.63V25.1H157.65V23.7ZM162.03 23.7H163.49C163.49 23.7 163.49 24.14 163.49 24.34C163.39 28.86 163.27 30.54 162.85 31.1C162.53 31.46 162.21 31.6 161.65 31.66C161.13 31.72 160.23 31.7 159.25 31.66C159.21 31.22 159.05 30.64 158.83 30.26C159.73 30.34 160.61 30.34 160.95 30.34C161.23 30.34 161.43 30.32 161.57 30.14C161.87 29.78 161.97 28.28 162.03 23.96V23.7ZM167.67 17.22L168.57 16.28C169.81 16.92 171.39 17.88 172.17 18.58L171.23 19.6C170.47 18.9 168.93 17.88 167.67 17.22ZM170.53 22.64L172.03 23C170.33 28.22 167.35 32.08 163.25 34.5C163.03 34.2 162.47 33.58 162.15 33.28C166.21 31.12 169.03 27.46 170.53 22.64ZM157.77 19.6H173.25V21.08H157.77V19.6ZM156.81 19.6H158.37V25.24C158.37 28.08 158.05 32.12 156.23 34.74C155.97 34.44 155.33 33.92 154.97 33.74C156.63 31.28 156.81 27.84 156.81 25.22V19.6ZM165.11 16.24H166.67C166.63 25.44 168.59 32.94 171.19 32.94C171.75 32.94 172.01 31.9 172.13 29.24C172.47 29.58 173.03 29.92 173.43 30.06C173.15 33.48 172.59 34.46 171.07 34.46C166.99 34.46 165.19 25.82 165.11 16.24ZM183.21 17.98H193.47V19.42H183.21V17.98ZM188.15 18.58H189.65V32.64C189.65 33.66 189.41 34.1 188.75 34.34C188.09 34.6 186.95 34.62 185.19 34.62C185.13 34.2 184.87 33.54 184.65 33.08C186.01 33.14 187.27 33.14 187.65 33.12C188.03 33.12 188.15 33 188.15 32.64V18.58ZM175.95 22.26H182.19V23.46H175.95V22.26ZM176.07 16.92H182.21V18.12H176.07V16.92ZM175.95 24.94H182.19V26.14H175.95V24.94ZM175.01 19.54H182.97V20.78H175.01V19.54ZM176.65 27.64H182.13V33.48H176.65V32.22H180.79V28.88H176.65V27.64ZM175.93 27.64H177.27V34.4H175.93V27.64ZM203.41 22.6H204.95V34.6H203.41V22.6ZM198.87 25.98V27.72H209.75V25.98H198.87ZM198.87 23.12V24.82H209.75V23.12H198.87ZM197.41 21.9H211.27V28.92H197.41V21.9ZM195.39 30.46H213.13V31.78H195.39V30.46ZM198.23 18V19.9H202.07V18H198.23ZM196.87 17H203.47V20.9H196.87V17ZM206.45 18V19.9H210.33V18H206.45ZM205.09 17H211.75V20.9H205.09V17Z" fill="#90957A"/>
</svg>
