<svg width="249" height="48" viewBox="0 0 249 48" fill="none" xmlns="http://www.w3.org/2000/svg">
<path d="M7.9 33.552C5.72267 33.552 4.02067 33.1073 2.794 32.218C1.56733 31.3287 0.954 30.24 0.954 28.952C0.954 28.0627 1.21467 27.4033 1.736 26.974C2.288 26.514 2.932 26.284 3.668 26.284C4.46533 26.284 5.06333 26.514 5.462 26.974C5.89133 27.434 6.106 27.94 6.106 28.492C6.106 29.0133 5.98333 29.4273 5.738 29.734C5.49267 30.0407 5.37 30.378 5.37 30.746C5.37 31.0833 5.58467 31.39 6.014 31.666C6.474 31.9113 7.256 32.034 8.36 32.034C9.98533 32.034 11.1507 31.758 11.856 31.206C12.592 30.6233 12.96 29.964 12.96 29.228C12.96 28.492 12.6687 27.8327 12.086 27.25C11.5033 26.6673 10.7673 26.1153 9.878 25.594C9.01933 25.042 8.14533 24.4593 7.256 23.846C6.36667 23.202 5.63067 22.4507 5.048 21.592C4.46533 20.7333 4.174 19.6907 4.174 18.464C4.174 17.268 4.496 16.1793 5.14 15.198C5.81467 14.186 6.73467 13.3887 7.9 12.806C9.096 12.1927 10.476 11.886 12.04 11.886C13.2053 11.886 14.2327 12.0547 15.122 12.392C16.0113 12.7293 16.7167 13.1893 17.238 13.772C17.79 14.3547 18.066 15.0293 18.066 15.796C18.066 16.44 17.8513 16.992 17.422 17.452C17.0233 17.912 16.4407 18.142 15.674 18.142C14.9687 18.142 14.4167 17.958 14.018 17.59C13.65 17.1913 13.466 16.7313 13.466 16.21C13.466 15.8113 13.5273 15.474 13.65 15.198C13.8033 14.922 13.88 14.646 13.88 14.37C13.88 13.9407 13.65 13.6493 13.19 13.496C12.7607 13.312 12.2393 13.22 11.626 13.22C10.7367 13.22 9.924 13.404 9.188 13.772C8.452 14.14 8.084 14.7073 8.084 15.474C8.084 16.1487 8.37533 16.762 8.958 17.314C9.57133 17.8353 10.3227 18.3567 11.212 18.878C12.1013 19.3993 12.9753 19.9973 13.834 20.672C14.7233 21.316 15.4593 22.098 16.042 23.018C16.6553 23.9073 16.962 25.0113 16.962 26.33C16.962 27.7407 16.5633 28.998 15.766 30.102C14.9687 31.1753 13.88 32.0187 12.5 32.632C11.1507 33.2453 9.61733 33.552 7.9 33.552ZM25.3135 33.552C23.9335 33.552 22.9368 33.2147 22.3235 32.54C21.7102 31.8653 21.4035 31.0527 21.4035 30.102C21.4035 29.734 21.4342 29.32 21.4955 28.86C21.5875 28.3693 21.6642 27.9553 21.7255 27.618L26.5555 6.78H32.3055L27.0615 28.86C26.9695 29.2587 26.9082 29.5807 26.8775 29.826C26.8468 30.0713 26.8315 30.24 26.8315 30.332C26.8315 30.976 27.1535 31.298 27.7975 31.298C28.4415 31.298 29.2082 30.8993 30.0975 30.102C31.0175 29.3047 31.9682 27.8787 32.9495 25.824L34.0075 26.238C33.4248 27.71 32.6735 28.998 31.7535 30.102C30.8642 31.1753 29.8675 32.0187 28.7635 32.632C27.6902 33.2453 26.5402 33.552 25.3135 33.552ZM22.1395 13.588V12.3H35.2955V13.588H22.1395ZM45.4533 33.552C43.4599 33.552 41.7733 33.138 40.3933 32.31C39.0133 31.4513 37.9553 30.3473 37.2193 28.998C36.4833 27.6487 36.1153 26.2073 36.1153 24.674C36.1153 23.0487 36.4833 21.4693 37.2193 19.936C37.9553 18.4027 38.9519 17.0227 40.2093 15.796C41.4666 14.5387 42.8926 13.5573 44.4873 12.852C46.0819 12.116 47.7226 11.748 49.4093 11.748C50.7893 11.748 52.0159 11.9933 53.0893 12.484C54.1626 12.944 55.0059 13.6033 55.6193 14.462C56.2326 15.3207 56.5393 16.302 56.5393 17.406C56.5393 18.602 56.1559 19.6907 55.3893 20.672C54.6226 21.6533 53.4879 22.4353 51.9853 23.018C50.5133 23.6007 48.7346 23.892 46.6493 23.892C45.8826 23.892 45.0699 23.8613 44.2113 23.8C43.3833 23.7387 42.6319 23.662 41.9573 23.57C41.3133 23.478 40.8993 23.4167 40.7153 23.386L40.9453 21.914C41.4666 22.1287 42.0339 22.2667 42.6473 22.328C43.2606 22.3587 44.0579 22.374 45.0393 22.374C46.6339 22.374 47.9219 22.1287 48.9033 21.638C49.8846 21.1167 50.6053 20.4267 51.0653 19.568C51.5253 18.7093 51.7553 17.7587 51.7553 16.716C51.7553 15.612 51.5099 14.738 51.0193 14.094C50.5593 13.45 49.8999 13.128 49.0413 13.128C48.3053 13.128 47.5999 13.404 46.9252 13.956C46.2813 14.4773 45.6679 15.3207 45.0853 16.486C44.5333 17.6207 44.0273 19.108 43.5673 20.948C43.1073 22.7573 42.7239 24.95 42.4173 27.526C42.2639 29.0287 42.4786 30.1327 43.0613 30.838C43.6746 31.5127 44.6713 31.85 46.0513 31.85C47.4926 31.85 48.9799 31.4667 50.5133 30.7C52.0466 29.9027 53.4879 28.4767 54.8373 26.422L55.8953 27.204C54.7606 29.136 53.3039 30.6847 51.5253 31.85C49.7466 32.9847 47.7226 33.552 45.4533 33.552ZM55.583 46.478L63.495 12.3H69.337L61.241 46.478H55.583ZM52.133 47.306V45.972H65.795V47.306H52.133ZM70.487 33.552C69.107 33.552 68.003 33.2607 67.175 32.678C66.347 32.0953 65.703 31.3133 65.243 30.332H64.921L66.071 25.87C66.0403 26.1767 66.0096 26.468 65.979 26.744C65.9483 26.9893 65.933 27.2193 65.933 27.434C65.933 28.6607 66.2703 29.7187 66.945 30.608C67.6196 31.4667 68.509 31.896 69.613 31.896C70.5943 31.896 71.4683 31.5433 72.235 30.838C73.0016 30.102 73.661 29.1513 74.213 27.986C74.765 26.8207 75.225 25.5633 75.593 24.214C75.961 22.8647 76.2216 21.5613 76.375 20.304C76.559 19.0467 76.651 17.9733 76.651 17.084C76.651 15.7347 76.467 14.7993 76.099 14.278C75.731 13.7567 75.179 13.496 74.443 13.496C73.7376 13.496 72.9096 13.7413 71.959 14.232C71.039 14.692 70.1496 15.474 69.291 16.578C68.4323 17.6513 67.727 19.0927 67.175 20.902L68.417 15.336H68.739C69.3523 14.4467 70.2263 13.634 71.361 12.898C72.4956 12.1313 73.799 11.748 75.271 11.748C76.6203 11.748 77.847 12.0853 78.951 12.76C80.0856 13.4347 81.0056 14.4007 81.711 15.658C82.4163 16.8847 82.769 18.3873 82.769 20.166C82.769 21.8833 82.4316 23.5393 81.757 25.134C81.0823 26.7287 80.1623 28.17 78.997 29.458C77.8316 30.7153 76.513 31.712 75.041 32.448C73.569 33.184 72.051 33.552 70.487 33.552ZM59.171 13.588V12.3H68.785V13.588H59.171ZM88.0518 33.552C87.0398 33.552 86.1658 33.1993 85.4298 32.494C84.7244 31.7887 84.3718 30.93 84.3718 29.918C84.3718 28.8447 84.7244 27.9553 85.4298 27.25C86.1658 26.5447 87.0398 26.192 88.0518 26.192C89.0944 26.192 89.9684 26.5447 90.6738 27.25C91.4098 27.9553 91.7778 28.8447 91.7778 29.918C91.7778 30.93 91.4098 31.7887 90.6738 32.494C89.9684 33.1993 89.0944 33.552 88.0518 33.552ZM94.6183 33L95.4923 29.274L105.336 21.454C107.391 19.8593 109.001 18.326 110.166 16.854C111.332 15.3513 112.16 13.8793 112.65 12.438C113.141 10.966 113.386 9.50933 113.386 8.068C113.386 5.98267 112.972 4.44933 112.144 3.468C111.347 2.48667 110.212 1.996 108.74 1.996C107.575 1.996 106.517 2.25667 105.566 2.778C104.616 3.29933 103.864 3.89733 103.312 4.572C102.76 5.216 102.484 5.768 102.484 6.228C102.484 6.65733 102.699 6.964 103.128 7.148C103.558 7.30133 104.048 7.45466 104.6 7.608C105.183 7.76133 105.689 8.03733 106.118 8.436C106.548 8.804 106.762 9.402 106.762 10.23C106.762 11.1807 106.456 11.932 105.842 12.484C105.229 13.0053 104.508 13.266 103.68 13.266C103.22 13.266 102.684 13.1433 102.07 12.898C101.488 12.6527 100.951 12.2233 100.46 11.61C100 10.9967 99.7703 10.138 99.7703 9.034C99.7703 7.68467 100.154 6.366 100.92 5.078C101.687 3.75933 102.837 2.67067 104.37 1.812C105.934 0.953332 107.882 0.523999 110.212 0.523999C112.144 0.523999 113.877 0.845998 115.41 1.49C116.974 2.134 118.201 3.054 119.09 4.25C119.98 5.41533 120.424 6.81067 120.424 8.436C120.424 10 119.888 11.5947 118.814 13.22C117.741 14.8453 115.824 16.6087 113.064 18.51L100.552 27.434V27.618H113.202C113.785 27.618 114.26 27.526 114.628 27.342C114.996 27.158 115.318 26.7747 115.594 26.192C115.87 25.5787 116.146 24.6587 116.422 23.432H117.802L115.364 33H94.6183ZM136.499 17.88H148.579V19.14H136.499V17.88ZM135.939 29.56H148.839V30.84H135.939V29.56ZM141.759 16.2H143.219V21.18H141.759V16.2ZM139.459 23.82V25.1H145.599V23.82H139.459ZM139.459 26.1V27.38H145.599V26.1H139.459ZM139.459 21.6V22.84H145.599V21.6H139.459ZM138.079 20.56H147.039V28.42H138.079V20.56ZM143.579 31.86L144.619 31.1C146.199 31.96 147.939 33.04 148.979 33.86L147.599 34.62C146.679 33.82 145.079 32.72 143.579 31.86ZM139.899 31.16L141.299 31.64C140.059 32.82 138.119 33.94 136.479 34.64C136.239 34.36 135.679 33.82 135.359 33.58C137.019 33 138.819 32.1 139.899 31.16ZM130.659 21.1H136.559V22.52H130.659V21.1ZM132.999 16.46H134.419V29.5H132.999V16.46ZM130.279 29.92C131.899 29.32 134.339 28.28 136.699 27.28L137.039 28.68C134.919 29.66 132.619 30.66 130.859 31.42L130.279 29.92ZM158.839 16.22H160.339V18.68H158.839V16.22ZM151.119 17.82H168.119V21.38H166.699V19.14H152.499V21.38H151.119V17.82ZM158.159 19.78L159.119 20.76C157.799 21.3 155.999 21.76 154.479 22.04C154.419 21.78 154.239 21.36 154.099 21.1C155.519 20.74 157.199 20.24 158.159 19.78ZM153.559 20.8L154.919 21.1V26.38H153.559V20.8ZM153.559 25.68H164.379V21.9H160.199V20.8H165.759V26.8H153.559V25.68ZM154.039 23.24H158.759V24.32H154.039V23.24ZM160.499 23.24H165.079V24.32H160.499V23.24ZM156.319 26.2L157.659 26.6C156.279 28.78 153.799 30.56 151.379 31.66C151.199 31.36 150.759 30.74 150.479 30.46C152.799 29.56 155.119 28.04 156.319 26.2ZM155.459 28.1H166.559V29.32H154.219L155.459 28.1ZM166.079 28.1H167.559C167.559 28.1 167.539 28.5 167.519 28.7C167.299 32.16 167.059 33.52 166.579 34.04C166.219 34.4 165.859 34.52 165.299 34.56C164.799 34.6 163.839 34.58 162.839 34.54C162.819 34.14 162.659 33.58 162.419 33.22C163.399 33.3 164.319 33.32 164.639 33.3C164.999 33.32 165.179 33.3 165.339 33.14C165.679 32.78 165.879 31.54 166.079 28.3V28.1ZM153.819 30.12L155.019 30.5C154.719 31.92 154.159 33.46 153.059 34.36L151.959 33.68C152.939 32.88 153.519 31.44 153.819 30.12ZM156.199 30.46L157.379 30.32C157.799 31.44 158.119 32.88 158.119 33.8L156.879 33.98C156.899 33.06 156.619 31.6 156.199 30.46ZM159.019 30.36L160.119 30.06C160.739 31 161.299 32.28 161.459 33.1L160.319 33.46C160.159 32.62 159.619 31.34 159.019 30.36ZM161.799 30.26L162.799 29.78C163.499 30.42 164.239 31.32 164.559 31.98L163.499 32.5C163.219 31.86 162.479 30.9 161.799 30.26ZM178.579 17.98H188.839V19.42H178.579V17.98ZM183.519 18.58H185.019V32.64C185.019 33.66 184.779 34.1 184.119 34.34C183.459 34.6 182.319 34.62 180.559 34.62C180.499 34.2 180.239 33.54 180.019 33.08C181.379 33.14 182.639 33.14 183.019 33.12C183.399 33.12 183.519 33 183.519 32.64V18.58ZM171.319 22.26H177.559V23.46H171.319V22.26ZM171.439 16.92H177.579V18.12H171.439V16.92ZM171.319 24.94H177.559V26.14H171.319V24.94ZM170.379 19.54H178.339V20.78H170.379V19.54ZM172.019 27.64H177.499V33.48H172.019V32.22H176.159V28.88H172.019V27.64ZM171.299 27.64H172.639V34.4H171.299V27.64ZM197.759 17.94H208.319V19.08H197.759V17.94ZM197.299 22.72H208.739V23.86H197.299V22.72ZM197.239 30.14H208.819V31.3H197.239V30.14ZM198.279 20.28H207.979V21.4H198.279V20.28ZM200.199 16.22H201.539V23.18H200.199V16.22ZM204.519 16.22H205.859V23.18H204.519V16.22ZM202.319 23.22H203.659V30.5H202.319V23.22ZM206.239 25.02H207.619V33.04C207.619 33.78 207.459 34.16 206.939 34.38C206.379 34.6 205.459 34.58 204.019 34.58C203.959 34.24 203.779 33.72 203.599 33.36C204.639 33.4 205.619 33.4 205.879 33.38C206.159 33.36 206.239 33.3 206.239 33.04V25.02ZM198.519 25.02H206.839V26.16H199.879V34.62H198.519V25.02ZM199.219 27.6H206.799V28.64H199.219V27.6ZM192.259 29.98L193.619 30.3C193.139 31.94 192.299 33.56 191.379 34.62C191.119 34.42 190.559 34.02 190.239 33.82C191.139 32.86 191.879 31.44 192.259 29.98ZM194.779 30.48L195.899 29.96C196.559 30.94 197.279 32.24 197.579 33.06L196.379 33.64C196.079 32.8 195.399 31.46 194.779 30.48ZM192.579 21.96V24.54H195.579V21.96H192.579ZM192.579 25.7V28.32H195.579V25.7H192.579ZM192.579 18.22V20.78H195.579V18.22H192.579ZM191.259 16.96H196.919V29.56H191.259V16.96ZM211.539 17.68L212.199 16.66C213.579 17.02 215.439 17.7 216.399 18.2L215.739 19.36C214.799 18.84 212.939 18.12 211.539 17.68ZM210.539 21.9C211.979 21.56 214.099 20.96 216.179 20.38L216.339 21.56C214.519 22.14 212.639 22.76 211.119 23.22L210.539 21.9ZM219.119 17.68H227.159V18.82H218.239L219.119 17.68ZM226.759 17.68H226.999L227.259 17.62L228.259 17.92C227.699 18.96 226.959 20.08 226.239 20.78L225.039 20.36C225.679 19.74 226.359 18.74 226.759 17.9V17.68ZM221.599 18.08H222.979C222.559 20.92 221.279 22.48 217.199 23.3C217.059 22.98 216.739 22.48 216.479 22.22C220.179 21.6 221.259 20.36 221.599 18.08ZM222.919 18.44C223.319 20.14 224.299 21.78 228.739 22.42C228.459 22.72 228.119 23.26 227.959 23.64C223.219 22.82 222.219 20.66 221.699 18.56L222.919 18.44ZM219.439 16.2L220.799 16.42C220.119 17.88 219.099 19.36 217.539 20.56C217.279 20.28 216.759 19.96 216.399 19.8C217.899 18.78 218.919 17.4 219.439 16.2ZM214.679 26.66V28.02H224.759V26.66H214.679ZM214.679 29V30.4H224.759V29H214.679ZM214.679 24.32V25.68H224.759V24.32H214.679ZM213.219 23.32H226.259V31.4H213.219V23.32ZM221.279 32.42L222.499 31.66C224.699 32.34 227.119 33.22 228.559 33.9L226.899 34.66C225.639 34 223.459 33.14 221.279 32.42ZM216.579 31.62L217.939 32.24C216.319 33.2 213.779 34.12 211.779 34.68C211.539 34.38 211.019 33.8 210.679 33.54C212.739 33.1 215.139 32.4 216.579 31.62ZM233.779 16.28H235.179V34.58H233.779V16.28ZM230.559 22.92H238.459V24.34H230.559V22.92ZM233.559 23.66L234.459 24.06C233.759 26.78 232.339 30.24 230.999 32.06C230.839 31.62 230.479 30.98 230.239 30.58C231.519 29.04 232.919 26 233.559 23.66ZM235.139 24.6C235.699 25.2 237.739 27.92 238.199 28.58L237.199 29.78C236.699 28.7 235.059 26.08 234.399 25.22L235.139 24.6ZM230.699 17.76L231.799 17.48C232.359 18.88 232.819 20.7 232.959 21.9L231.779 22.22C231.679 21.02 231.219 19.16 230.699 17.76ZM237.159 17.4L238.479 17.74C237.959 19.26 237.339 21.14 236.799 22.26L235.839 21.96C236.279 20.76 236.879 18.76 237.159 17.4ZM244.919 16.22H246.339V34.6H244.919V16.22ZM238.419 28.94L248.699 27.1L248.939 28.48L238.659 30.34L238.419 28.94ZM239.919 18.66L240.699 17.64C241.859 18.32 243.239 19.34 243.899 20.08L243.099 21.24C242.459 20.46 241.079 19.38 239.919 18.66ZM238.899 23.7L239.599 22.64C240.799 23.26 242.279 24.2 242.999 24.92L242.239 26.1C241.539 25.38 240.099 24.36 238.899 23.7Z" fill="#90957A"/>
</svg>
